<svg width="63" height="74" viewBox="0 0 63 74" fill="none" xmlns="http://www.w3.org/2000/svg">
<path d="M18.926 0H0.188232V73.7802H18.926V0Z" fill="#2D969F"/>
<path d="M25.3086 0C25.1329 0 24.9573 0 24.7816 0V73.7802C24.9573 73.7802 25.1329 73.7802 25.3086 73.7802C45.686 73.7802 62.1987 57.2674 62.1987 36.8901C62.1987 16.5127 45.686 0 25.3086 0Z" fill="#FFAF27"/>
<path d="M25.0744 19.1476C24.9573 19.1476 24.8987 19.1476 24.7816 19.1476V54.6324C24.8987 54.6324 24.9573 54.6324 25.0744 54.6324C34.8532 54.6324 42.8168 46.6688 42.8168 36.89C42.8168 27.1112 34.8532 19.1476 25.0744 19.1476Z" fill="white"/>
</svg>
