<svg width="137" height="131" viewBox="0 0 137 131" fill="none" xmlns="http://www.w3.org/2000/svg">
<path d="M55.0706 9.70596C59.2976 -3.23532 77.7024 -3.23532 81.9294 9.70596L88.4198 29.5766C90.3102 35.3641 95.7318 39.2826 101.849 39.2826H122.852C136.531 39.2826 142.219 56.695 131.152 64.6931L114.16 76.9738C109.211 80.5507 107.14 86.8909 109.031 92.6784L115.521 112.549C119.748 125.49 104.858 136.252 93.7918 128.254L76.7998 115.973C71.8508 112.396 65.1492 112.396 60.2002 115.973L43.2082 128.254C32.1418 136.252 17.2519 125.49 21.4789 112.549L27.9693 92.6784C29.8597 86.8909 27.7888 80.5507 22.8397 76.9738L5.84775 64.6931C-5.21869 56.695 0.468709 39.2826 14.1476 39.2826H35.1508C41.2682 39.2826 46.6899 35.3641 48.5802 29.5766L55.0706 9.70596Z" fill="#FFCE54"/>
<path d="M66.4883 78.4844C65.4336 79.6562 63.8906 80.6003 61.8594 81.3164C59.8281 82.0326 57.6016 82.3906 55.1797 82.3906C51.4557 82.3906 48.4805 81.2513 46.2539 78.9727C44.0273 76.694 42.8359 73.5234 42.6797 69.4609L42.6602 67C42.6602 64.2005 43.1549 61.7591 44.1445 59.6758C45.1341 57.5794 46.5469 55.9714 48.3828 54.8516C50.2318 53.7188 52.3672 53.1523 54.7891 53.1523C58.3307 53.1523 61.0781 53.9661 63.0312 55.5938C64.9974 57.2083 66.1432 59.6237 66.4688 62.8398H59.8672C59.6328 61.2513 59.125 60.1185 58.3438 59.4414C57.5625 58.7643 56.4557 58.4258 55.0234 58.4258C53.3047 58.4258 51.9766 59.1549 51.0391 60.6133C50.1016 62.0716 49.6263 64.1549 49.6133 66.8633V68.582C49.6133 71.4206 50.0951 73.556 51.0586 74.9883C52.0352 76.4076 53.5651 77.1172 55.6484 77.1172C57.4323 77.1172 58.7604 76.7201 59.6328 75.9258V71.5117H54.8672V66.8047H66.4883V78.4844ZM94.5547 68.3672C94.5547 71.1406 94.0404 73.5951 93.0117 75.7305C91.9831 77.8659 90.5182 79.513 88.6172 80.6719C86.7292 81.8177 84.5742 82.3906 82.1523 82.3906C79.7305 82.3906 77.582 81.8372 75.707 80.7305C73.832 79.6107 72.3672 78.0156 71.3125 75.9453C70.2708 73.875 69.724 71.4987 69.6719 68.8164V67.2148C69.6719 64.4284 70.1797 61.974 71.1953 59.8516C72.224 57.7161 73.6888 56.069 75.5898 54.9102C77.5039 53.7513 79.6784 53.1719 82.1133 53.1719C84.5221 53.1719 86.6706 53.7448 88.5586 54.8906C90.4466 56.0365 91.9115 57.6706 92.9531 59.793C94.0078 61.9023 94.5417 64.3242 94.5547 67.0586V68.3672ZM87.582 67.1758C87.582 64.3503 87.1068 62.2083 86.1562 60.75C85.2188 59.2786 83.8711 58.543 82.1133 58.543C78.6758 58.543 76.8594 61.1211 76.6641 66.2773L76.6445 68.3672C76.6445 71.1536 77.1068 73.2956 78.0312 74.793C78.9557 76.2904 80.3294 77.0391 82.1523 77.0391C83.8841 77.0391 85.2188 76.3034 86.1562 74.832C87.0938 73.3607 87.569 71.2448 87.582 68.4844V67.1758Z" fill="#FE5A63"/>
</svg>
