<svg width="201" height="39" viewBox="0 0 201 39" fill="none" xmlns="http://www.w3.org/2000/svg">
<path d="M2.38672 31.2305V36.4062H1.47656V31.2305H0.0898438V30.375H3.76953V31.2305H2.38672ZM6.88281 32.6016H7.76562V36.4062H6.88281V36.0078C6.52083 36.3464 6.13151 36.5156 5.71484 36.5156C5.1888 36.5156 4.75391 36.3255 4.41016 35.9453C4.06901 35.5573 3.89844 35.0729 3.89844 34.4922C3.89844 33.9219 4.06901 33.4466 4.41016 33.0664C4.7513 32.6862 5.17839 32.4961 5.69141 32.4961C6.13411 32.4961 6.53125 32.6784 6.88281 33.043V32.6016ZM4.79688 34.4922C4.79688 34.8568 4.89453 35.1536 5.08984 35.3828C5.29036 35.6146 5.54297 35.7305 5.84766 35.7305C6.17318 35.7305 6.4362 35.6185 6.63672 35.3945C6.83724 35.1628 6.9375 34.8685 6.9375 34.5117C6.9375 34.1549 6.83724 33.8607 6.63672 33.6289C6.4362 33.4023 6.17578 33.2891 5.85547 33.2891C5.55339 33.2891 5.30078 33.4036 5.09766 33.6328C4.89714 33.8646 4.79688 34.151 4.79688 34.4922ZM9.75391 32.6016V36.4062H8.875V32.6016H9.75391ZM8.74219 31.0195C8.74219 30.8659 8.79818 30.7331 8.91016 30.6211C9.02214 30.5091 9.15625 30.4531 9.3125 30.4531C9.47135 30.4531 9.60677 30.5091 9.71875 30.6211C9.83073 30.7305 9.88672 30.8646 9.88672 31.0234C9.88672 31.1823 9.83073 31.3177 9.71875 31.4297C9.60938 31.5417 9.47526 31.5977 9.31641 31.5977C9.15755 31.5977 9.02214 31.5417 8.91016 31.4297C8.79818 31.3177 8.74219 31.181 8.74219 31.0195ZM11.7461 38.4766H10.8672V32.6016H11.7461V33.0156C12.0924 32.6693 12.4857 32.4961 12.9258 32.4961C13.4492 32.4961 13.8802 32.6888 14.2188 33.0742C14.5625 33.457 14.7344 33.9401 14.7344 34.5234C14.7344 35.0938 14.5638 35.569 14.2227 35.9492C13.8841 36.3268 13.457 36.5156 12.9414 36.5156C12.4961 36.5156 12.0977 36.3372 11.7461 35.9805V38.4766ZM13.8359 34.5273C13.8359 34.1628 13.737 33.8659 13.5391 33.6367C13.3385 33.4049 13.0859 33.2891 12.7812 33.2891C12.4583 33.2891 12.1966 33.401 11.9961 33.625C11.7956 33.849 11.6953 34.1432 11.6953 34.5078C11.6953 34.8646 11.7956 35.1589 11.9961 35.3906C12.194 35.6172 12.4544 35.7305 12.7773 35.7305C13.082 35.7305 13.3333 35.6159 13.5312 35.3867C13.7344 35.1576 13.8359 34.8711 13.8359 34.5273ZM19.1289 34.7109H16.4023C16.4258 35.0234 16.5273 35.2721 16.707 35.457C16.8867 35.6393 17.1172 35.7305 17.3984 35.7305C17.6172 35.7305 17.7982 35.6784 17.9414 35.5742C18.082 35.4701 18.2422 35.2773 18.4219 34.9961L19.1641 35.4102C19.0495 35.6055 18.9284 35.7734 18.8008 35.9141C18.6732 36.0521 18.5365 36.1667 18.3906 36.2578C18.2448 36.3464 18.0872 36.4115 17.918 36.4531C17.7487 36.4948 17.5651 36.5156 17.3672 36.5156C16.7995 36.5156 16.3438 36.3333 16 35.9688C15.6562 35.6016 15.4844 35.1146 15.4844 34.5078C15.4844 33.9062 15.651 33.4193 15.9844 33.0469C16.3203 32.6797 16.7656 32.4961 17.3203 32.4961C17.8802 32.4961 18.3229 32.6745 18.6484 33.0312C18.9714 33.3854 19.1328 33.8763 19.1328 34.5039L19.1289 34.7109ZM18.2266 33.9922C18.1042 33.5234 17.8086 33.2891 17.3398 33.2891C17.2331 33.2891 17.1328 33.306 17.0391 33.3398C16.9453 33.3711 16.8594 33.418 16.7812 33.4805C16.7057 33.5404 16.6406 33.6133 16.5859 33.6992C16.5312 33.7852 16.4896 33.8828 16.4609 33.9922H18.2266ZM20.9727 32.6016V36.4062H20.0938V32.6016H20.9727ZM19.9609 31.0195C19.9609 30.8659 20.0169 30.7331 20.1289 30.6211C20.2409 30.5091 20.375 30.4531 20.5312 30.4531C20.6901 30.4531 20.8255 30.5091 20.9375 30.6211C21.0495 30.7305 21.1055 30.8646 21.1055 31.0234C21.1055 31.1823 21.0495 31.3177 20.9375 31.4297C20.8281 31.5417 20.694 31.5977 20.5352 31.5977C20.3763 31.5977 20.2409 31.5417 20.1289 31.4297C20.0169 31.3177 19.9609 31.181 19.9609 31.0195ZM25.6328 30.375V36.4062H24.7227V30.375H25.6328ZM26.9141 32.6016H27.7969V32.9531C28.1042 32.6484 28.4505 32.4961 28.8359 32.4961C29.2786 32.4961 29.6237 32.6354 29.8711 32.9141C30.0846 33.151 30.1914 33.5378 30.1914 34.0742V36.4062H29.3086V34.2812C29.3086 33.9062 29.2565 33.6471 29.1523 33.5039C29.0508 33.3581 28.8659 33.2852 28.5977 33.2852C28.306 33.2852 28.099 33.3815 27.9766 33.5742C27.8568 33.7643 27.7969 34.0964 27.7969 34.5703V36.4062H26.9141V32.6016ZM32.2109 33.4219V36.4062H31.332V33.4219H30.957V32.6016H31.332V31.207H32.2109V32.6016H32.8945V33.4219H32.2109ZM37.0273 34.7109H34.3008C34.3242 35.0234 34.4258 35.2721 34.6055 35.457C34.7852 35.6393 35.0156 35.7305 35.2969 35.7305C35.5156 35.7305 35.6966 35.6784 35.8398 35.5742C35.9805 35.4701 36.1406 35.2773 36.3203 34.9961L37.0625 35.4102C36.9479 35.6055 36.8268 35.7734 36.6992 35.9141C36.5716 36.0521 36.4349 36.1667 36.2891 36.2578C36.1432 36.3464 35.9857 36.4115 35.8164 36.4531C35.6471 36.4948 35.4635 36.5156 35.2656 36.5156C34.6979 36.5156 34.2422 36.3333 33.8984 35.9688C33.5547 35.6016 33.3828 35.1146 33.3828 34.5078C33.3828 33.9062 33.5495 33.4193 33.8828 33.0469C34.2188 32.6797 34.6641 32.4961 35.2188 32.4961C35.7786 32.4961 36.2214 32.6745 36.5469 33.0312C36.8698 33.3854 37.0312 33.8763 37.0312 34.5039L37.0273 34.7109ZM36.125 33.9922C36.0026 33.5234 35.707 33.2891 35.2383 33.2891C35.1315 33.2891 35.0312 33.306 34.9375 33.3398C34.8438 33.3711 34.7578 33.418 34.6797 33.4805C34.6042 33.5404 34.5391 33.6133 34.4844 33.6992C34.4297 33.7852 34.388 33.8828 34.3594 33.9922H36.125ZM37.9922 32.6016H38.8711V32.9414C39.0326 32.7721 39.1758 32.6562 39.3008 32.5938C39.4284 32.5286 39.5794 32.4961 39.7539 32.4961C39.9857 32.4961 40.2279 32.5716 40.4805 32.7227L40.0781 33.5273C39.9115 33.4076 39.7487 33.3477 39.5898 33.3477C39.1107 33.3477 38.8711 33.7096 38.8711 34.4336V36.4062H37.9922V32.6016ZM41.1094 32.6016H41.9922V32.9531C42.2995 32.6484 42.6458 32.4961 43.0312 32.4961C43.474 32.4961 43.819 32.6354 44.0664 32.9141C44.2799 33.151 44.3867 33.5378 44.3867 34.0742V36.4062H43.5039V34.2812C43.5039 33.9062 43.4518 33.6471 43.3477 33.5039C43.2461 33.3581 43.0612 33.2852 42.793 33.2852C42.5013 33.2852 42.2943 33.3815 42.1719 33.5742C42.0521 33.7643 41.9922 34.0964 41.9922 34.5703V36.4062H41.1094V32.6016ZM48.3047 32.6016H49.1875V36.4062H48.3047V36.0078C47.9427 36.3464 47.5534 36.5156 47.1367 36.5156C46.6107 36.5156 46.1758 36.3255 45.832 35.9453C45.4909 35.5573 45.3203 35.0729 45.3203 34.4922C45.3203 33.9219 45.4909 33.4466 45.832 33.0664C46.1732 32.6862 46.6003 32.4961 47.1133 32.4961C47.556 32.4961 47.9531 32.6784 48.3047 33.043V32.6016ZM46.2188 34.4922C46.2188 34.8568 46.3164 35.1536 46.5117 35.3828C46.7122 35.6146 46.9648 35.7305 47.2695 35.7305C47.5951 35.7305 47.8581 35.6185 48.0586 35.3945C48.2591 35.1628 48.3594 34.8685 48.3594 34.5117C48.3594 34.1549 48.2591 33.8607 48.0586 33.6289C47.8581 33.4023 47.5977 33.2891 47.2773 33.2891C46.9753 33.2891 46.7227 33.4036 46.5195 33.6328C46.319 33.8646 46.2188 34.151 46.2188 34.4922ZM51.2031 33.4219V36.4062H50.3242V33.4219H49.9492V32.6016H50.3242V31.207H51.2031V32.6016H51.8867V33.4219H51.2031ZM53.3633 32.6016V36.4062H52.4844V32.6016H53.3633ZM52.3516 31.0195C52.3516 30.8659 52.4076 30.7331 52.5195 30.6211C52.6315 30.5091 52.7656 30.4531 52.9219 30.4531C53.0807 30.4531 53.2161 30.5091 53.3281 30.6211C53.4401 30.7305 53.4961 30.8646 53.4961 31.0234C53.4961 31.1823 53.4401 31.3177 53.3281 31.4297C53.2188 31.5417 53.0846 31.5977 52.9258 31.5977C52.7669 31.5977 52.6315 31.5417 52.5195 31.4297C52.4076 31.3177 52.3516 31.181 52.3516 31.0195ZM54.2969 34.4766C54.2969 33.9271 54.4935 33.4596 54.8867 33.0742C55.2799 32.6888 55.7591 32.4961 56.3242 32.4961C56.8919 32.4961 57.3737 32.6901 57.7695 33.0781C58.1602 33.4661 58.3555 33.9427 58.3555 34.5078C58.3555 35.0781 58.1589 35.556 57.7656 35.9414C57.3698 36.3242 56.8841 36.5156 56.3086 36.5156C55.7383 36.5156 55.2604 36.3203 54.875 35.9297C54.4896 35.5443 54.2969 35.0599 54.2969 34.4766ZM55.1953 34.4922C55.1953 34.8724 55.2969 35.1732 55.5 35.3945C55.7083 35.6185 55.9831 35.7305 56.3242 35.7305C56.668 35.7305 56.9427 35.6198 57.1484 35.3984C57.3542 35.1771 57.457 34.8815 57.457 34.5117C57.457 34.1419 57.3542 33.8464 57.1484 33.625C56.9401 33.401 56.6654 33.2891 56.3242 33.2891C55.9883 33.2891 55.7161 33.401 55.5078 33.625C55.2995 33.849 55.1953 34.138 55.1953 34.4922ZM59.2891 32.6016H60.1719V32.9531C60.4792 32.6484 60.8255 32.4961 61.2109 32.4961C61.6536 32.4961 61.9987 32.6354 62.2461 32.9141C62.4596 33.151 62.5664 33.5378 62.5664 34.0742V36.4062H61.6836V34.2812C61.6836 33.9062 61.6315 33.6471 61.5273 33.5039C61.4258 33.3581 61.2409 33.2852 60.9727 33.2852C60.681 33.2852 60.474 33.3815 60.3516 33.5742C60.2318 33.7643 60.1719 34.0964 60.1719 34.5703V36.4062H59.2891V32.6016ZM66.4844 32.6016H67.3672V36.4062H66.4844V36.0078C66.1224 36.3464 65.7331 36.5156 65.3164 36.5156C64.7904 36.5156 64.3555 36.3255 64.0117 35.9453C63.6706 35.5573 63.5 35.0729 63.5 34.4922C63.5 33.9219 63.6706 33.4466 64.0117 33.0664C64.3529 32.6862 64.7799 32.4961 65.293 32.4961C65.7357 32.4961 66.1328 32.6784 66.4844 33.043V32.6016ZM64.3984 34.4922C64.3984 34.8568 64.4961 35.1536 64.6914 35.3828C64.8919 35.6146 65.1445 35.7305 65.4492 35.7305C65.7747 35.7305 66.0378 35.6185 66.2383 35.3945C66.4388 35.1628 66.5391 34.8685 66.5391 34.5117C66.5391 34.1549 66.4388 33.8607 66.2383 33.6289C66.0378 33.4023 65.7773 33.2891 65.457 33.2891C65.1549 33.2891 64.9023 33.4036 64.6992 33.6328C64.4987 33.8646 64.3984 34.151 64.3984 34.4922ZM69.3555 29.8086V36.4062H68.4766V29.8086H69.3555ZM76.1172 31.2305H74.0156V32.6797H76.043V33.5352H74.0156V36.4062H73.1055V30.375H76.1172V31.2305ZM76.7578 34.4766C76.7578 33.9271 76.9544 33.4596 77.3477 33.0742C77.7409 32.6888 78.2201 32.4961 78.7852 32.4961C79.3529 32.4961 79.8346 32.6901 80.2305 33.0781C80.6211 33.4661 80.8164 33.9427 80.8164 34.5078C80.8164 35.0781 80.6198 35.556 80.2266 35.9414C79.8307 36.3242 79.3451 36.5156 78.7695 36.5156C78.1992 36.5156 77.7214 36.3203 77.3359 35.9297C76.9505 35.5443 76.7578 35.0599 76.7578 34.4766ZM77.6562 34.4922C77.6562 34.8724 77.7578 35.1732 77.9609 35.3945C78.1693 35.6185 78.444 35.7305 78.7852 35.7305C79.1289 35.7305 79.4036 35.6198 79.6094 35.3984C79.8151 35.1771 79.918 34.8815 79.918 34.5117C79.918 34.1419 79.8151 33.8464 79.6094 33.625C79.401 33.401 79.1263 33.2891 78.7852 33.2891C78.4492 33.2891 78.1771 33.401 77.9688 33.625C77.7604 33.849 77.6562 34.138 77.6562 34.4922ZM81.5703 34.4766C81.5703 33.9271 81.7669 33.4596 82.1602 33.0742C82.5534 32.6888 83.0326 32.4961 83.5977 32.4961C84.1654 32.4961 84.6471 32.6901 85.043 33.0781C85.4336 33.4661 85.6289 33.9427 85.6289 34.5078C85.6289 35.0781 85.4323 35.556 85.0391 35.9414C84.6432 36.3242 84.1576 36.5156 83.582 36.5156C83.0117 36.5156 82.5339 36.3203 82.1484 35.9297C81.763 35.5443 81.5703 35.0599 81.5703 34.4766ZM82.4688 34.4922C82.4688 34.8724 82.5703 35.1732 82.7734 35.3945C82.9818 35.6185 83.2565 35.7305 83.5977 35.7305C83.9414 35.7305 84.2161 35.6198 84.4219 35.3984C84.6276 35.1771 84.7305 34.8815 84.7305 34.5117C84.7305 34.1419 84.6276 33.8464 84.4219 33.625C84.2135 33.401 83.9388 33.2891 83.5977 33.2891C83.2617 33.2891 82.9896 33.401 82.7812 33.625C82.5729 33.849 82.4688 34.138 82.4688 34.4922ZM89.3672 29.8086H90.25V36.4062H89.3672V36.0078C89.0208 36.3464 88.6289 36.5156 88.1914 36.5156C87.6706 36.5156 87.2383 36.3255 86.8945 35.9453C86.5534 35.5573 86.3828 35.0729 86.3828 34.4922C86.3828 33.9245 86.5534 33.4505 86.8945 33.0703C87.2331 32.6875 87.6589 32.4961 88.1719 32.4961C88.6172 32.4961 89.0156 32.6784 89.3672 33.043V29.8086ZM87.2812 34.4922C87.2812 34.8568 87.3789 35.1536 87.5742 35.3828C87.7747 35.6146 88.0273 35.7305 88.332 35.7305C88.6576 35.7305 88.9206 35.6185 89.1211 35.3945C89.3216 35.1628 89.4219 34.8685 89.4219 34.5117C89.4219 34.1549 89.3216 33.8607 89.1211 33.6289C88.9206 33.4023 88.6602 33.2891 88.3398 33.2891C88.0378 33.2891 87.7852 33.4036 87.582 33.6328C87.3815 33.8646 87.2812 34.151 87.2812 34.4922ZM97.4062 31.2734L96.668 31.7109C96.5299 31.4714 96.3984 31.3151 96.2734 31.2422C96.1432 31.1589 95.9753 31.1172 95.7695 31.1172C95.5169 31.1172 95.3073 31.1888 95.1406 31.332C94.974 31.4727 94.8906 31.6497 94.8906 31.8633C94.8906 32.1576 95.1094 32.3945 95.5469 32.5742L96.1484 32.8203C96.638 33.0182 96.9961 33.2604 97.2227 33.5469C97.4492 33.8307 97.5625 34.1797 97.5625 34.5938C97.5625 35.1484 97.3776 35.6068 97.0078 35.9688C96.6354 36.3333 96.1732 36.5156 95.6211 36.5156C95.0977 36.5156 94.6654 36.3607 94.3242 36.0508C93.9883 35.7409 93.7786 35.3047 93.6953 34.7422L94.6172 34.5391C94.6589 34.8932 94.7318 35.138 94.8359 35.2734C95.0234 35.5339 95.2969 35.6641 95.6562 35.6641C95.9401 35.6641 96.1758 35.569 96.3633 35.3789C96.5508 35.1888 96.6445 34.9479 96.6445 34.6562C96.6445 34.5391 96.6276 34.4323 96.5938 34.3359C96.5625 34.237 96.5117 34.1471 96.4414 34.0664C96.3737 33.9831 96.2852 33.9062 96.1758 33.8359C96.0664 33.763 95.9362 33.694 95.7852 33.6289L95.2031 33.3867C94.3776 33.0378 93.9648 32.5273 93.9648 31.8555C93.9648 31.4023 94.138 31.0234 94.4844 30.7188C94.8307 30.4115 95.2617 30.2578 95.7773 30.2578C96.4727 30.2578 97.0156 30.5964 97.4062 31.2734ZM98.4922 29.8086H99.3711V32.918C99.6836 32.6367 100.029 32.4961 100.406 32.4961C100.836 32.4961 101.18 32.6354 101.438 32.9141C101.656 33.1562 101.766 33.543 101.766 34.0742V36.4062H100.887V34.1562C100.887 33.8516 100.832 33.6315 100.723 33.4961C100.616 33.3581 100.443 33.2891 100.203 33.2891C99.8958 33.2891 99.6797 33.3841 99.5547 33.5742C99.4323 33.7669 99.3711 34.0977 99.3711 34.5664V36.4062H98.4922V29.8086ZM102.703 34.4766C102.703 33.9271 102.9 33.4596 103.293 33.0742C103.686 32.6888 104.165 32.4961 104.73 32.4961C105.298 32.4961 105.78 32.6901 106.176 33.0781C106.566 33.4661 106.762 33.9427 106.762 34.5078C106.762 35.0781 106.565 35.556 106.172 35.9414C105.776 36.3242 105.29 36.5156 104.715 36.5156C104.145 36.5156 103.667 36.3203 103.281 35.9297C102.896 35.5443 102.703 35.0599 102.703 34.4766ZM103.602 34.4922C103.602 34.8724 103.703 35.1732 103.906 35.3945C104.115 35.6185 104.389 35.7305 104.73 35.7305C105.074 35.7305 105.349 35.6198 105.555 35.3984C105.76 35.1771 105.863 34.8815 105.863 34.5117C105.863 34.1419 105.76 33.8464 105.555 33.625C105.346 33.401 105.072 33.2891 104.73 33.2891C104.395 33.2891 104.122 33.401 103.914 33.625C103.706 33.849 103.602 34.138 103.602 34.4922ZM108.016 32.6016L109.012 34.7734L110.086 32.2539L111.168 34.7734L112.152 32.6016H113.137L111.145 36.6914L110.086 34.2422L109.016 36.6914L107.027 32.6016H108.016ZM116.574 34.0898H119.848V34.8555H116.574V34.0898ZM123.672 33.3633C123.672 32.5143 123.983 31.7852 124.605 31.1758C125.225 30.5664 125.97 30.2617 126.84 30.2617C127.699 30.2617 128.436 30.569 129.051 31.1836C129.668 31.7982 129.977 32.5365 129.977 33.3984C129.977 34.2656 129.667 35.0013 129.047 35.6055C128.424 36.2122 127.673 36.5156 126.793 36.5156C126.014 36.5156 125.315 36.2461 124.695 35.707C124.013 35.1107 123.672 34.3294 123.672 33.3633ZM124.59 33.375C124.59 34.0417 124.814 34.5898 125.262 35.0195C125.707 35.4492 126.221 35.6641 126.805 35.6641C127.438 35.6641 127.971 35.4453 128.406 35.0078C128.841 34.5651 129.059 34.026 129.059 33.3906C129.059 32.7474 128.844 32.2083 128.414 31.7734C127.987 31.3359 127.458 31.1172 126.828 31.1172C126.201 31.1172 125.671 31.3359 125.238 31.7734C124.806 32.2057 124.59 32.7396 124.59 33.375ZM130.953 32.6016H131.836V32.9531C132.143 32.6484 132.49 32.4961 132.875 32.4961C133.318 32.4961 133.663 32.6354 133.91 32.9141C134.124 33.151 134.23 33.5378 134.23 34.0742V36.4062H133.348V34.2812C133.348 33.9062 133.296 33.6471 133.191 33.5039C133.09 33.3581 132.905 33.2852 132.637 33.2852C132.345 33.2852 132.138 33.3815 132.016 33.5742C131.896 33.7643 131.836 34.0964 131.836 34.5703V36.4062H130.953V32.6016ZM136.223 29.8086V36.4062H135.344V29.8086H136.223ZM138.215 32.6016V36.4062H137.336V32.6016H138.215ZM137.203 31.0195C137.203 30.8659 137.259 30.7331 137.371 30.6211C137.483 30.5091 137.617 30.4531 137.773 30.4531C137.932 30.4531 138.068 30.5091 138.18 30.6211C138.292 30.7305 138.348 30.8646 138.348 31.0234C138.348 31.1823 138.292 31.3177 138.18 31.4297C138.07 31.5417 137.936 31.5977 137.777 31.5977C137.618 31.5977 137.483 31.5417 137.371 31.4297C137.259 31.3177 137.203 31.181 137.203 31.0195ZM139.328 32.6016H140.211V32.9531C140.518 32.6484 140.865 32.4961 141.25 32.4961C141.693 32.4961 142.038 32.6354 142.285 32.9141C142.499 33.151 142.605 33.5378 142.605 34.0742V36.4062H141.723V34.2812C141.723 33.9062 141.671 33.6471 141.566 33.5039C141.465 33.3581 141.28 33.2852 141.012 33.2852C140.72 33.2852 140.513 33.3815 140.391 33.5742C140.271 33.7643 140.211 34.0964 140.211 34.5703V36.4062H139.328V32.6016ZM147.184 34.7109H144.457C144.48 35.0234 144.582 35.2721 144.762 35.457C144.941 35.6393 145.172 35.7305 145.453 35.7305C145.672 35.7305 145.853 35.6784 145.996 35.5742C146.137 35.4701 146.297 35.2773 146.477 34.9961L147.219 35.4102C147.104 35.6055 146.983 35.7734 146.855 35.9141C146.728 36.0521 146.591 36.1667 146.445 36.2578C146.299 36.3464 146.142 36.4115 145.973 36.4531C145.803 36.4948 145.62 36.5156 145.422 36.5156C144.854 36.5156 144.398 36.3333 144.055 35.9688C143.711 35.6016 143.539 35.1146 143.539 34.5078C143.539 33.9062 143.706 33.4193 144.039 33.0469C144.375 32.6797 144.82 32.4961 145.375 32.4961C145.935 32.4961 146.378 32.6745 146.703 33.0312C147.026 33.3854 147.188 33.8763 147.188 34.5039L147.184 34.7109ZM146.281 33.9922C146.159 33.5234 145.863 33.2891 145.395 33.2891C145.288 33.2891 145.188 33.306 145.094 33.3398C145 33.3711 144.914 33.418 144.836 33.4805C144.76 33.5404 144.695 33.6133 144.641 33.6992C144.586 33.7852 144.544 33.8828 144.516 33.9922H146.281ZM152.066 35.5508H154.312V36.4062H150.262L152.355 33.8711C152.561 33.6185 152.733 33.3997 152.871 33.2148C153.012 33.0299 153.118 32.875 153.191 32.75C153.34 32.5052 153.414 32.2852 153.414 32.0898C153.414 31.8086 153.315 31.5729 153.117 31.3828C152.919 31.1927 152.674 31.0977 152.383 31.0977C151.773 31.0977 151.424 31.4583 151.336 32.1797H150.43C150.576 30.9089 151.217 30.2734 152.355 30.2734C152.905 30.2734 153.366 30.4479 153.738 30.7969C154.113 31.1458 154.301 31.5781 154.301 32.0938C154.301 32.4219 154.214 32.7435 154.039 33.0586C153.951 33.2227 153.82 33.418 153.648 33.6445C153.479 33.8685 153.264 34.1341 153.004 34.4414L152.066 35.5508ZM155.34 33.3516C155.34 32.3906 155.564 31.6237 156.012 31.0508C156.413 30.5326 156.898 30.2734 157.469 30.2734C158.039 30.2734 158.525 30.5326 158.926 31.0508C159.374 31.6237 159.598 32.4036 159.598 33.3906C159.598 34.375 159.374 35.1536 158.926 35.7266C158.525 36.2448 158.04 36.5039 157.473 36.5039C156.905 36.5039 156.418 36.2448 156.012 35.7266C155.564 35.1536 155.34 34.362 155.34 33.3516ZM156.234 33.3555C156.234 34.0247 156.35 34.5807 156.582 35.0234C156.814 35.4583 157.109 35.6758 157.469 35.6758C157.826 35.6758 158.121 35.4583 158.355 35.0234C158.59 34.5911 158.707 34.0456 158.707 33.3867C158.707 32.7279 158.59 32.181 158.355 31.7461C158.121 31.3138 157.826 31.0977 157.469 31.0977C157.115 31.0977 156.82 31.3138 156.586 31.7461C156.352 32.1758 156.234 32.7122 156.234 33.3555ZM161.941 35.5508H164.188V36.4062H160.137L162.23 33.8711C162.436 33.6185 162.608 33.3997 162.746 33.2148C162.887 33.0299 162.993 32.875 163.066 32.75C163.215 32.5052 163.289 32.2852 163.289 32.0898C163.289 31.8086 163.19 31.5729 162.992 31.3828C162.794 31.1927 162.549 31.0977 162.258 31.0977C161.648 31.0977 161.299 31.4583 161.211 32.1797H160.305C160.451 30.9089 161.092 30.2734 162.23 30.2734C162.78 30.2734 163.241 30.4479 163.613 30.7969C163.988 31.1458 164.176 31.5781 164.176 32.0938C164.176 32.4219 164.089 32.7435 163.914 33.0586C163.826 33.2227 163.695 33.418 163.523 33.6445C163.354 33.8685 163.139 34.1341 162.879 34.4414L161.941 35.5508ZM166.371 31.2266H165.328L165.828 30.375H167.281V36.4062H166.371V31.2266ZM174.75 30.1641L175.418 30.6641L173.977 32.625C174.055 32.6146 174.121 32.6068 174.176 32.6016C174.23 32.5964 174.273 32.5938 174.305 32.5938C174.794 32.5938 175.217 32.7812 175.574 33.1562C175.928 33.526 176.105 33.9714 176.105 34.4922C176.105 35.0443 175.908 35.5182 175.512 35.9141C175.118 36.3073 174.646 36.5039 174.094 36.5039C173.547 36.5039 173.068 36.3099 172.656 35.9219C172.253 35.5339 172.051 35.0742 172.051 34.543C172.051 34.0664 172.247 33.5612 172.641 33.0273L174.75 30.1641ZM175.219 34.5508C175.219 34.2305 175.108 33.9596 174.887 33.7383C174.663 33.5143 174.393 33.4023 174.078 33.4023C173.76 33.4023 173.491 33.513 173.27 33.7344C173.048 33.9557 172.938 34.224 172.938 34.5391C172.938 34.8542 173.048 35.1224 173.27 35.3438C173.491 35.5651 173.762 35.6758 174.082 35.6758C174.395 35.6758 174.661 35.5651 174.883 35.3438C175.107 35.1198 175.219 34.8555 175.219 34.5508ZM177.238 35.9688C177.238 35.8229 177.292 35.6966 177.398 35.5898C177.505 35.4831 177.633 35.4297 177.781 35.4297C177.93 35.4297 178.057 35.4831 178.164 35.5898C178.271 35.6966 178.324 35.8242 178.324 35.9727C178.324 36.1237 178.271 36.2526 178.164 36.3594C178.06 36.4635 177.932 36.5156 177.781 36.5156C177.628 36.5156 177.499 36.4635 177.395 36.3594C177.29 36.2552 177.238 36.125 177.238 35.9688ZM181.02 35.5508H183.266V36.4062H179.215L181.309 33.8711C181.514 33.6185 181.686 33.3997 181.824 33.2148C181.965 33.0299 182.072 32.875 182.145 32.75C182.293 32.5052 182.367 32.2852 182.367 32.0898C182.367 31.8086 182.268 31.5729 182.07 31.3828C181.872 31.1927 181.628 31.0977 181.336 31.0977C180.727 31.0977 180.378 31.4583 180.289 32.1797H179.383C179.529 30.9089 180.171 30.2734 181.309 30.2734C181.858 30.2734 182.319 30.4479 182.691 30.7969C183.066 31.1458 183.254 31.5781 183.254 32.0938C183.254 32.4219 183.167 32.7435 182.992 33.0586C182.904 33.2227 182.773 33.418 182.602 33.6445C182.432 33.8685 182.217 34.1341 181.957 34.4414L181.02 35.5508ZM186.023 33.6055V32.8281C186.409 32.8281 186.668 32.7852 186.801 32.6992C187.038 32.5482 187.156 32.306 187.156 31.9727C187.156 31.7148 187.07 31.5052 186.898 31.3438C186.729 31.1797 186.509 31.0977 186.238 31.0977C185.986 31.0977 185.79 31.1589 185.652 31.2812C185.52 31.4062 185.421 31.6172 185.355 31.9141H184.449C184.543 31.3464 184.736 30.931 185.027 30.668C185.319 30.4023 185.727 30.2695 186.25 30.2695C186.779 30.2695 187.21 30.4258 187.543 30.7383C187.876 31.0482 188.043 31.4479 188.043 31.9375C188.043 32.4896 187.824 32.9193 187.387 33.2266C187.887 33.5208 188.137 33.9987 188.137 34.6602C188.137 35.2018 187.954 35.6445 187.59 35.9883C187.225 36.332 186.758 36.5039 186.188 36.5039C185.461 36.5039 184.922 36.237 184.57 35.7031C184.424 35.4792 184.332 35.1693 184.293 34.7734H185.172C185.219 35.0651 185.332 35.2891 185.512 35.4453C185.694 35.599 185.931 35.6758 186.223 35.6758C186.517 35.6758 186.76 35.5781 186.953 35.3828C187.146 35.1823 187.242 34.9284 187.242 34.6211C187.242 34.2148 187.098 33.9258 186.809 33.7539C186.639 33.6549 186.378 33.6055 186.023 33.6055ZM188.891 34.0898H190.633V34.8555H188.891V34.0898ZM192.637 35.5508H194.883V36.4062H190.832L192.926 33.8711C193.132 33.6185 193.303 33.3997 193.441 33.2148C193.582 33.0299 193.689 32.875 193.762 32.75C193.91 32.5052 193.984 32.2852 193.984 32.0898C193.984 31.8086 193.885 31.5729 193.688 31.3828C193.49 31.1927 193.245 31.0977 192.953 31.0977C192.344 31.0977 191.995 31.4583 191.906 32.1797H191C191.146 30.9089 191.788 30.2734 192.926 30.2734C193.475 30.2734 193.936 30.4479 194.309 30.7969C194.684 31.1458 194.871 31.5781 194.871 32.0938C194.871 32.4219 194.784 32.7435 194.609 33.0586C194.521 33.2227 194.391 33.418 194.219 33.6445C194.049 33.8685 193.835 34.1341 193.574 34.4414L192.637 35.5508ZM198.711 30.1641L199.379 30.6641L197.938 32.625C198.016 32.6146 198.082 32.6068 198.137 32.6016C198.191 32.5964 198.234 32.5938 198.266 32.5938C198.755 32.5938 199.178 32.7812 199.535 33.1562C199.889 33.526 200.066 33.9714 200.066 34.4922C200.066 35.0443 199.868 35.5182 199.473 35.9141C199.079 36.3073 198.607 36.5039 198.055 36.5039C197.508 36.5039 197.029 36.3099 196.617 35.9219C196.214 35.5339 196.012 35.0742 196.012 34.543C196.012 34.0664 196.208 33.5612 196.602 33.0273L198.711 30.1641ZM199.18 34.5508C199.18 34.2305 199.069 33.9596 198.848 33.7383C198.624 33.5143 198.354 33.4023 198.039 33.4023C197.721 33.4023 197.452 33.513 197.23 33.7344C197.009 33.9557 196.898 34.224 196.898 34.5391C196.898 34.8542 197.009 35.1224 197.23 35.3438C197.452 35.5651 197.723 35.6758 198.043 35.6758C198.355 35.6758 198.622 35.5651 198.844 35.3438C199.068 35.1198 199.18 34.8555 199.18 34.5508Z" fill="#2D3640"/>
<path d="M142.33 0.619385H140.974V14.8675H142.33C146.365 14.8675 149.647 11.6696 149.647 7.75181C149.664 3.834 146.365 0.619385 142.33 0.619385Z" fill="#FFAF27"/>
<path d="M5.35769 0.619385H0V21.7153H5.35769V0.619385Z" fill="#2D969F"/>
<path d="M96.8572 7.65137H91.4995V21.7153H96.8572V7.65137Z" fill="#81C7CF"/>
<path d="M63.4553 0.619385H58.0977V21.7153H63.4553V0.619385Z" fill="#2D969F"/>
<path d="M129.421 0.619385H124.064V21.7153H129.421V0.619385Z" fill="#2D969F"/>
<path d="M178.98 8.82349H173.622V21.7154H178.98V8.82349Z" fill="#81C7CF"/>
<path d="M139.3 0.619385H133.942V21.7153H139.3V0.619385Z" fill="#FE5A63"/>
<path d="M158.219 0.619385H152.862V21.7153H158.219V0.619385Z" fill="#2D969F"/>
<path d="M65.2801 0.619385C65.2299 0.619385 65.1796 0.619385 65.1294 0.619385V21.7153C65.1796 21.7153 65.2299 21.7153 65.2801 21.7153C71.1066 21.7153 75.828 16.9938 75.828 11.1673C75.828 5.34085 71.1066 0.619385 65.2801 0.619385Z" fill="#FFAF27"/>
<path d="M159.944 7.46729C159.927 7.46729 159.91 7.46729 159.893 7.46729V14.8676C159.91 14.8676 159.927 14.8676 159.944 14.8676C161.986 14.8676 163.644 13.2101 163.644 11.1674C163.644 9.12482 161.986 7.46729 159.944 7.46729Z" fill="#FFAF27"/>
<path d="M15.9057 0.619385H6.52979V6.1445H15.9057V0.619385Z" fill="#FFAF27"/>
<path d="M15.9057 7.48389H6.52979V13.009H15.9057V7.48389Z" fill="#FE5A63"/>
<path d="M169.269 0.619385H159.893V6.1445H169.269V0.619385Z" fill="#FE5A63"/>
<path d="M169.269 16.1902H159.893V21.7153H169.269V16.1902Z" fill="#FE5A63"/>
<path d="M102.298 0.619385H86.0576V6.1445H102.298V0.619385Z" fill="#FE5A63"/>
<path d="M27.9607 0V22C31.8283 21.5814 34.8252 18.3166 34.8252 14.3486V7.65145C34.8252 3.68341 31.8283 0.418569 27.9607 0Z" fill="#FE5A63"/>
<path d="M19.4216 7.65145V14.3486C19.4216 18.3166 22.4186 21.5814 26.2862 22V0C22.4186 0.418569 19.4216 3.68341 19.4216 7.65145Z" fill="#81C7CF"/>
<path d="M47.3821 0V22C51.2497 21.5814 54.2466 18.3166 54.2466 14.3486V7.65145C54.2466 3.68341 51.2497 0.418569 47.3821 0Z" fill="#81C7CF"/>
<path d="M38.8433 7.65145V14.3486C38.8433 18.3166 41.8402 21.5814 45.7078 22V0C41.8402 0.418569 38.8433 3.68341 38.8433 7.65145Z" fill="#FFAF27"/>
<path d="M176.301 6.98172C178.197 6.98172 179.734 5.44504 179.734 3.54946C179.734 1.65387 178.197 0.117188 176.301 0.117188C174.406 0.117188 172.869 1.65387 172.869 3.54946C172.869 5.44504 174.406 6.98172 176.301 6.98172Z" fill="#FFAF27"/>
<path d="M27.1064 16.2406C28.7137 16.2406 30.0196 14.9347 30.0196 13.3274V8.68961C30.0196 7.0823 28.7137 5.77637 27.1064 5.77637C25.4991 5.77637 24.1931 7.0823 24.1931 8.68961V13.3274C24.1931 14.9347 25.4991 16.2406 27.1064 16.2406Z" fill="white"/>
<path d="M46.5619 16.2406C48.1692 16.2406 49.4752 14.9347 49.4752 13.3274V8.68961C49.4752 7.0823 48.1692 5.77637 46.5619 5.77637C44.9546 5.77637 43.6487 7.0823 43.6487 8.68961V13.3274C43.6487 14.9347 44.9546 16.2406 46.5619 16.2406Z" fill="white"/>
<path d="M65.2131 6.09424C65.1796 6.09424 65.1629 6.09424 65.1294 6.09424V16.2404C65.1629 16.2404 65.1796 16.2404 65.2131 16.2404C68.0092 16.2404 70.2862 13.9633 70.2862 11.1673C70.2862 8.37125 68.0092 6.09424 65.2131 6.09424Z" fill="white"/>
<path d="M120.515 7.65145C120.515 3.68341 117.518 0.418569 113.65 0V5.89346C114.856 6.24505 115.743 7.36682 115.743 8.6895V21.7321H120.515V7.65145Z" fill="#81C7CF"/>
<path d="M111.976 5.89346V0C108.108 0.418569 105.111 3.68341 105.111 7.65145V21.7154H109.916V8.6895C109.916 7.38356 110.787 6.2618 111.976 5.89346Z" fill="#FFAF27"/>
<path d="M118.12 11.9878H111.59V16.6925H118.12V11.9878Z" fill="#81C7CF"/>
<path d="M142.113 10.3136H140.02V5.17358H142.113C143.536 5.17358 144.691 6.32884 144.691 7.75197C144.691 9.15836 143.536 10.3136 142.113 10.3136Z" fill="white"/>
</svg>
