<svg width="180" height="39" viewBox="0 0 180 39" fill="none" xmlns="http://www.w3.org/2000/svg">
<path d="M2.68506 30.5835V36.4062H1.66113V30.5835H0.101074V29.6211H4.24072V30.5835H2.68506ZM5.41582 28.9839H6.40459V32.4819C6.75615 32.1655 7.14434 32.0073 7.56914 32.0073C8.05254 32.0073 8.43926 32.1641 8.7293 32.4775C8.97539 32.75 9.09844 33.1851 9.09844 33.7827V36.4062H8.10967V33.875C8.10967 33.5322 8.04814 33.2847 7.9251 33.1323C7.80498 32.9771 7.61016 32.8994 7.34062 32.8994C6.99492 32.8994 6.75176 33.0063 6.61113 33.2202C6.47344 33.437 6.40459 33.8091 6.40459 34.3364V36.4062H5.41582V28.9839ZM14.7032 34.499H11.6358C11.6622 34.8506 11.7765 35.1304 11.9786 35.3384C12.1808 35.5435 12.44 35.646 12.7564 35.646C13.0025 35.646 13.2062 35.5874 13.3673 35.4702C13.5255 35.353 13.7057 35.1362 13.9078 34.8198L14.7428 35.2856C14.6139 35.5054 14.4776 35.6943 14.3341 35.8525C14.1905 36.0078 14.0367 36.1367 13.8727 36.2393C13.7086 36.3389 13.5313 36.4121 13.3409 36.459C13.1505 36.5059 12.9439 36.5293 12.7213 36.5293C12.0826 36.5293 11.5699 36.3242 11.1832 35.9141C10.7965 35.501 10.6031 34.9531 10.6031 34.2705C10.6031 33.5938 10.7906 33.0459 11.1656 32.627C11.5436 32.2139 12.0445 32.0073 12.6686 32.0073C13.2984 32.0073 13.7965 32.208 14.1627 32.6094C14.526 33.0078 14.7076 33.5601 14.7076 34.2661L14.7032 34.499ZM13.6881 33.6904C13.5504 33.1631 13.2179 32.8994 12.6905 32.8994C12.5704 32.8994 12.4576 32.9185 12.3521 32.9565C12.2467 32.9917 12.15 33.0444 12.0621 33.1147C11.9771 33.1821 11.9039 33.2642 11.8424 33.3608C11.7809 33.4575 11.734 33.5674 11.7018 33.6904H13.6881ZM21.5271 30.5835V36.4062H20.5031V30.5835H18.9431V29.6211H23.0827V30.5835H21.5271ZM27.0352 32.126H28.0283V36.4062H27.0352V35.958C26.6279 36.3389 26.1899 36.5293 25.7212 36.5293C25.1294 36.5293 24.6401 36.3154 24.2534 35.8877C23.8696 35.4512 23.6777 34.9062 23.6777 34.2529C23.6777 33.6113 23.8696 33.0767 24.2534 32.6489C24.6372 32.2212 25.1177 32.0073 25.6948 32.0073C26.1929 32.0073 26.6396 32.2124 27.0352 32.6226V32.126ZM24.6885 34.2529C24.6885 34.6631 24.7983 34.9971 25.0181 35.2549C25.2437 35.5156 25.5278 35.646 25.8706 35.646C26.2368 35.646 26.5327 35.52 26.7583 35.2681C26.9839 35.0073 27.0967 34.6763 27.0967 34.2749C27.0967 33.8735 26.9839 33.5425 26.7583 33.2817C26.5327 33.0269 26.2397 32.8994 25.8794 32.8994C25.5396 32.8994 25.2554 33.0283 25.0269 33.2861C24.8013 33.5469 24.6885 33.8691 24.6885 34.2529ZM30.7151 32.126V36.4062H29.7264V32.126H30.7151ZM29.577 30.3462C29.577 30.1733 29.6399 30.0239 29.7659 29.8979C29.8919 29.772 30.0428 29.709 30.2186 29.709C30.3973 29.709 30.5496 29.772 30.6756 29.8979C30.8016 30.021 30.8646 30.1719 30.8646 30.3506C30.8646 30.5293 30.8016 30.6816 30.6756 30.8076C30.5525 30.9336 30.4017 30.9966 30.2229 30.9966C30.0442 30.9966 29.8919 30.9336 29.7659 30.8076C29.6399 30.6816 29.577 30.5278 29.577 30.3462ZM33.4063 38.7354H32.4176V32.126H33.4063V32.5918C33.796 32.2021 34.2384 32.0073 34.7335 32.0073C35.3224 32.0073 35.8072 32.2241 36.1881 32.6577C36.5748 33.0884 36.7682 33.6318 36.7682 34.2881C36.7682 34.9297 36.5763 35.4644 36.1925 35.8921C35.8116 36.3169 35.3312 36.5293 34.7511 36.5293C34.2501 36.5293 33.8019 36.3286 33.4063 35.9272V38.7354ZM35.7574 34.2925C35.7574 33.8823 35.6461 33.5483 35.4234 33.2905C35.1979 33.0298 34.9137 32.8994 34.5709 32.8994C34.2076 32.8994 33.9132 33.0254 33.6876 33.2773C33.462 33.5293 33.3492 33.8604 33.3492 34.2705C33.3492 34.6719 33.462 35.0029 33.6876 35.2637C33.9103 35.5186 34.2032 35.646 34.5665 35.646C34.9093 35.646 35.192 35.5171 35.4146 35.2593C35.6432 35.0015 35.7574 34.6792 35.7574 34.2925ZM42.162 34.499H39.0946C39.121 34.8506 39.2353 35.1304 39.4374 35.3384C39.6395 35.5435 39.8988 35.646 40.2152 35.646C40.4613 35.646 40.6649 35.5874 40.8261 35.4702C40.9843 35.353 41.1645 35.1362 41.3666 34.8198L42.2016 35.2856C42.0727 35.5054 41.9364 35.6943 41.7929 35.8525C41.6493 36.0078 41.4955 36.1367 41.3314 36.2393C41.1674 36.3389 40.9901 36.4121 40.7997 36.459C40.6093 36.5059 40.4027 36.5293 40.1801 36.5293C39.5414 36.5293 39.0287 36.3242 38.642 35.9141C38.2553 35.501 38.0619 34.9531 38.0619 34.2705C38.0619 33.5938 38.2494 33.0459 38.6244 32.627C39.0023 32.2139 39.5033 32.0073 40.1273 32.0073C40.7572 32.0073 41.2553 32.208 41.6215 32.6094C41.9848 33.0078 42.1664 33.5601 42.1664 34.2661L42.162 34.499ZM41.1469 33.6904C41.0092 33.1631 40.6767 32.8994 40.1493 32.8994C40.0292 32.8994 39.9164 32.9185 39.8109 32.9565C39.7055 32.9917 39.6088 33.0444 39.5209 33.1147C39.4359 33.1821 39.3627 33.2642 39.3012 33.3608C39.2396 33.4575 39.1928 33.5674 39.1605 33.6904H41.1469ZM44.6862 32.126V36.4062H43.6975V32.126H44.6862ZM43.548 30.3462C43.548 30.1733 43.611 30.0239 43.737 29.8979C43.863 29.772 44.0139 29.709 44.1896 29.709C44.3684 29.709 44.5207 29.772 44.6467 29.8979C44.7727 30.021 44.8356 30.1719 44.8356 30.3506C44.8356 30.5293 44.7727 30.6816 44.6467 30.8076C44.5236 30.9336 44.3728 30.9966 44.194 30.9966C44.0153 30.9966 43.863 30.9336 43.737 30.8076C43.611 30.6816 43.548 30.5278 43.548 30.3462ZM50.8289 29.6211V36.4062H49.805V29.6211H50.8289ZM52.7203 32.126H53.7135V32.5215C54.0592 32.1787 54.4488 32.0073 54.8824 32.0073C55.3805 32.0073 55.7687 32.1641 56.047 32.4775C56.2872 32.7441 56.4073 33.1792 56.4073 33.7827V36.4062H55.4142V34.0156C55.4142 33.5938 55.3556 33.3022 55.2384 33.1411C55.1241 32.9771 54.9161 32.895 54.6144 32.895C54.2862 32.895 54.0533 33.0034 53.9156 33.2202C53.7809 33.4341 53.7135 33.8076 53.7135 34.3408V36.4062H52.7203V32.126ZM59.1293 33.0488V36.4062H58.1405V33.0488H57.7187V32.126H58.1405V30.5571H59.1293V32.126H59.8983V33.0488H59.1293ZM64.9978 34.499H61.9304C61.9567 34.8506 62.071 35.1304 62.2731 35.3384C62.4753 35.5435 62.7346 35.646 63.051 35.646C63.2971 35.646 63.5007 35.5874 63.6618 35.4702C63.82 35.353 64.0002 35.1362 64.2023 34.8198L65.0373 35.2856C64.9084 35.5054 64.7722 35.6943 64.6286 35.8525C64.4851 36.0078 64.3312 36.1367 64.1672 36.2393C64.0031 36.3389 63.8259 36.4121 63.6354 36.459C63.445 36.5059 63.2385 36.5293 63.0158 36.5293C62.3771 36.5293 61.8645 36.3242 61.4777 35.9141C61.091 35.501 60.8977 34.9531 60.8977 34.2705C60.8977 33.5938 61.0852 33.0459 61.4602 32.627C61.8381 32.2139 62.3391 32.0073 62.9631 32.0073C63.593 32.0073 64.091 32.208 64.4572 32.6094C64.8205 33.0078 65.0021 33.5601 65.0021 34.2661L64.9978 34.499ZM63.9826 33.6904C63.8449 33.1631 63.5124 32.8994 62.9851 32.8994C62.8649 32.8994 62.7521 32.9185 62.6467 32.9565C62.5412 32.9917 62.4445 33.0444 62.3566 33.1147C62.2717 33.1821 62.1984 33.2642 62.1369 33.3608C62.0754 33.4575 62.0285 33.5674 61.9963 33.6904H63.9826ZM66.5332 32.126H67.522V32.5083C67.7036 32.3179 67.8647 32.1875 68.0054 32.1172C68.1489 32.0439 68.3188 32.0073 68.5151 32.0073C68.7759 32.0073 69.0483 32.0923 69.3325 32.2622L68.8799 33.1675C68.6924 33.0327 68.5093 32.9653 68.3306 32.9653C67.7915 32.9653 67.522 33.3726 67.522 34.187V36.4062H66.5332V32.126ZM70.49 32.126H71.4832V32.5215C71.8289 32.1787 72.2186 32.0073 72.6521 32.0073C73.1502 32.0073 73.5384 32.1641 73.8167 32.4775C74.0569 32.7441 74.177 33.1792 74.177 33.7827V36.4062H73.1839V34.0156C73.1839 33.5938 73.1253 33.3022 73.0081 33.1411C72.8938 32.9771 72.6858 32.895 72.3841 32.895C72.056 32.895 71.823 33.0034 71.6853 33.2202C71.5506 33.4341 71.4832 33.8076 71.4832 34.3408V36.4062H70.49V32.126ZM79.0348 32.126H80.0279V36.4062H79.0348V35.958C78.6275 36.3389 78.1896 36.5293 77.7208 36.5293C77.129 36.5293 76.6397 36.3154 76.253 35.8877C75.8692 35.4512 75.6773 34.9062 75.6773 34.2529C75.6773 33.6113 75.8692 33.0767 76.253 32.6489C76.6368 32.2212 77.1173 32.0073 77.6944 32.0073C78.1925 32.0073 78.6393 32.2124 79.0348 32.6226V32.126ZM76.6881 34.2529C76.6881 34.6631 76.798 34.9971 77.0177 35.2549C77.2433 35.5156 77.5274 35.646 77.8702 35.646C78.2364 35.646 78.5323 35.52 78.7579 35.2681C78.9835 35.0073 79.0963 34.6763 79.0963 34.2749C79.0963 33.8735 78.9835 33.5425 78.7579 33.2817C78.5323 33.0269 78.2394 32.8994 77.879 32.8994C77.5392 32.8994 77.255 33.0283 77.0265 33.2861C76.8009 33.5469 76.6881 33.8691 76.6881 34.2529ZM82.7455 33.0488V36.4062H81.7567V33.0488H81.3349V32.126H81.7567V30.5571H82.7455V32.126H83.5145V33.0488H82.7455ZM85.6257 32.126V36.4062H84.6369V32.126H85.6257ZM84.4875 30.3462C84.4875 30.1733 84.5505 30.0239 84.6765 29.8979C84.8024 29.772 84.9533 29.709 85.1291 29.709C85.3078 29.709 85.4602 29.772 85.5861 29.8979C85.7121 30.021 85.7751 30.1719 85.7751 30.3506C85.7751 30.5293 85.7121 30.6816 85.5861 30.8076C85.4631 30.9336 85.3122 30.9966 85.1335 30.9966C84.9548 30.9966 84.8024 30.9336 84.6765 30.8076C84.5505 30.6816 84.4875 30.5278 84.4875 30.3462ZM87.126 34.2354C87.126 33.6172 87.3472 33.0913 87.7896 32.6577C88.2319 32.2241 88.771 32.0073 89.4067 32.0073C90.0454 32.0073 90.5874 32.2256 91.0327 32.6621C91.4722 33.0986 91.6919 33.6348 91.6919 34.2705C91.6919 34.9121 91.4707 35.4497 91.0283 35.8833C90.583 36.314 90.0366 36.5293 89.3892 36.5293C88.7476 36.5293 88.21 36.3096 87.7764 35.8701C87.3428 35.4365 87.126 34.8916 87.126 34.2354ZM88.1367 34.2529C88.1367 34.6807 88.251 35.019 88.4795 35.2681C88.7139 35.52 89.0229 35.646 89.4067 35.646C89.7935 35.646 90.1025 35.5215 90.334 35.2725C90.5654 35.0234 90.6812 34.6909 90.6812 34.2749C90.6812 33.8589 90.5654 33.5264 90.334 33.2773C90.0996 33.0254 89.7905 32.8994 89.4067 32.8994C89.0288 32.8994 88.7227 33.0254 88.4883 33.2773C88.2539 33.5293 88.1367 33.8545 88.1367 34.2529ZM93.1922 32.126H94.1853V32.5215C94.5311 32.1787 94.9207 32.0073 95.3543 32.0073C95.8523 32.0073 96.2405 32.1641 96.5188 32.4775C96.7591 32.7441 96.8792 33.1792 96.8792 33.7827V36.4062H95.886V34.0156C95.886 33.5938 95.8274 33.3022 95.7103 33.1411C95.596 32.9771 95.388 32.895 95.0862 32.895C94.7581 32.895 94.5252 33.0034 94.3875 33.2202C94.2527 33.4341 94.1853 33.8076 94.1853 34.3408V36.4062H93.1922V32.126ZM101.737 32.126H102.73V36.4062H101.737V35.958C101.33 36.3389 100.892 36.5293 100.423 36.5293C99.8312 36.5293 99.3419 36.3154 98.9552 35.8877C98.5714 35.4512 98.3795 34.9062 98.3795 34.2529C98.3795 33.6113 98.5714 33.0767 98.9552 32.6489C99.339 32.2212 99.8194 32.0073 100.397 32.0073C100.895 32.0073 101.341 32.2124 101.737 32.6226V32.126ZM99.3902 34.2529C99.3902 34.6631 99.5001 34.9971 99.7198 35.2549C99.9454 35.5156 100.23 35.646 100.572 35.646C100.939 35.646 101.234 35.52 101.46 35.2681C101.686 35.0073 101.798 34.6763 101.798 34.2749C101.798 33.8735 101.686 33.5425 101.46 33.2817C101.234 33.0269 100.942 32.8994 100.581 32.8994C100.241 32.8994 99.9571 33.0283 99.7286 33.2861C99.503 33.5469 99.3902 33.8691 99.3902 34.2529ZM105.417 28.9839V36.4062H104.428V28.9839H105.417ZM113.924 30.5835H111.56V32.2139H113.84V33.1763H111.56V36.4062H110.536V29.6211H113.924V30.5835ZM115.095 34.2354C115.095 33.6172 115.316 33.0913 115.758 32.6577C116.2 32.2241 116.74 32.0073 117.375 32.0073C118.014 32.0073 118.556 32.2256 119.001 32.6621C119.441 33.0986 119.66 33.6348 119.66 34.2705C119.66 34.9121 119.439 35.4497 118.997 35.8833C118.552 36.314 118.005 36.5293 117.358 36.5293C116.716 36.5293 116.179 36.3096 115.745 35.8701C115.311 35.4365 115.095 34.8916 115.095 34.2354ZM116.105 34.2529C116.105 34.6807 116.22 35.019 116.448 35.2681C116.682 35.52 116.992 35.646 117.375 35.646C117.762 35.646 118.071 35.5215 118.303 35.2725C118.534 35.0234 118.65 34.6909 118.65 34.2749C118.65 33.8589 118.534 33.5264 118.303 33.2773C118.068 33.0254 117.759 32.8994 117.375 32.8994C116.997 32.8994 116.691 33.0254 116.457 33.2773C116.222 33.5293 116.105 33.8545 116.105 34.2529ZM120.959 34.2354C120.959 33.6172 121.18 33.0913 121.622 32.6577C122.065 32.2241 122.604 32.0073 123.239 32.0073C123.878 32.0073 124.42 32.2256 124.865 32.6621C125.305 33.0986 125.525 33.6348 125.525 34.2705C125.525 34.9121 125.303 35.4497 124.861 35.8833C124.416 36.314 123.869 36.5293 123.222 36.5293C122.58 36.5293 122.043 36.3096 121.609 35.8701C121.175 35.4365 120.959 34.8916 120.959 34.2354ZM121.969 34.2529C121.969 34.6807 122.084 35.019 122.312 35.2681C122.546 35.52 122.856 35.646 123.239 35.646C123.626 35.646 123.935 35.5215 124.167 35.2725C124.398 35.0234 124.514 34.6909 124.514 34.2749C124.514 33.8589 124.398 33.5264 124.167 33.2773C123.932 33.0254 123.623 32.8994 123.239 32.8994C122.861 32.8994 122.555 33.0254 122.321 33.2773C122.087 33.5293 121.969 33.8545 121.969 34.2529ZM130.18 28.9839H131.173V36.4062H130.18V35.958C129.79 36.3389 129.35 36.5293 128.857 36.5293C128.271 36.5293 127.785 36.3154 127.398 35.8877C127.015 35.4512 126.823 34.9062 126.823 34.2529C126.823 33.6143 127.015 33.0811 127.398 32.6533C127.779 32.2227 128.258 32.0073 128.835 32.0073C129.336 32.0073 129.785 32.2124 130.18 32.6226V28.9839ZM127.833 34.2529C127.833 34.6631 127.943 34.9971 128.163 35.2549C128.389 35.5156 128.673 35.646 129.016 35.646C129.382 35.646 129.678 35.52 129.903 35.2681C130.129 35.0073 130.242 34.6763 130.242 34.2749C130.242 33.8735 130.129 33.5425 129.903 33.2817C129.678 33.0269 129.385 32.8994 129.024 32.8994C128.684 32.8994 128.4 33.0283 128.172 33.2861C127.946 33.5469 127.833 33.8691 127.833 34.2529ZM140.124 30.6318L139.293 31.124C139.138 30.8545 138.99 30.6787 138.85 30.5967C138.703 30.5029 138.514 30.4561 138.283 30.4561C137.999 30.4561 137.763 30.5366 137.575 30.6978C137.388 30.856 137.294 31.0552 137.294 31.2954C137.294 31.6265 137.54 31.8931 138.032 32.0952L138.709 32.3721C139.26 32.5947 139.663 32.8672 139.917 33.1895C140.172 33.5088 140.3 33.9014 140.3 34.3672C140.3 34.9912 140.092 35.5068 139.676 35.9141C139.257 36.3242 138.737 36.5293 138.116 36.5293C137.527 36.5293 137.041 36.355 136.657 36.0063C136.279 35.6577 136.043 35.167 135.949 34.5342L136.986 34.3057C137.033 34.7041 137.115 34.9795 137.232 35.1318C137.443 35.4248 137.751 35.5713 138.155 35.5713C138.475 35.5713 138.74 35.4644 138.951 35.2505C139.162 35.0366 139.267 34.7656 139.267 34.4375C139.267 34.3057 139.248 34.1855 139.21 34.0771C139.175 33.9658 139.118 33.8647 139.039 33.7739C138.962 33.6802 138.863 33.5938 138.74 33.5146C138.617 33.4326 138.47 33.355 138.3 33.2817L137.646 33.0093C136.717 32.6167 136.252 32.0425 136.252 31.2866C136.252 30.7769 136.447 30.3506 136.837 30.0078C137.227 29.6621 137.711 29.4893 138.292 29.4893C139.074 29.4893 139.685 29.8701 140.124 30.6318ZM141.796 28.9839H142.784V32.4819C143.136 32.1655 143.524 32.0073 143.949 32.0073C144.432 32.0073 144.819 32.1641 145.109 32.4775C145.355 32.75 145.478 33.1851 145.478 33.7827V36.4062H144.49V33.875C144.49 33.5322 144.428 33.2847 144.305 33.1323C144.185 32.9771 143.99 32.8994 143.721 32.8994C143.375 32.8994 143.132 33.0063 142.991 33.2202C142.853 33.437 142.784 33.8091 142.784 34.3364V36.4062H141.796V28.9839ZM146.983 34.2354C146.983 33.6172 147.204 33.0913 147.647 32.6577C148.089 32.2241 148.628 32.0073 149.264 32.0073C149.902 32.0073 150.444 32.2256 150.89 32.6621C151.329 33.0986 151.549 33.6348 151.549 34.2705C151.549 34.9121 151.328 35.4497 150.885 35.8833C150.44 36.314 149.894 36.5293 149.246 36.5293C148.605 36.5293 148.067 36.3096 147.633 35.8701C147.2 35.4365 146.983 34.8916 146.983 34.2354ZM147.994 34.2529C147.994 34.6807 148.108 35.019 148.337 35.2681C148.571 35.52 148.88 35.646 149.264 35.646C149.65 35.646 149.96 35.5215 150.191 35.2725C150.422 35.0234 150.538 34.6909 150.538 34.2749C150.538 33.8589 150.422 33.5264 150.191 33.2773C149.957 33.0254 149.648 32.8994 149.264 32.8994C148.886 32.8994 148.58 33.0254 148.345 33.2773C148.111 33.5293 147.994 33.8545 147.994 34.2529ZM153.41 32.126L154.53 34.5693L155.739 31.7349L156.956 34.5693L158.063 32.126H159.171L156.93 36.7271L155.739 33.9717L154.535 36.7271L152.298 32.126H153.41Z" fill="#2D3640"/>
<path d="M142.33 0.619507H140.974V14.8676H142.33C146.365 14.8676 149.647 11.6697 149.647 7.75193C149.664 3.83412 146.365 0.619507 142.33 0.619507Z" fill="#FFAF27"/>
<path d="M5.35769 0.619507H0V21.7154H5.35769V0.619507Z" fill="#2D969F"/>
<path d="M96.8571 7.65137H91.4994V21.7153H96.8571V7.65137Z" fill="#81C7CF"/>
<path d="M63.4553 0.619507H58.0976V21.7154H63.4553V0.619507Z" fill="#2D969F"/>
<path d="M129.422 0.619507H124.064V21.7154H129.422V0.619507Z" fill="#2D969F"/>
<path d="M178.98 8.82349H173.622V21.7154H178.98V8.82349Z" fill="#81C7CF"/>
<path d="M139.3 0.619507H133.942V21.7154H139.3V0.619507Z" fill="#FE5A63"/>
<path d="M158.219 0.619507H152.862V21.7154H158.219V0.619507Z" fill="#2D969F"/>
<path d="M65.2801 0.619507C65.2299 0.619507 65.1796 0.619507 65.1294 0.619507V21.7154C65.1796 21.7154 65.2299 21.7154 65.2801 21.7154C71.1066 21.7154 75.828 16.9939 75.828 11.1675C75.828 5.34097 71.1066 0.619507 65.2801 0.619507Z" fill="#FFAF27"/>
<path d="M159.944 7.46741C159.927 7.46741 159.91 7.46741 159.893 7.46741V14.8677C159.91 14.8677 159.927 14.8677 159.944 14.8677C161.986 14.8677 163.644 13.2102 163.644 11.1676C163.644 9.12494 161.986 7.46741 159.944 7.46741Z" fill="#FFAF27"/>
<path d="M15.9057 0.619507H6.52972V6.14462H15.9057V0.619507Z" fill="#FFAF27"/>
<path d="M15.9057 7.48401H6.52972V13.0091H15.9057V7.48401Z" fill="#FE5A63"/>
<path d="M169.269 0.619507H159.893V6.14462H169.269V0.619507Z" fill="#FE5A63"/>
<path d="M169.269 16.1903H159.893V21.7154H169.269V16.1903Z" fill="#FE5A63"/>
<path d="M102.298 0.619507H86.0577V6.14462H102.298V0.619507Z" fill="#FE5A63"/>
<path d="M27.9606 0V22C31.8282 21.5814 34.8252 18.3166 34.8252 14.3486V7.65145C34.8252 3.68341 31.8282 0.418569 27.9606 0Z" fill="#FE5A63"/>
<path d="M19.4216 7.65145V14.3486C19.4216 18.3166 22.4186 21.5814 26.2862 22V0C22.4186 0.418569 19.4216 3.68341 19.4216 7.65145Z" fill="#81C7CF"/>
<path d="M47.382 0V22C51.2496 21.5814 54.2466 18.3166 54.2466 14.3486V7.65145C54.2466 3.68341 51.2496 0.418569 47.382 0Z" fill="#81C7CF"/>
<path d="M38.8433 7.65145V14.3486C38.8433 18.3166 41.8402 21.5814 45.7078 22V0C41.8402 0.418569 38.8433 3.68341 38.8433 7.65145Z" fill="#FFAF27"/>
<path d="M176.301 6.98185C178.197 6.98185 179.734 5.44517 179.734 3.54958C179.734 1.65399 178.197 0.11731 176.301 0.11731C174.406 0.11731 172.869 1.65399 172.869 3.54958C172.869 5.44517 174.406 6.98185 176.301 6.98185Z" fill="#FFAF27"/>
<path d="M27.1064 16.2406C28.7137 16.2406 30.0197 14.9347 30.0197 13.3274V8.68961C30.0197 7.0823 28.7137 5.77637 27.1064 5.77637C25.4991 5.77637 24.1932 7.0823 24.1932 8.68961V13.3274C24.1932 14.9347 25.4991 16.2406 27.1064 16.2406Z" fill="white"/>
<path d="M46.5618 16.2406C48.1691 16.2406 49.475 14.9347 49.475 13.3274V8.68961C49.475 7.0823 48.1691 5.77637 46.5618 5.77637C44.9545 5.77637 43.6486 7.0823 43.6486 8.68961V13.3274C43.6486 14.9347 44.9545 16.2406 46.5618 16.2406Z" fill="white"/>
<path d="M65.2131 6.09424C65.1796 6.09424 65.1629 6.09424 65.1294 6.09424V16.2404C65.1629 16.2404 65.1796 16.2404 65.2131 16.2404C68.0092 16.2404 70.2862 13.9633 70.2862 11.1673C70.2862 8.37125 68.0092 6.09424 65.2131 6.09424Z" fill="white"/>
<path d="M120.515 7.65145C120.515 3.68341 117.518 0.418569 113.65 0V5.89346C114.856 6.24505 115.743 7.36682 115.743 8.6895V21.7321H120.515V7.65145Z" fill="#81C7CF"/>
<path d="M111.976 5.89346V0C108.108 0.418569 105.111 3.68341 105.111 7.65145V21.7154H109.916V8.6895C109.916 7.38356 110.787 6.2618 111.976 5.89346Z" fill="#FFAF27"/>
<path d="M118.12 11.9879H111.59V16.6926H118.12V11.9879Z" fill="#81C7CF"/>
<path d="M142.113 10.3135H140.02V5.17346H142.113C143.536 5.17346 144.691 6.32871 144.691 7.75185C144.691 9.15824 143.536 10.3135 142.113 10.3135Z" fill="white"/>
</svg>
