<svg width="32" height="28" viewBox="0 0 32 28" fill="none" xmlns="http://www.w3.org/2000/svg">
<path fill-rule="evenodd" clip-rule="evenodd" d="M3.64713 12H28.3346C30.4596 12 31.7096 9.3125 30.5221 7.3125C28.0221 3.25 22.4596 0.0625 16.0221 0C9.52213 0.0625 4.02213 3.25 1.45963 7.3125C0.27213 9.3125 1.52213 12 3.64713 12ZM17 4C17 3.5 16.5 3 16 3C15.4375 3 15 3.5 15 4C15 4.5625 15.4375 5 16 5C16.5 5 17 4.5625 17 4ZM25 6C25 5.5 24.5 5 24 5C23.4375 5 23 5.5 23 6C23 6.5625 23.4375 7 24 7C24.5 7 25 6.5625 25 6ZM8 5C8.5 5 9 5.5 9 6C9 6.5625 8.5 7 8 7C7.4375 7 7 6.55228 7 6C7 5.44772 7.4375 5 8 5Z" fill="#FAAC28"/>
<path d="M3 14H29C30.625 14 32 15.375 32 17C32 18.6875 30.625 20 29 20H3C1.3125 20 0 18.6875 0 17C0 15.375 1.3125 14 3 14Z" fill="#E9573F"/>
<path d="M30 22H2C1.4375 22 1 22.5 1 23V24C1 26.25 2.75 28 5 28H27C29.1875 28 31 26.25 31 24V23C31 22.5 30.5 22 30 22Z" fill="#FF9A61"/>
</svg>
