<svg width="55" height="77" viewBox="0 0 55 77" fill="none" xmlns="http://www.w3.org/2000/svg">
<path d="M30.7878 0V76.9422C44.3142 75.4783 54.7957 64.0599 54.7957 50.1822V26.7599C54.7957 12.8822 44.3142 1.46389 30.7878 0Z" fill="#FE5A63"/>
<path d="M0.924561 26.7599V50.1822C0.924561 64.0599 11.406 75.4783 24.9324 76.9422V0C11.406 1.46389 0.924561 12.8822 0.924561 26.7599Z" fill="#81C7CF"/>
<path d="M27.8016 56.799C33.4229 56.799 37.9903 52.2316 37.9903 46.6103V30.3903C37.9903 24.769 33.4229 20.2017 27.8016 20.2017C22.1803 20.2017 17.6129 24.769 17.6129 30.3903V46.6103C17.6129 52.2316 22.1803 56.799 27.8016 56.799Z" fill="white"/>
</svg>
