<svg width="55" height="77" viewBox="0 0 55 77" fill="none" xmlns="http://www.w3.org/2000/svg">
<path d="M30.7128 0V76.9422C44.2391 75.4783 54.7206 64.0599 54.7206 50.1822V26.7599C54.7206 12.8822 44.2391 1.46389 30.7128 0Z" fill="#81C7CF"/>
<path d="M0.849243 26.7599V50.1822C0.849243 64.0599 11.3307 75.4783 24.8571 76.9422V0C11.3307 1.46389 0.849243 12.8822 0.849243 26.7599Z" fill="#FFAF27"/>
<path d="M27.1887 56.799C32.81 56.799 37.3774 52.2316 37.3774 46.6103V30.3903C37.3774 24.769 32.81 20.2017 27.1887 20.2017C21.5673 20.2017 17 24.769 17 30.3903V46.6103C17 52.2316 21.5673 56.799 27.1887 56.799Z" fill="white"/>
</svg>
