<svg width="749" height="550" viewBox="0 0 749 550" fill="none" xmlns="http://www.w3.org/2000/svg">
<g id="richMan">
<g id="wine">
<path id="Rectangle 291" d="M447.486 212.369C441.734 199.514 447.492 184.43 460.347 178.677V178.677C473.202 172.925 488.286 178.683 494.038 191.538L540.058 294.382L493.506 315.213L447.486 212.369Z" fill="#433030"/>
<rect id="Rectangle 303" x="484.98" y="189.134" width="2.91428" height="112.71" transform="rotate(-24.1073 484.98 189.134)" fill="white" fill-opacity="0.5"/>
<rect id="Rectangle 304" x="480.99" y="190.919" width="1.45714" height="112.71" transform="rotate(-24.1073 480.99 190.919)" fill="white" fill-opacity="0.5"/>
<rect id="Rectangle 292" x="435.599" y="135.86" width="11.6571" height="60.0145" transform="rotate(-24.1073 435.599 135.86)" fill="#433030"/>
<rect id="Rectangle 300" x="435.599" y="135.86" width="11.6571" height="36.5942" transform="rotate(-24.1073 435.599 135.86)" fill="#E9573F"/>
<rect id="Rectangle 301" x="436.063" y="140.463" width="14.5714" height="10.2464" rx="2" transform="rotate(-24.1073 436.063 140.463)" fill="#E9573F"/>
<rect id="Rectangle 293" x="450.862" y="209.211" width="42.2571" height="45.3768" transform="rotate(-24.1073 450.862 209.211)" fill="#FFFBF1"/>
<rect id="Rectangle 296" x="468.799" y="249.294" width="42.2571" height="1.46376" transform="rotate(-24.1073 468.799 249.294)" fill="#E9573F"/>
<rect id="Rectangle 297" x="475.388" y="231.913" width="4.5" height="6.75835" rx="2.25" transform="rotate(-24.1073 475.388 231.913)" fill="#FFD166"/>
<rect id="Rectangle 298" x="480.865" y="229.462" width="5.25" height="6.75835" rx="2.625" transform="rotate(-24.1073 480.865 229.462)" fill="#FFD166"/>
<rect id="Rectangle 299" x="487.026" y="226.705" width="4.5" height="6.75835" rx="2.25" transform="rotate(-24.1073 487.026 226.705)" fill="#FFD166"/>
<rect id="Rectangle 302" x="465.153" y="211.383" width="19.4" height="16.5652" transform="rotate(-24.1073 465.153 211.383)" fill="white" stroke="#FFD166"/>
</g>
<g id="Avocado">
<g id="Group">
<path id="Vector" d="M603.454 172.668C597.649 171.571 586.841 164.549 587.014 163.631C587.187 162.715 599.81 160.114 605.617 161.21C611.424 162.305 615.645 165.759 615.048 168.922C614.452 172.087 609.26 173.764 603.454 172.668Z" fill="#99CC63"/>
</g>
<path id="Vector_2" d="M623.86 159.706C624.115 158.508 623.35 157.331 622.152 157.076C621.582 156.955 621.018 157.066 620.557 157.342L620.555 157.34C620.266 157.513 613.47 161.667 612.385 171.086L616.79 171.593C617.618 164.422 622.626 161.273 622.839 161.143L622.828 161.15L622.825 161.146C623.338 160.842 623.727 160.335 623.86 159.706Z" fill="#353C45"/>
<path id="Vector_3" d="M663.846 219.903C669.058 237.521 659.002 256.029 641.384 261.242C623.766 266.454 605.259 256.395 600.047 238.777C594.835 221.16 604.891 202.653 622.509 197.441C640.127 192.229 658.634 202.285 663.846 219.903Z" fill="#A0D468"/>
<path id="Vector_4" d="M639.143 181.033C642.361 191.907 636.153 203.332 625.279 206.549C614.404 209.766 602.98 203.558 599.763 192.683C596.546 181.809 602.754 170.386 613.628 167.169C624.503 163.951 635.926 170.159 639.143 181.033Z" fill="#A0D468"/>
<path id="Vector 68" d="M599.166 225.409C602.511 206.603 601.19 196.544 599.996 193.471C611.569 184.337 629.433 161.109 638.91 180.246C647.42 197.429 651.413 202.243 655.962 206.037C635.666 219.465 595.822 244.214 599.166 225.409Z" fill="#A0D468"/>
<path id="Vector_5" opacity="0.1" d="M623 250.111C622.746 251.309 621.569 252.072 620.371 251.818C619.173 251.563 618.408 250.388 618.663 249.19C618.917 247.992 620.094 247.229 621.292 247.483C622.49 247.738 623.255 248.913 623 250.111Z" fill="black"/>
<path id="Vector_6" opacity="0.1" d="M626.417 255.374C626.163 256.569 624.986 257.335 623.787 257.08C622.589 256.826 621.824 255.647 622.077 254.452C622.333 253.251 623.511 252.485 624.71 252.739C625.908 252.994 626.672 254.173 626.417 255.374Z" fill="black"/>
<path id="Vector_7" opacity="0.1" d="M631.679 251.955C631.424 253.153 630.246 253.916 629.048 253.661C627.85 253.407 627.085 252.231 627.339 251.033C627.594 249.835 628.77 249.073 629.968 249.327C631.167 249.582 631.933 250.757 631.679 251.955Z" fill="black"/>
</g>
<g id="Group_2">
<g id="Group_3">
<path id="Vector_8" d="M471.09 233.226L470.478 236.313C470.478 236.313 478.648 254.997 496.989 255.285L502.842 236.978L496.296 233.422L493.051 225.97L491.997 230.051L488.306 223.971L487.252 229.028L485.145 226.089L483.264 222.762L482.924 226.944L478.576 226.368L471.09 233.226Z" fill="#E8546B"/>
</g>
<g id="Group_4">
<path id="Vector_9" d="M461.748 213.644C461.748 213.644 462.809 227.113 465.268 229.017C467.752 230.986 471.065 233.161 471.065 233.161L478.576 226.368L475.503 210.597L470.439 215.173L461.748 213.644Z" fill="#E8546B"/>
</g>
<g id="Group_5">
<path id="Vector_10" d="M464.588 214.2C464.588 214.2 461.487 189.589 474.453 187.221L485.046 193.494L485.999 201.229L477.393 223.297L464.588 214.2Z" fill="#E8546B"/>
</g>
<g id="Group_6">
<path id="Vector_11" d="M474.453 187.221C474.453 187.221 486.563 167.629 502.314 177.167C502.314 177.167 486.059 177.425 485.984 189.307L485.046 193.494L474.453 187.221Z" fill="#E8546B"/>
</g>
<g id="Group_7">
<path id="Vector_12" d="M486.064 201.204C486.064 201.204 503.717 180.227 503.667 179.122C503.616 178.016 494.365 183.604 494.365 183.604L492.565 183.021L491.732 185.143L488.471 186.999L484.105 190.856L483.475 198.375L486.064 201.204Z" fill="#E8546B"/>
</g>
<g id="Group_8">
<path id="Vector_13" d="M471.215 233.553C471.085 233.603 470.929 233.588 470.879 233.458C470.763 233.352 470.753 233.131 470.924 232.99L477.093 227.389C477.199 227.273 477.42 227.263 477.561 227.434C477.677 227.539 477.687 227.76 477.516 227.901L471.346 233.503C471.321 233.437 471.281 233.528 471.215 233.553Z" fill="#FFB9A6"/>
</g>
<g id="Group_9">
<path id="Vector_14" d="M475.914 219.066C475.783 219.116 475.693 219.076 475.577 218.97L472.711 216.398L464.558 214.512C464.402 214.497 464.261 214.326 464.316 214.08C464.332 213.924 464.502 213.783 464.749 213.838L473.017 215.83L475.999 218.508C476.115 218.613 476.125 218.835 476.019 218.95C475.954 218.975 475.914 219.066 475.914 219.066Z" fill="#FFB9A6"/>
</g>
<g id="Group_10">
<path id="Vector_15" d="M484.329 197.671C484.133 197.747 483.952 197.666 483.876 197.47L481.738 191.917L474.267 187.517C474.086 187.437 474.076 187.216 474.157 187.035C474.237 186.854 474.458 186.844 474.639 186.924L482.316 191.47L484.555 197.284C484.605 197.415 484.525 197.596 484.329 197.671Z" fill="#FFB9A6"/>
</g>
<g id="Group_11">
<path id="Vector_16" d="M472.072 190.388C472.433 190.249 472.613 189.844 472.474 189.483C472.335 189.123 471.93 188.943 471.569 189.082C471.208 189.221 471.028 189.626 471.167 189.987C471.306 190.347 471.711 190.527 472.072 190.388Z" fill="#FFB9A6"/>
</g>
<g id="Group_12">
<path id="Vector_17" d="M470.947 192.922C471.308 192.783 471.488 192.378 471.349 192.017C471.21 191.656 470.805 191.476 470.444 191.615C470.083 191.754 469.903 192.159 470.042 192.52C470.181 192.881 470.586 193.061 470.947 192.922Z" fill="#FFB9A6"/>
</g>
<g id="Group_13">
<path id="Vector_18" d="M478.434 187.038C478.795 186.899 478.974 186.494 478.836 186.133C478.697 185.773 478.291 185.593 477.931 185.732C477.57 185.871 477.39 186.276 477.529 186.637C477.668 186.997 478.073 187.177 478.434 187.038Z" fill="#FFB9A6"/>
</g>
<g id="Group_14">
<path id="Vector_19" d="M469.118 193.626C469.479 193.487 469.659 193.082 469.52 192.722C469.381 192.361 468.976 192.181 468.615 192.32C468.254 192.459 468.074 192.864 468.213 193.225C468.352 193.585 468.757 193.765 469.118 193.626Z" fill="#FFB9A6"/>
</g>
<g id="Group_15">
<path id="Vector_20" d="M464.404 218.397C464.765 218.258 464.944 217.853 464.805 217.492C464.666 217.131 464.261 216.952 463.901 217.091C463.54 217.23 463.36 217.635 463.499 217.995C463.638 218.356 464.043 218.536 464.404 218.397Z" fill="#FFB9A6"/>
</g>
<g id="Group_16">
<path id="Vector_21" d="M464.345 221.946C464.706 221.807 464.886 221.402 464.747 221.041C464.608 220.68 464.203 220.5 463.842 220.639C463.481 220.778 463.301 221.183 463.44 221.544C463.579 221.905 463.984 222.085 464.345 221.946Z" fill="#FFB9A6"/>
</g>
<g id="Group_17">
<path id="Vector_22" d="M485.936 194.052C484.161 192.56 485.049 190.192 485.753 189.096L486.28 189.493C486.24 189.583 484.608 192.162 486.358 193.589L485.936 194.052Z" fill="#FFB9A6"/>
</g>
<g id="Group_18">
<path id="Vector_23" d="M574.822 191.104L577.552 193.129C577.552 193.129 584.461 213.798 570.157 227.108L552.466 216.817L555.046 209.297L552.319 201.045L556.069 203.577L554.709 196.149L559.113 199.404L558.669 195.524L557.733 191.534L561.021 194.618L564.071 191.043L574.822 191.104Z" fill="#E8546B"/>
</g>
<g id="Group_19">
<path id="Vector_24" d="M568.243 168.957C568.243 168.957 577.054 180.342 576.452 183.65C575.916 186.932 574.822 191.104 574.822 191.104L564.005 191.069L555.173 176.316L562.532 176.333L568.243 168.957Z" fill="#E8546B"/>
</g>
<g id="Group_20">
<path id="Vector_25" d="M566.314 171.35C566.314 171.35 551.136 149.664 539.197 157.037L535.252 169.584L540.04 176.367L562.722 187.737L566.314 171.35Z" fill="#E8546B"/>
</g>
<g id="Group_21">
<path id="Vector_26" d="M539.222 157.102C539.222 157.102 515.597 150.297 509.92 169.062C509.92 169.062 522.978 157.582 531.501 167.052L535.212 169.674L539.222 157.102Z" fill="#E8546B"/>
</g>
<g id="Group_22">
<path id="Vector_27" d="M540.065 176.432C540.065 176.432 511.072 172.444 510.278 171.549C509.483 170.655 520.887 168.514 520.887 168.514L521.937 166.76L524.133 167.789L527.953 166.993L534.22 166.905L540.103 172.442L540.065 176.432Z" fill="#E8546B"/>
</g>
<g id="Group_23">
<path id="Vector_28" d="M576.7 222.864C575.498 222.276 574.257 222.754 573.287 223.353C573.146 223.182 573.005 223.011 572.865 222.84C573.221 221.428 573.331 219.96 572.129 219.372C571.109 218.865 569.948 219.162 569.018 219.67C568.812 219.525 568.581 219.314 568.309 219.193C568.6 217.806 568.645 216.363 567.469 215.841C566.021 215.198 564.594 215.973 563.569 216.818C563.478 216.777 563.323 216.762 563.232 216.722C563.342 215.255 563.115 213.692 561.793 213.375C560.2 212.939 558.818 214.221 557.999 215.212C557.753 215.156 557.441 215.126 557.195 215.071C557.345 213.513 557.158 211.86 555.771 211.569C554.268 211.172 552.967 212.273 552.123 213.199C551.841 211.882 551.247 210.535 549.986 210.571C547.749 210.607 546.675 213.271 546.323 214.307C539.819 214.561 532.768 215.926 525.843 218.593C518.723 221.335 512.512 225.077 507.477 229.341C506.703 228.889 503.863 227.357 502.139 228.921C501.205 229.806 501.643 231.138 502.317 232.304C501.045 232.118 499.366 232.24 498.518 233.542C497.709 234.753 498.795 236.21 500.042 237.306C499.896 237.512 499.816 237.693 499.645 237.834C498.348 237.583 496.283 237.478 495.288 238.986C494.479 240.198 495.54 241.59 496.697 242.645L496.657 242.735C495.305 242.731 493.48 243.058 492.797 244.597C492.235 245.863 493.442 247.049 494.744 247.898C494.729 248.054 494.649 248.235 494.634 248.391C493.513 248.597 492.206 249.1 491.774 250.317C491.262 251.714 492.625 252.915 494.033 253.648C493.992 253.739 494.043 253.869 494.003 253.96C492.766 254.061 491.238 254.574 490.726 255.972C489.757 258.52 495.247 260.307 495.247 260.307C500.807 274.745 523.602 279.395 546.075 270.74C568.614 262.061 582.337 243.348 576.778 228.91C576.727 228.779 576.677 228.649 576.627 228.518C577.189 227.251 578.65 223.838 576.7 222.864Z" fill="#E8546B"/>
</g>
<g id="Group_24">
<path id="Vector_29" d="M510.883 228.129C511.274 227.881 511.021 226.78 510.317 225.67C509.613 224.56 508.724 223.861 508.332 224.11C507.941 224.358 508.194 225.46 508.898 226.57C509.602 227.68 510.491 228.378 510.883 228.129Z" fill="#E8546B"/>
</g>
<g id="Group_25">
<path id="Vector_30" d="M539.182 215.035C539.152 213.721 538.751 212.664 538.288 212.674C537.824 212.685 537.472 213.759 537.502 215.073C537.532 216.387 537.933 217.444 538.397 217.434C538.86 217.423 539.212 216.349 539.182 215.035Z" fill="#E8546B"/>
</g>
<g id="Group_26">
<path id="Vector_31" d="M508.728 226.159C510.099 225.631 510.782 224.092 510.254 222.721C509.726 221.349 508.187 220.666 506.816 221.194C505.444 221.722 504.761 223.262 505.289 224.633C505.817 226.004 507.356 226.687 508.728 226.159Z" fill="#07090B"/>
</g>
<g id="Group_27">
<path id="Vector_32" d="M539.658 213.948C540.957 213.447 541.605 211.989 541.105 210.69C540.604 209.391 539.146 208.744 537.847 209.244C536.548 209.744 535.901 211.203 536.401 212.502C536.901 213.8 538.359 214.448 539.658 213.948Z" fill="#07090B"/>
</g>
<g id="Group_28">
<path id="Vector_33" d="M519.086 224.421L518.407 224.607C515.583 214.742 506.365 213.791 506.3 213.816L506.335 213.127C506.491 213.142 516.151 214.073 519.086 224.421Z" fill="#E8546B"/>
</g>
<g id="Group_29">
<path id="Vector_34" d="M532.282 219.339C527.584 209.67 534.125 202.5 534.165 202.41L534.653 202.897C534.613 202.988 528.388 209.811 532.91 219.022L532.282 219.339Z" fill="#E8546B"/>
</g>
<g id="Group_30">
<path id="Vector_35" d="M574.947 191.431C574.882 191.456 574.882 191.456 574.817 191.481L565.951 191.445C565.73 191.455 565.589 191.284 565.604 191.128C565.594 190.907 565.764 190.766 565.92 190.781L574.786 190.818C575.008 190.808 575.148 190.978 575.133 191.134C575.184 191.265 575.078 191.381 574.947 191.431Z" fill="#FFB9A6"/>
</g>
<g id="Group_31">
<path id="Vector_36" d="M560.921 183.254C560.856 183.279 560.79 183.305 560.765 183.239C560.609 183.224 560.469 183.053 560.458 182.832L560.904 178.535L566.123 171.049C566.203 170.868 566.424 170.857 566.605 170.938C566.786 171.018 566.797 171.239 566.716 171.42L561.562 178.881L561.107 182.958C561.092 183.113 560.986 183.229 560.921 183.254Z" fill="#FFB9A6"/>
</g>
<g id="Group_32">
<path id="Vector_37" d="M538.882 172.387C538.686 172.462 538.505 172.382 538.429 172.186L536.039 165.98L538.86 156.942C538.941 156.761 539.111 156.62 539.292 156.7C539.473 156.781 539.614 156.951 539.534 157.132L536.793 165.99L539.083 171.934C539.158 172.13 539.078 172.311 538.882 172.387Z" fill="#FFB9A6"/>
</g>
<g id="Group_33">
<path id="Vector_38" d="M543.359 157.91C543.756 157.757 543.954 157.311 543.801 156.914C543.648 156.518 543.202 156.32 542.806 156.473C542.409 156.625 542.211 157.071 542.364 157.468C542.516 157.865 542.962 158.063 543.359 157.91Z" fill="#FFB9A6"/>
</g>
<g id="Group_34">
<path id="Vector_39" d="M546.074 159.115C546.471 158.962 546.668 158.516 546.516 158.12C546.363 157.723 545.917 157.525 545.52 157.678C545.123 157.83 544.926 158.276 545.078 158.673C545.231 159.07 545.677 159.268 546.074 159.115Z" fill="#FFB9A6"/>
</g>
<g id="Group_35">
<path id="Vector_40" d="M548.034 158.36C548.431 158.207 548.628 157.762 548.476 157.365C548.323 156.968 547.877 156.77 547.48 156.923C547.083 157.076 546.885 157.521 547.038 157.918C547.191 158.315 547.637 158.513 548.034 158.36Z" fill="#FFB9A6"/>
</g>
<g id="Group_36">
<path id="Vector_41" d="M569.497 174.55C569.894 174.398 570.092 173.952 569.939 173.555C569.786 173.158 569.341 172.96 568.944 173.113C568.547 173.266 568.349 173.712 568.502 174.109C568.655 174.505 569.1 174.703 569.497 174.55Z" fill="#FFB9A6"/>
</g>
<g id="Group_37">
<path id="Vector_42" d="M572.127 177.289C572.524 177.136 572.721 176.69 572.569 176.293C572.416 175.896 571.97 175.698 571.573 175.851C571.176 176.004 570.979 176.45 571.131 176.847C571.284 177.244 571.73 177.441 572.127 177.289Z" fill="#FFB9A6"/>
</g>
<g id="Group_38">
<path id="Vector_43" d="M509.017 222.122C509.039 221.697 508.649 221.332 508.147 221.307C507.645 221.282 507.221 221.606 507.199 222.031C507.178 222.455 507.568 222.82 508.07 222.845C508.572 222.871 508.996 222.547 509.017 222.122Z" fill="white"/>
</g>
<g id="Group_39">
<path id="Vector_44" d="M539.658 213.948C541.029 213.42 541.713 211.88 541.185 210.509C540.657 209.138 539.117 208.455 537.746 208.983C536.375 209.511 535.692 211.05 536.22 212.421C536.748 213.792 538.287 214.476 539.658 213.948Z" fill="#07090B"/>
</g>
<g id="Group_40">
<path id="Vector_45" d="M540.009 209.916C540.031 209.492 539.641 209.127 539.139 209.102C538.637 209.077 538.213 209.4 538.191 209.825C538.17 210.25 538.56 210.615 539.062 210.64C539.564 210.665 539.988 210.341 540.009 209.916Z" fill="white"/>
</g>
<g id="Group_41">
<path id="Vector_46" d="M482.22 250.245L498.427 233.502L500.935 233.586L494.807 255.075" fill="#E8546B"/>
</g>
<g id="Group_42">
<g id="Group_43">
<path id="Vector_47" d="M555.691 211.75C556.857 212.051 556.953 213.664 556.833 214.911L556.803 215.222L557.115 215.252C557.361 215.307 557.673 215.337 557.919 215.393L558.165 215.448L558.311 215.242C559.13 214.251 560.366 213.175 561.778 213.531C562.698 213.777 563.075 214.757 562.935 216.536L562.88 216.783L563.67 217.079L563.84 216.938C564.76 216.209 566.122 215.46 567.388 216.022C568.203 216.383 568.424 217.348 568.078 218.982L568.023 219.228L568.229 219.374C568.41 219.454 568.551 219.625 568.732 219.706L569.054 219.957L569.25 219.881C570.31 219.323 571.235 219.192 571.984 219.578C572.823 220.005 572.98 220.995 572.503 222.679L572.422 222.86L572.563 223.031C572.679 223.137 572.729 223.267 572.82 223.308L573.051 223.519L573.935 222.503C573.739 222.578 573.543 222.654 573.372 222.795C573.347 222.729 573.282 222.754 573.257 222.689C573.899 220.266 573.105 219.372 572.265 218.945C571.335 218.478 570.229 218.529 569.038 219.137C568.923 219.032 568.832 218.992 568.717 218.886C569.188 216.604 568.394 215.71 567.579 215.348C566.403 214.826 565.021 215.133 563.629 216.194C563.698 213.842 562.773 212.998 561.878 212.818C560.22 212.406 558.763 213.492 557.838 214.598C557.748 214.558 557.592 214.543 557.527 214.568C557.676 212.035 556.686 211.216 555.831 210.945C555.248 210.795 554.74 210.84 554.127 211.001L553.685 211.997C554.339 211.745 555.017 211.559 555.691 211.75Z" fill="#FFB9A6"/>
</g>
<g id="Group_44">
<path id="Vector_48" d="M492.55 254.669C493.008 254.493 493.49 254.382 493.932 254.362L494.219 254.327L494.203 253.507L494.022 253.427C492.796 252.774 491.484 251.704 491.915 250.488C492.252 249.608 493.156 249.034 494.563 248.793L494.784 248.782L494.84 248.536C494.855 248.38 494.935 248.199 494.95 248.044L495.005 247.797L494.799 247.652C493.703 246.948 492.547 245.893 493.029 244.808C493.631 243.45 495.325 243.173 496.586 243.137L496.848 243.037L497.049 242.584L496.843 242.439C495.827 241.554 494.791 240.228 495.454 239.223C496.303 237.92 498.122 237.97 499.419 238.221L499.665 238.276L499.957 237.864C500.062 237.748 500.102 237.657 500.208 237.542L500.419 237.31L500.188 237.099C499.288 236.321 498.443 235.296 498.533 234.361L497.874 234.014C497.644 234.778 497.875 235.965 499.494 237.442L499.454 237.532C497.378 237.206 495.825 237.654 495.017 238.866C494.539 239.575 494.329 240.781 495.983 242.545C494.616 242.696 493.128 243.119 492.486 244.567C492.124 245.381 492.185 246.708 494.312 248.139C494.312 248.139 494.312 248.139 494.337 248.205C492.864 248.472 491.814 249.251 491.397 250.312C491.061 251.192 491.162 252.428 493.354 253.834C492.585 253.98 491.932 254.232 491.394 254.589L492.274 254.925C492.354 254.744 492.42 254.719 492.55 254.669Z" fill="#FFB9A6"/>
</g>
</g>
<g id="Group_45">
<path id="Vector_49" d="M535.016 170.725L534.302 170.625C534.658 168.237 531.471 167.364 531.446 167.299L531.637 166.625C532.984 167.006 535.372 168.337 535.016 170.725Z" fill="#FFB9A6"/>
</g>
<g id="Group_46">
<path id="Vector_50" d="M456.077 221.904L451.274 250.535L465.511 258.48L496.25 256.095L496.942 263.93L468.962 266.078L450 256.577L446.091 249.155L456.077 221.904Z" fill="#E8546B"/>
</g>
<g id="Group_47">
<path id="Vector_51" d="M462.05 287.869L468.797 278.895L472.1 280.849L481.26 276.196L509.933 271.756L505.642 264.706L464.346 272.207L458.494 281.362C458.494 281.362 453.098 298.518 471.186 306.332C471.186 306.332 459.697 296.953 462.05 287.869Z" fill="#E8546B"/>
</g>
<g id="Group_48">
<path id="Vector_52" d="M483.771 281.155L511.994 272.237L524.585 274.74L490.353 287.923L487.936 288.854L478.187 305.811L493.435 315.017L473.82 307.718L483.771 281.155Z" fill="#E8546B"/>
</g>
<g id="Group_49">
<path id="Vector_53" d="M572.598 174.031L596.62 190.437L592.424 206.231L569.499 226.762L574.623 232.665L595.549 213.954L601.843 193.676L599.176 185.776L572.598 174.031Z" fill="#E8546B"/>
</g>
<g id="Group_50">
<path id="Vector_54" d="M616.09 224.048L604.926 222.721L604.033 226.441L594.304 229.812L571.246 247.469L569.087 239.523L603.038 214.896L613.75 216.998C613.75 216.998 629.872 224.967 623.029 243.431C623.094 243.406 624.299 228.614 616.09 224.048Z" fill="#E8546B"/>
</g>
<g id="Group_51">
<path id="Vector_55" d="M607.14 239.573L577.698 242.209L566.995 249.481L603.62 248.355L606.299 248.299L621.8 260.108L611.291 274.508L626.544 260.157L607.14 239.573Z" fill="#E8546B"/>
</g>
<g id="Group_52">
<path id="Vector_56" d="M524.711 275.067L524.646 275.092C505.15 277.648 495.257 260.528 495.116 260.358C495.04 260.162 495.056 260.006 495.251 259.93C495.447 259.855 495.603 259.87 495.679 260.066C495.754 260.262 505.497 276.99 524.55 274.454C524.771 274.443 524.887 274.549 524.897 274.77C524.947 274.901 524.842 275.016 524.711 275.067Z" fill="#FFB9A6"/>
</g>
<g id="Group_53">
<path id="Vector_57" d="M564.366 259.796C564.235 259.846 564.079 259.831 563.939 259.66C563.798 259.489 563.878 259.308 563.984 259.193C579.816 248.295 575.757 229.378 575.747 229.157C575.672 228.961 575.843 228.82 575.973 228.77C576.169 228.694 576.31 228.865 576.36 228.996C576.436 229.192 580.515 248.551 564.341 259.73C564.366 259.796 564.366 259.796 564.366 259.796Z" fill="#FFB9A6"/>
</g>
</g>
<g id="juice">
<path id="Rectangle 181" opacity="0.8" d="M672.06 197.267L724.053 220.416L698.027 278.871C696.904 281.394 693.949 282.529 691.426 281.405L648.568 262.323C646.045 261.2 644.911 258.245 646.034 255.722L672.06 197.267Z" fill="white"/>
<path id="Rectangle 182" opacity="0.8" d="M703.451 162.181C704.9 160.562 707.227 160.064 709.211 160.947L726.185 168.504C728.17 169.388 729.357 171.451 729.123 173.61L724.053 220.416L672.06 197.267L703.451 162.181Z" fill="white"/>
<path id="Union" fill-rule="evenodd" clip-rule="evenodd" d="M725.975 177.939L702.341 167.416L673.426 199.007C671.968 199.358 670.683 200.359 670.026 201.835L646.067 255.648C644.943 258.171 646.078 261.126 648.601 262.25L691.459 281.331C693.982 282.455 696.937 281.32 698.06 278.797L722.02 224.984C722.677 223.508 722.561 221.884 721.847 220.565L725.975 177.939Z" fill="#FFD166"/>
<rect id="Rectangle 180" width="25.8701" height="6.8987" rx="1" transform="matrix(0.913544 0.406739 0.406739 -0.913544 704.479 162.616)" fill="#2B851C"/>
<rect id="Rectangle 185" x="671.358" y="198.843" width="56.9143" height="53.4649" transform="rotate(24.0001 671.358 198.843)" fill="#2B851C"/>
<rect id="Rectangle 186" x="665.39" y="220.728" width="50.0156" height="27.5948" transform="rotate(24.0001 665.39 220.728)" fill="white"/>
<g id="apple">
<g id="Group_54">
<path id="Vector_58" d="M696.979 229.729C694.508 228.023 687.574 227.401 687.183 227.965C686.794 228.53 689.829 234.796 692.299 236.502C694.771 238.209 697.82 238.076 699.112 236.206C700.404 234.336 699.449 231.435 696.979 229.729Z" fill="#A0D468"/>
</g>
<path id="Vector_59" d="M705.116 232.774C705.643 232.571 705.905 231.979 705.702 231.453C705.499 230.925 704.908 230.661 704.381 230.864C704.379 230.864 704.379 230.865 704.377 230.864C704.31 230.891 702.69 231.521 700.904 232.631C698.403 234.184 696.846 235.867 696.28 237.636L698.229 238.26C699.074 235.626 703.481 233.409 705.114 232.775C705.115 232.775 705.116 232.774 705.116 232.774Z" fill="#434A54"/>
<path id="Vector_60" d="M686.225 260.875C685.698 261.078 685.435 261.67 685.637 262.196C685.84 262.725 686.431 262.988 686.96 262.785C687.486 262.583 687.75 261.992 687.548 261.464C687.346 260.935 686.754 260.672 686.225 260.875Z" fill="#434A54"/>
<g id="Group_55">
<path id="Vector_61" d="M697.844 236.623C690.34 228.367 681.14 231.995 677.078 241.119C673.017 250.239 678.037 262.143 686.499 262.104C692.133 268.418 704.336 264.184 708.397 255.063C712.46 245.939 709.001 236.676 697.844 236.623Z" fill="#DA4453"/>
</g>
<g id="Group_56" opacity="0.1">
<g id="Group_57" opacity="0.1">
<path id="Vector_62" opacity="0.1" d="M688.37 262.937C687.998 262.939 687.634 262.916 687.277 262.874C688.211 263.689 689.278 264.269 690.43 264.634C689.678 264.189 688.984 263.626 688.37 262.937Z" fill="black"/>
</g>
<g id="Group_58" opacity="0.1">
<path id="Vector_63" opacity="0.1" d="M678.949 241.952C681.993 235.115 687.92 231.364 693.858 233.387C687.329 229.777 680.442 233.563 677.078 241.119C673.46 249.244 677.049 259.578 683.858 261.708C678.296 258.444 675.679 249.296 678.949 241.952Z" fill="black"/>
</g>
</g>
</g>
<circle id="Ellipse 42" cx="675.027" cy="211.803" r="3.44935" transform="rotate(24.0001 675.027 211.803)" fill="white"/>
<circle id="Ellipse 43" cx="682.905" cy="215.311" r="3.44935" transform="rotate(24.0001 682.905 215.311)" fill="white"/>
<circle id="Ellipse 44" cx="690.783" cy="218.818" r="3.44935" transform="rotate(24.0001 690.783 218.818)" fill="white"/>
<circle id="Ellipse 45" cx="698.661" cy="222.326" r="3.44935" transform="rotate(24.0001 698.661 222.326)" fill="white"/>
<rect id="Rectangle 187" x="720.601" y="179.359" width="3.44935" height="6.8987" transform="rotate(9.17559 720.601 179.359)" fill="white"/>
<rect id="Rectangle 188" x="716.921" y="180.511" width="1.72468" height="3.44935" transform="rotate(9.17559 716.921 180.511)" fill="white"/>
</g>
<g id="chocolate">
<g id="Group_59">
<path id="Vector_64" d="M682.715 246.622C674.804 232.253 656.729 227.064 642.389 235.066C628.09 243.024 623.115 261.216 631.008 275.552L654.997 319.006C657.474 323.492 663.115 325.121 667.601 322.644L711.056 298.655C725.399 290.736 730.875 272.716 722.997 258.33C715.151 243.925 697.091 238.685 682.715 246.622Z" fill="#FE5A63"/>
</g>
<g id="Group_60" opacity="0.12">
<path id="Vector_65" opacity="0.64" d="M722.761 259.242C718.347 251.169 710.76 245.978 702.39 244.361C708.651 246.801 714.128 251.383 717.635 257.735C725.495 272.089 720.012 290.135 705.694 298.06L662.214 322.042C660.839 322.801 659.323 323.19 657.833 323.2C660.619 324.995 664.262 325.248 667.348 323.524L710.802 299.534C725.145 291.616 730.621 273.596 722.761 259.242Z" fill="black"/>
</g>
<g id="Group_61">
<path id="Vector_66" d="M665.116 231.676L662.32 230.87C661.532 230.642 660.688 231.087 660.454 231.9L641.194 298.632C641.084 299.013 641.127 299.439 641.333 299.773L643.321 303.376C643.972 304.554 645.713 304.341 646.08 303.07L666.146 233.543C666.381 232.73 665.903 231.904 665.116 231.676Z" fill="#FFB9A6"/>
</g>
<g id="Group_62">
<path id="Vector_67" d="M627.183 250.267L626.377 253.063C626.149 253.85 626.594 254.694 627.407 254.929L724.964 283.085C725.752 283.312 726.596 282.868 726.831 282.055L727.637 279.259C727.865 278.471 727.42 277.627 726.607 277.393L629.05 249.237C628.237 249.002 627.418 249.454 627.183 250.267Z" fill="white"/>
</g>
<g id="Group_63">
<path id="Vector_68" d="M652.498 254.6C649.931 249.95 654.063 244.315 659.236 245.561C659.338 245.59 659.465 245.627 659.567 245.656C659.668 245.686 659.796 245.722 659.897 245.752C664.939 247.454 665.433 254.424 660.783 256.991L655.445 259.938L652.498 254.6Z" fill="white"/>
</g>
<g id="Group_64">
<path id="Vector_69" d="M650.115 262.859C645.465 265.426 639.83 261.295 641.075 256.121C641.105 256.019 641.141 255.892 641.171 255.79C641.2 255.689 641.237 255.562 641.266 255.46C642.969 250.418 649.938 249.925 652.506 254.575L655.452 259.912L650.115 262.859Z" fill="#FFB9A6"/>
</g>
<g id="Group_65">
<path id="Vector_70" d="M658.399 265.25C660.966 269.9 656.835 275.535 651.661 274.289C651.559 274.26 651.432 274.223 651.331 274.194C651.229 274.165 651.102 274.128 651 274.099C645.958 272.396 645.465 265.426 650.115 262.859L655.452 259.912L658.399 265.25Z" fill="white"/>
</g>
<g id="Group_66">
<path id="Vector_71" d="M660.783 256.991C665.433 254.424 671.067 258.556 669.822 263.729C669.793 263.831 669.756 263.958 669.727 264.06C669.697 264.161 669.661 264.288 669.631 264.39C667.928 269.432 660.959 269.926 658.392 265.276L655.445 259.938L660.783 256.991Z" fill="#FFB9A6"/>
</g>
</g>
<g id="noodles">
<path id="Rectangle 403" d="M547.218 277.234L589.951 227.105L641.406 276.493L604.128 320.222L547.218 277.234Z" fill="#6FAFB7"/>
<path id="Vector_72" d="M585.524 275.227L597.476 234.348L599.449 236.335L587.069 275.223L585.524 275.227Z" fill="#FE5A63"/>
<rect id="Rectangle 402" x="544" y="276.689" width="69.2349" height="2.80303" transform="rotate(-49.5539 544 276.689)" fill="#FFFEFF"/>
<path id="Vector 59" d="M585.306 306.007L561.177 287.648L572.451 274.423L595.489 294.062L585.306 306.007Z" fill="#FFD166" fill-opacity="0.5"/>
<g id="Group 153">
<g id="Group_67">
<path id="Vector_73" d="M581.658 271.184C581.179 271.66 581.208 272.532 581.684 273.012C582.007 273.324 582.515 273.462 582.726 273.863C583.092 274.47 582.614 275.204 582.47 275.892C582.371 276.397 582.476 276.965 582.805 277.356C583.135 277.747 583.707 277.941 584.193 277.802C584.715 277.622 585.152 277.11 585.696 277.205C585.879 277.251 586.046 277.357 586.211 277.423C587.161 277.864 588.451 277.344 588.829 276.34C589.01 275.868 589.005 275.311 589.29 274.891C589.629 274.407 590.31 274.213 590.627 273.711C590.945 273.208 590.834 272.561 590.708 271.975C590.637 271.583 590.502 271.136 590.149 270.946C589.942 270.843 589.723 270.84 589.516 270.737C588.962 270.523 588.729 269.846 588.545 269.284C588.34 268.704 587.991 268.075 587.371 268.025C586.453 267.979 586.04 269.284 585.137 269.436C584.529 269.544 583.896 269.077 583.34 269.34C582.687 269.631 582.675 270.726 582.001 270.998" fill="#FFFEFF"/>
</g>
<g id="Group_68">
<g id="Group_69">
<path id="Vector_74" d="M585.889 273.134C585.97 272.65 586.286 272.625 586.88 273.095C586.841 273.356 586.742 273.603 586.621 273.831C586.199 274.024 585.795 274.195 585.373 274.388C584.956 274.143 584.727 273.763 584.75 273.304C584.736 272.888 584.899 272.437 585.09 272.084C585.423 271.521 585.699 271.24 586.374 271.226C589.593 271.208 587.496 277.082 584.803 275.229C584.508 275.014 584.144 275.44 584.44 275.655C586.417 277.009 588.946 274.819 588.633 272.637C588.497 271.674 587.494 270.56 586.457 270.524C585.578 270.474 584.905 271.264 584.524 271.97C584.091 272.78 584 273.881 584.692 274.581C585.342 275.245 586.369 275.164 586.908 274.445C587.396 273.829 587.779 272.645 587.072 272.006C586.283 271.333 585.616 272.201 585.372 272.877C585.26 273.224 585.756 273.463 585.889 273.134Z" fill="#FFB9A6"/>
</g>
</g>
</g>
<g id="Group 154">
<g id="Group_70">
<path id="Vector_75" d="M611.857 278.721C611.949 279.39 612.664 279.891 613.333 279.799C613.776 279.729 614.193 279.406 614.64 279.479C615.345 279.552 615.643 280.375 616.106 280.904C616.45 281.287 616.967 281.545 617.477 281.518C617.988 281.49 618.487 281.149 618.669 280.678C618.839 280.152 618.692 279.495 619.097 279.118C619.242 278.999 619.428 278.929 619.58 278.838C620.504 278.345 620.865 277.001 620.29 276.095C620.022 275.666 619.575 275.335 619.41 274.855C619.227 274.293 619.482 273.633 619.272 273.077C619.062 272.52 618.478 272.22 617.934 271.968C617.578 271.788 617.14 271.628 616.775 271.795C616.569 271.899 616.435 272.072 616.228 272.175C615.724 272.489 615.043 272.267 614.483 272.076C613.896 271.891 613.185 271.791 612.772 272.257C612.182 272.962 612.976 274.078 612.554 274.89C612.275 275.44 611.521 275.665 611.397 276.267C611.236 276.964 612.103 277.632 611.915 278.335" fill="#FFFEFF"/>
</g>
<g id="Group_71">
<g id="Group_72">
<path id="Vector_76" d="M615.96 276.514C615.622 276.159 615.793 275.891 616.525 275.699C616.711 275.887 616.848 276.115 616.957 276.349C616.857 276.802 616.751 277.228 616.651 277.681C616.204 277.867 615.763 277.822 615.41 277.527C615.07 277.287 614.808 276.886 614.641 276.521C614.391 275.916 614.333 275.527 614.728 274.979C616.651 272.397 620.08 277.606 616.98 278.642C616.63 278.748 616.752 279.296 617.102 279.189C619.372 278.424 619.145 275.086 617.214 274.023C616.363 273.553 614.87 273.684 614.217 274.49C613.649 275.163 613.874 276.175 614.209 276.904C614.596 277.737 615.42 278.472 616.396 278.341C617.317 278.222 617.87 277.352 617.62 276.489C617.422 275.729 616.707 274.711 615.771 274.891C614.758 275.116 615.051 276.171 615.443 276.773C615.653 277.071 616.143 276.818 615.96 276.514Z" fill="#FFB9A6"/>
</g>
</g>
</g>
<path id="Vector_77" d="M588.677 276.159L600.554 237.278L602.846 239.57L589.85 276.618L588.677 276.159Z" fill="#FE5A63"/>
<path id="Vector 60" d="M551.747 280.347L593.753 231.071" stroke="#FFAF27" stroke-width="4"/>
<g id="Mask Group">
<mask id="mask0" mask-type="alpha" maskUnits="userSpaceOnUse" x="547" y="227" width="98" height="97">
<path id="Rectangle 401" d="M547.224 277.227L589.957 227.098L641.412 276.486L604.134 320.215L547.224 277.227Z" fill="#6FAFB7"/>
</mask>
<g mask="url(#mask0)">
<g id="Group 155">
<g id="Group 150">
<path id="Vector_78" d="M614.789 298.296C622.459 289.299 626.919 280.507 624.752 278.66C622.585 276.812 614.61 282.609 606.94 291.606C599.27 300.603 594.81 309.395 596.977 311.243C599.144 313.09 607.119 307.294 614.789 298.296Z" fill="white"/>
<path id="Vector_79" d="M615.163 298.82C622.105 290.677 626.029 282.623 623.927 280.831C621.826 279.04 614.494 284.189 607.552 292.333C600.61 300.476 596.686 308.53 598.788 310.322C600.889 312.114 608.221 306.964 615.163 298.82Z" fill="#FE5A63"/>
<g id="Group 148">
<g id="Group 143">
<path id="Vector 51 (Stroke)" fill-rule="evenodd" clip-rule="evenodd" d="M599.273 291.182C599.315 290.73 599.716 290.397 600.168 290.439C602.126 290.622 607.007 289.947 610.317 285.712C612.252 283.237 614.811 282.278 617.179 282.082C619.525 281.888 621.716 282.436 623.045 283.014C623.462 283.195 623.653 283.68 623.471 284.096C623.29 284.513 622.806 284.704 622.389 284.523C621.271 284.037 619.351 283.553 617.315 283.722C615.301 283.888 613.208 284.686 611.614 286.725C607.867 291.518 602.367 292.297 600.015 292.078C599.563 292.036 599.23 291.635 599.273 291.182Z" fill="#E3A844"/>
<path id="Vector 51 (Stroke)_2" fill-rule="evenodd" clip-rule="evenodd" d="M600.747 293.225C600.789 292.772 601.19 292.44 601.642 292.482C603.6 292.664 608.481 291.99 611.792 287.754C613.726 285.28 616.285 284.32 618.653 284.124C620.999 283.93 623.19 284.479 624.519 285.057C624.936 285.238 625.127 285.722 624.946 286.139C624.764 286.556 624.28 286.747 623.863 286.566C622.745 286.079 620.825 285.596 618.789 285.764C616.775 285.931 614.682 286.729 613.088 288.768C609.342 293.561 603.841 294.339 601.49 294.12C601.037 294.078 600.705 293.677 600.747 293.225Z" fill="#E3A844"/>
<path id="Vector 51 (Stroke)_3" fill-rule="evenodd" clip-rule="evenodd" d="M600.928 296.254C600.97 295.801 601.371 295.469 601.824 295.511C603.782 295.693 608.663 295.018 611.973 290.783C613.908 288.308 616.467 287.349 618.835 287.153C621.18 286.959 623.372 287.507 624.701 288.085C625.117 288.267 625.308 288.751 625.127 289.168C624.946 289.585 624.461 289.775 624.045 289.594C622.926 289.108 621.006 288.625 618.97 288.793C616.956 288.96 614.863 289.758 613.269 291.797C609.523 296.589 604.022 297.368 601.671 297.149C601.219 297.107 600.886 296.706 600.928 296.254Z" fill="#E3A844"/>
<path id="Vector 51 (Stroke)_4" fill-rule="evenodd" clip-rule="evenodd" d="M601.998 298.987C602.04 298.535 602.441 298.202 602.893 298.244C604.851 298.427 609.732 297.752 613.042 293.517C614.977 291.042 617.536 290.083 619.904 289.887C622.25 289.693 624.441 290.241 625.77 290.819C626.187 291 626.378 291.485 626.196 291.901C626.015 292.318 625.53 292.509 625.114 292.328C623.996 291.842 622.076 291.358 620.04 291.527C618.026 291.693 615.932 292.491 614.339 294.53C610.592 299.323 605.091 300.102 602.74 299.883C602.288 299.84 601.955 299.44 601.998 298.987Z" fill="#E3A844"/>
<path id="Vector 51 (Stroke)_5" fill-rule="evenodd" clip-rule="evenodd" d="M603.067 301.721C603.109 301.268 603.51 300.936 603.962 300.978C605.92 301.16 610.801 300.486 614.111 296.25C616.046 293.775 618.605 292.816 620.973 292.62C623.319 292.426 625.51 292.975 626.839 293.553C627.256 293.734 627.447 294.218 627.265 294.635C627.084 295.052 626.6 295.243 626.183 295.061C625.065 294.575 623.145 294.092 621.109 294.26C619.095 294.427 617.002 295.225 615.408 297.264C611.661 302.056 606.161 302.835 603.809 302.616C603.357 302.574 603.024 302.173 603.067 301.721Z" fill="#E3A844"/>
<path id="Vector 51 (Stroke)_6" fill-rule="evenodd" clip-rule="evenodd" d="M603.779 303.543C603.822 303.091 604.223 302.758 604.675 302.8C606.633 302.983 611.514 302.308 614.824 298.073C616.759 295.598 619.318 294.639 621.686 294.443C624.031 294.249 626.223 294.797 627.552 295.375C627.969 295.556 628.159 296.041 627.978 296.458C627.797 296.874 627.312 297.065 626.896 296.884C625.778 296.398 623.858 295.914 621.821 296.083C619.807 296.249 617.714 297.047 616.121 299.086C612.374 303.879 606.873 304.658 604.522 304.439C604.07 304.397 603.737 303.996 603.779 303.543Z" fill="#E3A844"/>
<path id="Vector 51 (Stroke)_7" fill-rule="evenodd" clip-rule="evenodd" d="M598.906 290.021C598.948 289.568 599.349 289.236 599.801 289.278C601.759 289.46 606.64 288.785 609.951 284.55C611.885 282.075 614.444 281.116 616.812 280.92C619.158 280.726 621.349 281.274 622.678 281.852C623.095 282.033 623.286 282.518 623.105 282.935C622.923 283.352 622.439 283.542 622.022 283.361C620.904 282.875 618.984 282.391 616.948 282.56C614.934 282.727 612.841 283.525 611.247 285.564C607.501 290.356 602 291.135 599.649 290.916C599.196 290.874 598.864 290.473 598.906 290.021Z" fill="#FFD166"/>
<path id="Vector 51 (Stroke)_8" fill-rule="evenodd" clip-rule="evenodd" d="M599.837 292.102C599.879 291.65 600.28 291.317 600.732 291.359C602.69 291.542 607.571 290.867 610.882 286.632C612.816 284.157 615.375 283.198 617.743 283.002C620.089 282.808 622.28 283.356 623.609 283.934C624.026 284.115 624.217 284.6 624.036 285.016C623.854 285.433 623.37 285.624 622.953 285.443C621.835 284.957 619.915 284.473 617.879 284.642C615.865 284.808 613.772 285.606 612.178 287.645C608.432 292.438 602.931 293.217 600.58 292.998C600.127 292.955 599.795 292.555 599.837 292.102Z" fill="#FFD166"/>
<path id="Vector 51 (Stroke)_9" fill-rule="evenodd" clip-rule="evenodd" d="M600.953 294.713C600.995 294.261 601.396 293.928 601.849 293.97C603.806 294.153 608.687 293.478 611.998 289.243C613.933 286.768 616.492 285.808 618.86 285.613C621.205 285.418 623.397 285.967 624.726 286.545C625.142 286.726 625.333 287.211 625.152 287.627C624.971 288.044 624.486 288.235 624.069 288.054C622.951 287.567 621.031 287.084 618.995 287.252C616.981 287.419 614.888 288.217 613.294 290.256C609.548 295.049 604.047 295.828 601.696 295.608C601.244 295.566 600.911 295.165 600.953 294.713Z" fill="#FFD166"/>
<path id="Vector 51 (Stroke)_10" fill-rule="evenodd" clip-rule="evenodd" d="M601.135 297.742C601.177 297.289 601.578 296.957 602.03 296.999C603.988 297.181 608.869 296.506 612.18 292.271C614.114 289.796 616.673 288.837 619.041 288.641C621.387 288.447 623.578 288.995 624.907 289.573C625.324 289.755 625.515 290.239 625.334 290.656C625.152 291.073 624.668 291.263 624.251 291.082C623.133 290.596 621.213 290.112 619.177 290.281C617.163 290.448 615.07 291.246 613.476 293.285C609.73 298.077 604.229 298.856 601.878 298.637C601.425 298.595 601.093 298.194 601.135 297.742Z" fill="#FFD166"/>
<path id="Vector 51 (Stroke)_11" fill-rule="evenodd" clip-rule="evenodd" d="M602.204 300.475C602.246 300.023 602.647 299.69 603.099 299.732C605.057 299.915 609.938 299.24 613.249 295.005C615.183 292.53 617.742 291.571 620.11 291.375C622.456 291.181 624.648 291.729 625.976 292.307C626.393 292.488 626.584 292.973 626.403 293.39C626.222 293.806 625.737 293.997 625.32 293.816C624.202 293.33 622.282 292.846 620.246 293.015C618.232 293.181 616.139 293.979 614.545 296.018C610.799 300.811 605.298 301.59 602.947 301.371C602.494 301.329 602.162 300.928 602.204 300.475Z" fill="#FFD166"/>
<path id="Vector 51 (Stroke)_12" fill-rule="evenodd" clip-rule="evenodd" d="M603.244 302.916C603.286 302.463 603.687 302.131 604.14 302.173C606.097 302.356 610.978 301.681 614.289 297.446C616.224 294.971 618.783 294.011 621.151 293.815C623.496 293.621 625.688 294.17 627.017 294.748C627.433 294.929 627.624 295.414 627.443 295.83C627.262 296.247 626.777 296.438 626.36 296.257C625.242 295.77 623.322 295.287 621.286 295.455C619.272 295.622 617.179 296.42 615.585 298.459C611.839 303.252 606.338 304.03 603.987 303.811C603.535 303.769 603.202 303.368 603.244 302.916Z" fill="#FFD166"/>
<path id="Vector 51 (Stroke)_13" fill-rule="evenodd" clip-rule="evenodd" d="M603.986 305.031C604.028 304.579 604.429 304.246 604.881 304.288C606.839 304.471 611.72 303.796 615.031 299.561C616.965 297.086 619.524 296.127 621.892 295.931C624.238 295.737 626.43 296.285 627.758 296.863C628.175 297.044 628.366 297.529 628.185 297.946C628.004 298.362 627.519 298.553 627.102 298.372C625.984 297.886 624.064 297.402 622.028 297.571C620.014 297.737 617.921 298.535 616.327 300.574C612.581 305.367 607.08 306.146 604.729 305.927C604.276 305.885 603.944 305.484 603.986 305.031Z" fill="#FFD166"/>
</g>
<g id="Group 145">
<path id="Vector 51 (Stroke)_14" fill-rule="evenodd" clip-rule="evenodd" d="M599.986 312.37C599.635 312.096 599.559 311.594 599.817 311.249C600.934 309.755 602.789 305.431 600.937 300.495C599.856 297.61 600.33 295.022 601.338 292.994C602.336 290.985 603.87 289.495 605.002 288.722C605.357 288.48 605.85 288.582 606.103 288.95C606.357 289.318 606.275 289.813 605.92 290.056C604.967 290.706 603.621 292.01 602.755 293.754C601.897 295.478 601.52 297.602 602.412 299.979C604.507 305.565 602.431 310.448 601.09 312.242C600.832 312.587 600.338 312.645 599.986 312.37Z" fill="#E3A844"/>
<path id="Vector 51 (Stroke)_15" fill-rule="evenodd" clip-rule="evenodd" d="M601.788 313.066C601.427 312.79 601.357 312.274 601.633 311.913C602.827 310.35 604.846 305.855 603.013 300.802C601.942 297.849 602.488 295.171 603.578 293.06C604.659 290.969 606.287 289.402 607.482 288.583C607.857 288.326 608.369 288.421 608.626 288.796C608.883 289.171 608.787 289.683 608.413 289.94C607.407 290.63 605.978 292 605.04 293.815C604.113 295.611 603.678 297.808 604.56 300.241C606.634 305.96 604.374 311.035 602.941 312.912C602.665 313.273 602.149 313.342 601.788 313.066Z" fill="#E3A844"/>
<path id="Vector 51 (Stroke)_16" fill-rule="evenodd" clip-rule="evenodd" d="M604.451 314.52C604.09 314.244 604.02 313.728 604.296 313.366C605.49 311.804 607.509 307.309 605.676 302.256C604.605 299.302 605.151 296.624 606.241 294.513C607.322 292.422 608.95 290.856 610.145 290.037C610.52 289.78 611.032 289.875 611.289 290.25C611.546 290.624 611.45 291.137 611.075 291.394C610.07 292.083 608.641 293.454 607.703 295.269C606.776 297.064 606.341 299.262 607.223 301.695C609.297 307.413 607.037 312.489 605.604 314.365C605.328 314.726 604.812 314.796 604.451 314.52Z" fill="#E3A844"/>
<path id="Vector 51 (Stroke)_17" fill-rule="evenodd" clip-rule="evenodd" d="M607.335 315.064C606.974 314.788 606.905 314.272 607.181 313.911C608.374 312.349 610.393 307.854 608.561 302.8C607.49 299.847 608.035 297.169 609.126 295.058C610.206 292.967 611.834 291.401 613.029 290.581C613.404 290.324 613.916 290.42 614.173 290.794C614.43 291.169 614.335 291.681 613.96 291.938C612.954 292.628 611.525 293.998 610.588 295.813C609.66 297.609 609.225 299.806 610.108 302.239C612.181 307.958 609.922 313.034 608.488 314.91C608.212 315.271 607.696 315.34 607.335 315.064Z" fill="#E3A844"/>
<path id="Vector 51 (Stroke)_18" fill-rule="evenodd" clip-rule="evenodd" d="M610.219 315.609C609.858 315.333 609.789 314.817 610.065 314.456C611.259 312.893 613.277 308.398 611.445 303.345C610.374 300.391 610.92 297.713 612.01 295.603C613.091 293.511 614.719 291.945 615.914 291.126C616.288 290.869 616.801 290.964 617.057 291.339C617.314 291.714 617.219 292.226 616.844 292.483C615.839 293.172 614.41 294.543 613.472 296.358C612.544 298.153 612.11 300.351 612.992 302.784C615.066 308.503 612.806 313.578 611.373 315.454C611.097 315.816 610.58 315.885 610.219 315.609Z" fill="#E3A844"/>
<path id="Vector 51 (Stroke)_19" fill-rule="evenodd" clip-rule="evenodd" d="M612.142 315.972C611.781 315.696 611.712 315.18 611.988 314.819C613.182 313.256 615.2 308.761 613.368 303.708C612.297 300.755 612.842 298.077 613.933 295.966C615.013 293.875 616.641 292.308 617.836 291.489C618.211 291.232 618.723 291.327 618.98 291.702C619.237 292.077 619.142 292.589 618.767 292.846C617.761 293.535 616.333 294.906 615.395 296.721C614.467 298.517 614.032 300.714 614.915 303.147C616.988 308.866 614.729 313.941 613.295 315.818C613.019 316.179 612.503 316.248 612.142 315.972Z" fill="#E3A844"/>
<path id="Vector 51 (Stroke)_20" fill-rule="evenodd" clip-rule="evenodd" d="M598.836 311.803C598.489 311.532 598.414 311.036 598.67 310.694C599.777 309.216 601.618 304.938 599.792 300.059C598.725 297.207 599.198 294.648 600.197 292.641C601.188 290.653 602.707 289.178 603.828 288.413C604.18 288.172 604.668 288.273 604.918 288.636C605.168 289 605.087 289.49 604.735 289.73C603.792 290.375 602.458 291.665 601.598 293.391C600.748 295.097 600.373 297.198 601.252 299.547C603.318 305.068 601.258 309.899 599.929 311.675C599.673 312.016 599.184 312.074 598.836 311.803Z" fill="#FFD166"/>
<path id="Vector 51 (Stroke)_21" fill-rule="evenodd" clip-rule="evenodd" d="M600.491 313.206C600.13 312.929 600.059 312.412 600.332 312.052C601.515 310.496 603.506 306.012 601.655 300.95C600.573 297.993 601.104 295.318 602.181 293.212C603.248 291.127 604.864 289.569 606.052 288.755C606.424 288.5 606.935 288.598 607.193 288.974C607.451 289.35 607.358 289.861 606.986 290.116C605.987 290.801 604.569 292.164 603.642 293.975C602.726 295.765 602.303 297.96 603.194 300.397C605.289 306.125 603.061 311.188 601.64 313.057C601.367 313.417 600.852 313.484 600.491 313.206Z" fill="#FFD166"/>
<path id="Vector 51 (Stroke)_22" fill-rule="evenodd" clip-rule="evenodd" d="M603.158 313.681C602.797 313.405 602.728 312.889 603.004 312.528C604.198 310.965 606.216 306.47 604.384 301.417C603.313 298.464 603.858 295.786 604.949 293.675C606.03 291.584 607.658 290.017 608.853 289.198C609.227 288.941 609.739 289.036 609.996 289.411C610.253 289.786 610.158 290.298 609.783 290.555C608.778 291.244 607.349 292.615 606.411 294.43C605.483 296.225 605.049 298.423 605.931 300.856C608.004 306.575 605.745 311.65 604.311 313.527C604.036 313.888 603.519 313.957 603.158 313.681Z" fill="#FFD166"/>
<path id="Vector 51 (Stroke)_23" fill-rule="evenodd" clip-rule="evenodd" d="M605.821 315.134C605.46 314.858 605.391 314.342 605.667 313.981C606.861 312.419 608.879 307.924 607.047 302.87C605.976 299.917 606.521 297.239 607.612 295.128C608.693 293.037 610.32 291.471 611.516 290.651C611.89 290.394 612.402 290.49 612.659 290.864C612.916 291.239 612.821 291.751 612.446 292.008C611.441 292.698 610.012 294.068 609.074 295.883C608.146 297.679 607.712 299.876 608.594 302.309C610.667 308.028 608.408 313.104 606.974 314.98C606.699 315.341 606.182 315.41 605.821 315.134Z" fill="#FFD166"/>
<path id="Vector 51 (Stroke)_24" fill-rule="evenodd" clip-rule="evenodd" d="M608.706 315.679C608.345 315.403 608.276 314.887 608.551 314.526C609.745 312.963 611.764 308.468 609.931 303.415C608.861 300.462 609.406 297.784 610.497 295.673C611.577 293.582 613.205 292.015 614.4 291.196C614.775 290.939 615.287 291.034 615.544 291.409C615.801 291.784 615.705 292.296 615.331 292.553C614.325 293.242 612.896 294.613 611.958 296.428C611.031 298.224 610.596 300.421 611.478 302.854C613.552 308.573 611.293 313.648 609.859 315.525C609.583 315.886 609.067 315.955 608.706 315.679Z" fill="#FFD166"/>
<path id="Vector 51 (Stroke)_25" fill-rule="evenodd" clip-rule="evenodd" d="M611.326 316.093C610.965 315.817 610.896 315.301 611.172 314.939C612.366 313.377 614.385 308.882 612.552 303.829C611.481 300.875 612.027 298.197 613.117 296.086C614.198 293.995 615.826 292.429 617.021 291.61C617.396 291.353 617.908 291.448 618.165 291.823C618.422 292.197 618.326 292.71 617.951 292.967C616.946 293.656 615.517 295.027 614.579 296.842C613.651 298.637 613.217 300.835 614.099 303.268C616.173 308.986 613.913 314.062 612.48 315.938C612.204 316.299 611.688 316.369 611.326 316.093Z" fill="#FFD166"/>
<path id="Vector 51 (Stroke)_26" fill-rule="evenodd" clip-rule="evenodd" d="M613.513 316.587C613.152 316.311 613.083 315.795 613.359 315.434C614.552 313.871 616.571 309.376 614.739 304.323C613.668 301.369 614.213 298.691 615.304 296.581C616.384 294.489 618.012 292.923 619.207 292.104C619.582 291.847 620.094 291.942 620.351 292.317C620.608 292.692 620.512 293.204 620.138 293.461C619.132 294.15 617.703 295.521 616.766 297.336C615.838 299.131 615.403 301.329 616.285 303.762C618.359 309.481 616.1 314.556 614.666 316.432C614.39 316.794 613.874 316.863 613.513 316.587Z" fill="#FFD166"/>
</g>
</g>
<path id="Subtract" fill-rule="evenodd" clip-rule="evenodd" d="M623.808 280.73C625.582 282.242 621.391 290.069 614.449 298.212C607.507 306.356 600.442 311.732 598.669 310.221C598.548 310.118 598.455 309.986 598.389 309.827L597.096 311.344L622.554 325.738C624.935 327.768 631.527 323.944 637.276 317.199C643.026 310.454 645.758 303.34 643.377 301.311L624.871 278.761L623.375 280.516C623.543 280.556 623.688 280.627 623.808 280.73Z" fill="white"/>
</g>
</g>
</g>
</g>
<g id="Group_73">
<g id="Group_74">
<path id="Vector_80" d="M591.933 260.642C589.603 263.333 592.46 267.758 594.212 270.025C595.563 271.766 597.262 272.625 599.101 273.751C601.276 275.089 601.951 277.322 601.59 279.776C601.309 281.747 600.442 283.586 600.642 285.598C600.801 287.355 601.648 288.997 602.807 290.317C604.271 291.97 606.31 292.861 606.602 295.284C606.833 297.174 606.193 299.134 605.56 300.914C605.249 301.754 606.53 302.368 606.82 301.51C607.81 298.707 608.883 295.201 607.057 292.504C605.842 290.731 603.821 289.819 602.791 287.873C601.642 285.677 602.135 283.63 602.71 281.357C603.594 277.728 602.885 274.325 599.49 272.388C598.491 271.831 597.456 271.317 596.582 270.572C595.64 269.732 594.919 268.676 594.278 267.614C593.359 266.056 591.548 263.298 593.021 261.57C593.582 260.869 592.515 259.96 591.933 260.642Z" fill="#FFD166"/>
</g>
</g>
<g id="Group_75">
<g id="Group_76">
<path id="Vector_81" d="M593.437 254.558C591.106 257.249 593.964 261.674 595.715 263.94C597.067 265.682 598.766 266.541 600.605 267.667C602.78 269.005 603.455 271.237 603.093 273.692C602.813 275.663 601.945 277.501 602.145 279.514C602.305 281.27 603.152 282.913 604.311 284.232C605.774 285.885 607.814 286.777 608.106 289.199C608.336 291.09 607.697 293.049 607.063 294.83C606.753 295.67 608.034 296.283 608.324 295.425C609.313 292.622 610.386 289.117 608.561 286.419C607.346 284.647 605.325 283.734 604.295 281.788C603.146 279.593 603.639 277.546 604.213 275.273C605.097 271.643 604.389 268.24 600.994 266.303C599.995 265.747 598.96 265.233 598.085 264.487C597.144 263.648 596.423 262.591 595.782 261.529C594.862 259.972 593.052 257.213 594.525 255.485C595.086 254.785 594.019 253.875 593.437 254.558Z" fill="#FFD166"/>
</g>
</g>
<g id="Group_77">
<g id="Group_78">
<path id="Vector_82" d="M588.408 261.321C586.078 264.012 588.935 268.437 590.687 270.703C592.038 272.445 593.737 273.304 595.577 274.43C597.751 275.767 598.426 278 598.065 280.455C597.784 282.426 596.917 284.264 597.117 286.277C597.276 288.033 598.123 289.676 599.282 290.995C600.746 292.648 602.785 293.54 603.078 295.962C603.308 297.853 602.668 299.812 602.035 301.593C601.724 302.433 603.006 303.046 603.295 302.188C604.285 299.385 605.358 295.88 603.532 293.182C602.317 291.41 600.296 290.497 599.266 288.551C598.117 286.356 598.61 284.308 599.185 282.036C600.069 278.406 599.36 275.003 595.965 273.066C594.966 272.51 593.931 271.996 593.057 271.25C592.115 270.41 591.395 269.354 590.753 268.292C589.834 266.735 588.023 263.976 589.496 262.248C590.057 261.547 588.99 260.638 588.408 261.321Z" fill="#FFD166"/>
</g>
</g>
<path id="Vector 61" d="M604.484 303.386L601.517 302.33L602.699 300.944L604.386 300.909L604.484 303.386Z" fill="#6FAFB7"/>
<path id="Vector 62" d="M609.734 296.19L608.501 294.846L609.481 294.456L610.354 294.895L609.734 296.19Z" fill="#6FAFB7"/>
<path id="Vector 63" d="M609.318 288.469L608.084 287.125L609.065 286.735L609.938 287.174L609.318 288.469Z" fill="#6FAFB7"/>
<path id="Vector 64" d="M619.536 289.445L618.303 288.101L619.283 287.711L620.156 288.149L619.536 289.445Z" fill="#6FAFB7"/>
</g>
<g id="protagonist">
<g id="b">
<g id="Group 114">
<path id="Rectangle 319" d="M467.233 293.991L567.12 273.072L580.176 383.399L499.545 400.286L467.233 293.991Z" fill="#3A7CCC"/>
<rect id="Rectangle 320" x="457.045" y="287.331" width="119.267" height="8.60692" transform="rotate(-11.8287 457.045 287.331)" fill="white"/>
<rect id="Rectangle 321" x="461.745" y="273.785" width="104.513" height="12.2956" transform="rotate(-11.8287 461.745 273.785)" fill="white"/>
<path id="Vector 38" d="M545.427 367.436C520.252 370.196 511.015 362.081 489.479 367.219L499.545 400.286L580.176 383.399L576.912 355.817C572.127 359.96 562.049 365.614 545.427 367.436Z" fill="white"/>
<ellipse id="Ellipse 104" cx="528.676" cy="340.14" rx="24.4762" ry="16.5806" transform="rotate(-20.7773 528.676 340.14)" fill="#CCE2E1"/>
<rect id="Rectangle 322" x="503.898" y="295.106" width="31.9686" height="11.066" transform="rotate(-11.8287 503.898 295.106)" fill="#FFAF27"/>
<path id="Vector 39" d="M571.168 307.399C564.125 310.758 547.067 319.481 542.903 328.393L548.879 335.935C552.181 327.706 565.634 319.864 572.276 316.588L571.168 307.399Z" fill="#CCE2E1"/>
<path id="Vector 40" d="M533.949 351.624C522.545 357.153 510.328 352.803 507.234 344.029C505.4 341.272 507.164 335.662 510.731 330.734C516.091 323.33 521.867 308.93 523.001 314.346C524.261 320.363 537.13 318.408 539.109 322.278C542.301 328.519 548.794 326.531 548.249 332.926C547.704 339.322 545.354 346.095 533.949 351.624Z" fill="white"/>
<path id="Vector 41" d="M511.613 334.946C510.942 340.74 521.732 347.274 532.913 343.676M536.479 324.713C537.786 326.952 539.341 331.777 535.109 333.166" stroke="#CCE2E1" stroke-linecap="round"/>
</g>
<g id="XMLID 51">
<path id="XMLID 60" d="M581.555 306.012L730.187 287.887L735.068 329.029L586.436 347.153L581.555 306.012Z" fill="#75443E"/>
<path id="XMLID 59" d="M589.319 317.195L725.603 300.58L730.388 287.872L581.822 305.941L589.319 317.195Z" fill="#D5A044"/>
<path id="XMLID 58" d="M690.363 337.724C692.068 352.41 702.696 362.874 713.726 361.736C724.992 360.21 732.75 347.411 731.123 333.034C729.339 318.039 718.947 307.187 707.681 308.713C696.416 310.239 688.658 323.038 690.363 337.724Z" fill="white"/>
<path id="XMLID 57" d="M640.919 343.617C642.624 358.303 653.251 368.768 664.282 367.63C675.548 366.104 683.306 353.304 681.678 338.927C679.973 324.242 669.346 313.777 658.315 314.915C646.971 316.132 639.214 328.932 640.919 343.617Z" fill="white"/>
<path id="XMLID 56" d="M591.475 349.511C593.181 364.197 603.808 374.662 614.839 373.524C626.105 371.998 633.862 359.198 632.235 344.821C630.53 330.136 619.902 319.671 608.872 320.809C597.215 322.105 589.848 335.135 591.475 349.511Z" fill="white"/>
<path id="XMLID 55" d="M586.652 347.003L735.284 328.879L736.185 336.474L587.553 354.599L586.652 347.003Z" fill="#FFC35C"/>
<path id="XMLID 54" d="M701.596 366.437L727.101 363.293L735.968 336.412L686.603 342.615L701.596 366.437Z" fill="#D5A044"/>
<path id="XMLID 53" d="M652.153 372.331L677.657 369.187L686.603 342.615L637.159 348.509L652.153 372.331Z" fill="#D5A044"/>
<path id="XMLID 52" d="M602.396 378.303L627.901 375.159L637.159 348.508L587.403 354.481L602.396 378.303Z" fill="#D5A044"/>
</g>
<g id="banana">
<g id="Group_79">
<path id="Vector_83" d="M633.904 305.059C570.788 367.784 493.558 299.562 493.558 299.562C493.558 299.562 492.192 299.347 488.163 304.417C484.134 309.488 485.362 310.677 485.362 310.677C525.454 403.63 641.062 368.936 648.869 319.439L648.409 309.61L645.61 300.247L643.569 299.122C638.294 304.056 640.944 304.519 640.944 304.519L633.904 305.059Z" fill="#F6BB42"/>
</g>
<path id="Vector_84" d="M492.164 304.128C492.24 302.995 491.765 301.954 490.969 301.261C490.227 301.974 489.301 302.985 488.163 304.417C487.485 305.272 486.958 306.011 486.546 306.658C487.075 307.068 487.725 307.329 488.442 307.377C490.368 307.507 492.033 306.052 492.164 304.128Z" fill="#434A54"/>
<g id="Group_80">
<path id="Vector_85" d="M628.598 303.601C581.957 379.383 496.27 334.356 496.27 334.356C496.27 334.356 494.891 334.468 492.164 340.339C489.437 346.213 490.91 347.083 490.91 347.083C551.688 428.04 655.935 367.19 651.914 317.244C651.914 317.244 650.466 309.526 649.161 307.796C647.851 306.067 652.84 284.936 652.84 284.936L635.29 277.66C635.29 288.72 634.344 299.127 632.707 300.198C631.07 301.273 628.598 303.601 628.598 303.601Z" fill="#FFCE54"/>
</g>
<path id="Vector_86" d="M491.061 343.072C491.491 343.261 491.965 343.368 492.463 343.368C494.392 343.368 495.955 341.803 495.955 339.874C495.955 338.518 495.183 337.346 494.057 336.77C493.522 337.622 492.891 338.773 492.164 340.339C491.668 341.409 491.312 342.309 491.061 343.072Z" fill="#434A54"/>
<path id="Vector_87" d="M635.29 277.661C635.29 288.72 634.344 299.127 632.707 300.199C640.422 300.636 649.161 307.796 649.161 307.796C647.851 306.067 652.839 284.936 652.839 284.936L635.29 277.661Z" fill="#F6BB42"/>
<g id="Group_81" opacity="0.2">
<path id="Vector_88" opacity="0.2" d="M649.161 307.796C647.851 306.067 652.84 284.936 652.84 284.936L645.006 281.687C643.64 287.837 641.215 299.541 642.172 300.81C643.482 302.541 644.925 310.257 644.925 310.257C648.644 356.456 559.742 411.979 498.281 355.99C559.729 423.266 655.777 365.225 651.914 317.244C651.914 317.244 650.466 309.525 649.161 307.796Z" fill="white"/>
</g>
</g>
<g id="XMLID 2">
<g id="XMLID 3">
<g id="Group_82">
<path id="Vector_89" opacity="0.6" d="M653.047 321.535C653.37 325.04 656.598 327.589 660.148 327.271C663.699 326.952 666.281 323.766 665.958 320.261L661.762 276.29C661.439 272.785 658.212 270.236 654.984 270.554C651.434 270.873 648.851 274.059 649.174 277.246L653.047 321.535Z" fill="white"/>
<path id="Vector_90" opacity="0.6" d="M647.237 260.358C647.56 263.863 650.788 266.412 654.338 266.094C657.889 265.775 660.471 262.589 660.148 259.084C659.825 255.579 656.598 253.03 653.047 253.349C649.174 253.667 646.914 256.854 647.237 260.358Z" fill="white"/>
</g>
<path id="XMLID 22" d="M494.889 440.066L391.602 501.88L403.868 507.615L501.667 449.943L494.889 440.066Z" fill="#2D3640"/>
<path id="XMLID 21" d="M670.154 462.37L500.376 440.384L498.117 453.448L634.65 470.973L661.44 474.478L667.895 475.434C667.895 475.434 691.457 479.894 692.426 500.605H706.628C706.305 481.169 690.489 465.237 670.154 462.37Z" fill="#2D3640"/>
<path id="XMLID 20" d="M724.38 519.086C724.38 530.875 715.02 540.434 703.077 540.752C691.135 540.752 681.452 531.512 681.129 519.723C681.129 507.934 690.489 498.375 702.432 498.056C714.374 497.737 724.057 507.296 724.38 519.086Z" fill="#D47044"/>
<path id="XMLID 19" d="M713.406 519.086C713.406 524.821 708.887 529.282 703.077 529.282C697.267 529.282 692.748 524.821 692.748 519.086C692.748 513.35 697.267 508.89 703.077 508.89C708.564 508.89 713.406 513.35 713.406 519.086Z" fill="#FFE1A1"/>
<path id="XMLID 18" d="M730.767 300.024L730.874 311.176L457.809 313.748L457.701 302.596L730.767 300.024Z" fill="#6FAFB7"/>
<path id="XMLID 17" d="M504.573 438.472L413.551 174.01L399.995 178.471L487.788 433.056C482.947 434.967 479.719 439.747 479.719 445.164C479.719 452.492 485.852 458.227 493.276 458.227C496.826 458.227 500.054 456.953 502.313 454.723C504.895 452.174 506.509 448.987 506.509 445.164C506.509 444.208 504.573 438.472 504.573 438.472Z" fill="#CCE2E1"/>
<path id="XMLID 16" d="M718.248 242.515L426.139 210.971H425.493L430.98 224.353C430.98 224.353 714.374 251.755 715.665 252.393C723.735 254.942 725.349 266.731 725.349 275.653L724.38 353.398C724.38 356.585 721.798 359.452 718.57 359.771C682.42 364.55 484.561 390.678 484.561 390.678L491.016 401.193C491.016 401.193 726.317 371.56 726.317 371.242C731.158 368.693 734.386 363.594 734.709 357.54L736 262.27C736 252.074 728.576 243.471 718.248 242.515Z" fill="#CCE2E1"/>
<path id="XMLID 15" d="M473.961 221.491L526.468 387.886L515.683 391.203L463.175 224.808L473.961 221.491Z" fill="#CCE2E1"/>
<path id="XMLID 14" d="M515.221 220.406L567.782 386.801L556.997 390.121L504.436 223.726L515.221 220.406Z" fill="#CCE2E1"/>
<path id="XMLID 13" d="M559.311 228.186L607.644 381.197L596.858 384.517L548.525 231.506L559.311 228.186Z" fill="#CCE2E1"/>
<path id="XMLID 12" d="M601.274 229.046L647.446 375.364L636.661 378.681L590.488 232.363L601.274 229.046Z" fill="#CCE2E1"/>
<path id="XMLID 11" d="M645.242 234.386L687.054 370.037L676.246 373.283L634.434 237.633L645.242 234.386Z" fill="#CCE2E1"/>
<path id="XMLID 10" d="M688.125 240.208L726.945 363.103L716.16 366.423L677.34 243.528L688.125 240.208Z" fill="#CCE2E1"/>
<path id="XMLID 8" d="M384.178 519.086C384.178 513.35 388.697 508.89 394.507 508.89V497.738C382.564 497.738 372.881 507.615 373.204 519.404C373.204 531.194 383.21 540.753 395.153 540.434V529.282C389.02 529.282 384.501 524.502 384.178 519.086Z" fill="#D47044"/>
<path id="XMLID 7" d="M394.507 497.419V508.571C400.317 508.571 404.836 513.032 404.836 518.767C404.836 524.502 400.317 528.963 394.507 528.963V540.115C406.45 540.115 416.133 530.238 415.81 518.448C416.133 506.978 406.45 497.419 394.507 497.419Z" fill="#A5674A"/>
<path id="XMLID 6" d="M702.754 497.738V508.89C708.564 508.89 713.083 513.35 713.083 519.086C713.083 524.821 708.564 529.282 702.754 529.282V540.434C714.697 540.434 724.38 530.556 724.057 518.767C724.703 507.297 715.02 497.738 702.754 497.738Z" fill="#A5674A"/>
<path id="Vector_91" d="M394.507 508.571C400.317 508.571 404.836 513.032 404.836 518.767C404.836 524.502 400.317 528.963 394.507 528.963C388.697 528.963 384.178 524.502 384.178 518.767C384.178 513.35 388.697 508.571 394.507 508.571Z" fill="#FFE1A1"/>
<path id="Union_2" fill-rule="evenodd" clip-rule="evenodd" d="M381.561 167.312L408.709 167C411.937 167 414.842 169.868 414.842 173.054V181.657C414.842 185.162 412.26 188.03 408.709 188.03L380.951 188.348V188.24L351.421 188.384C347.87 188.364 344.98 185.799 345 182.294L345.049 173.691C345.069 170.186 347.668 167.333 351.218 167.353L381.56 167.205L381.561 167.312Z" fill="#2D3640"/>
</g>
</g>
</g>
<g id="a">
<path id="Vector_92" d="M177.567 512.29C180.878 528.671 210.915 551.225 219.812 549.569C228.675 547.914 230.331 527.05 214.398 507.807L177.567 512.29Z" fill="white"/>
<path id="Vector_93" d="M111.629 512.635C114.94 529.015 144.977 551.569 153.875 549.914C162.772 548.259 164.393 527.395 148.46 508.151L111.629 512.635Z" fill="white"/>
<g id="Group_83">
<g id="Group_84">
<path id="Vector_94" d="M268.783 118.459C269.093 116.597 269.265 114.7 269.265 112.769C269.265 97.3885 259.195 84.3528 245.298 79.9041C246.298 76.6624 246.85 73.2138 246.85 69.6617C246.85 52.3498 234.09 38.0036 217.433 35.5551C217.502 34.7619 217.536 33.9342 217.536 33.1066C217.536 14.829 202.707 0 184.43 0C178.498 0 172.911 1.55187 168.083 4.31075C163.738 2.00019 158.807 0.68972 153.565 0.68972C136.529 0.68972 122.7 14.5186 122.7 31.5547C122.7 31.8306 122.7 32.141 122.7 32.4169C121.286 32.1754 119.838 32.072 118.389 32.072C103.836 32.072 92.0073 43.9007 92.0073 58.4538C92.0073 59.3159 92.0418 60.1781 92.1453 61.0058C79.0061 64.9372 69.419 77.1452 69.419 91.5604C69.419 93.2157 69.5569 94.871 69.7983 96.4574C52.245 104.044 39.9335 121.529 39.9335 141.91C39.9335 169.257 62.0735 191.397 89.4209 191.397C103.422 191.397 116.079 185.569 125.079 176.224C135.218 188.845 148.944 196.57 164.083 196.57C176.084 196.57 187.223 191.673 196.362 183.362C205.018 197.674 220.778 207.261 238.745 207.261C266.093 207.261 288.233 185.121 288.233 157.773C288.233 141.738 280.611 127.495 268.783 118.459Z" fill="#2D3640"/>
</g>
</g>
<path id="Vector_95" d="M85.972 229.091C85.972 229.091 22.4833 432.662 25.2422 492.357C25.2422 492.357 120.182 553.88 272.61 510.703C272.61 510.703 252.746 288.269 239.987 235.47L85.972 229.091Z" fill="#FFAF27"/>
<path id="Vector (Stroke)" fill-rule="evenodd" clip-rule="evenodd" d="M100.863 229.519C100.863 229.518 100.864 229.517 101.525 229.711C102.187 229.906 102.187 229.906 102.187 229.908L102.151 230.029C102.127 230.112 102.091 230.235 102.043 230.398C101.948 230.724 101.807 231.21 101.622 231.848C101.253 233.125 100.712 235.011 100.02 237.448C98.637 242.321 96.6554 249.398 94.2618 258.211C89.4746 275.835 83.0395 300.399 76.4483 328.156C63.2625 383.683 49.4645 451.938 46.9676 502.978L45.5898 502.91C48.0934 451.733 61.9187 383.372 75.1061 327.837C81.7015 300.063 88.1405 275.484 92.9306 257.849C95.3257 249.031 97.3087 241.949 98.693 237.071C99.3852 234.632 99.9277 232.744 100.297 231.465C100.482 230.826 100.623 230.339 100.719 230.012C100.767 229.849 100.803 229.725 100.827 229.642L100.863 229.519Z" fill="#FFD166"/>
<path id="Vector (Stroke)_2" fill-rule="evenodd" clip-rule="evenodd" d="M115.576 230.19C115.576 230.188 115.576 230.187 116.251 230.332C116.925 230.477 116.925 230.478 116.925 230.479L116.895 230.617C116.875 230.709 116.846 230.848 116.806 231.032C116.728 231.398 116.612 231.944 116.46 232.661C116.156 234.093 115.71 236.205 115.142 238.925C114.004 244.366 112.376 252.238 110.412 261.964C106.484 281.416 101.214 308.283 95.8456 337.939C85.1067 397.268 73.9858 467.711 72.4186 512.314L71.04 512.266C72.6111 467.55 83.7509 397.014 94.4882 337.694C99.8583 308.026 105.13 281.15 109.06 261.691C111.024 251.962 112.653 244.086 113.791 238.643C114.36 235.921 114.807 233.808 115.111 232.374C115.263 231.658 115.379 231.111 115.457 230.744C115.497 230.56 115.526 230.421 115.546 230.328L115.576 230.19Z" fill="#FFD166"/>
<path id="Vector (Stroke)_3" fill-rule="evenodd" clip-rule="evenodd" d="M131.985 230.912C131.986 230.91 131.986 230.909 132.666 231.022C133.347 231.134 133.347 231.134 133.346 231.136L133.324 231.274C133.308 231.368 133.285 231.508 133.255 231.693C133.194 232.063 133.105 232.614 132.987 233.336C132.753 234.781 132.408 236.912 131.97 239.658C131.093 245.151 129.838 253.103 128.329 262.94C125.31 282.614 121.272 309.827 117.197 339.982C109.045 400.305 100.749 472.359 100.146 519.402L98.7665 519.385C99.3706 472.247 107.679 400.115 115.83 339.797C119.907 309.632 123.946 282.411 126.965 262.731C128.475 252.891 129.73 244.936 130.608 239.441C131.046 236.693 131.391 234.561 131.626 233.115C131.743 232.392 131.833 231.841 131.894 231.47C131.924 231.285 131.947 231.145 131.962 231.051L131.985 230.912Z" fill="#FFD166"/>
<path id="Vector (Stroke)_4" fill-rule="evenodd" clip-rule="evenodd" d="M150.223 231.71C150.223 231.709 150.223 231.708 150.909 231.78C151.595 231.853 151.595 231.854 151.595 231.856L151.528 232.487C151.484 232.906 151.418 233.529 151.333 234.345C151.162 235.977 150.912 238.38 150.593 241.463C149.956 247.63 149.046 256.521 147.956 267.413C145.776 289.199 142.875 318.993 139.991 351.03C134.223 415.12 128.528 488.133 128.803 523.975L127.424 523.986C127.148 488.062 132.851 414.976 138.618 350.907C141.502 318.864 144.403 289.065 146.583 267.276C147.674 256.382 148.583 247.49 149.221 241.321C149.54 238.237 149.79 235.834 149.961 234.202C150.046 233.386 150.112 232.762 150.156 232.343L150.223 231.71Z" fill="#FFD166"/>
<path id="Vector (Stroke)_5" fill-rule="evenodd" clip-rule="evenodd" d="M168.36 232.503C168.36 232.502 168.36 232.501 169.049 232.539C169.738 232.577 169.738 232.578 169.737 232.579L169.706 233.155C169.685 233.538 169.654 234.107 169.613 234.853C169.532 236.345 169.414 238.546 169.264 241.381C168.964 247.049 168.538 255.251 168.034 265.383C167.027 285.648 165.71 313.633 164.466 344.517C161.979 406.292 159.79 479.639 160.979 525.997L159.6 526.033C158.41 479.623 160.6 406.233 163.088 344.461C164.331 313.572 165.65 285.582 166.657 265.315C167.16 255.181 167.586 246.978 167.886 241.308C168.036 238.473 168.155 236.271 168.236 234.778C168.276 234.032 168.307 233.463 168.328 233.08L168.36 232.503Z" fill="#FFD166"/>
<path id="Vector (Stroke)_6" fill-rule="evenodd" clip-rule="evenodd" d="M184.775 234.15C184.775 234.149 184.775 234.148 185.464 234.126C186.154 234.103 186.154 234.104 186.154 234.106L186.173 234.718C186.186 235.124 186.205 235.727 186.23 236.518C186.28 238.099 186.352 240.428 186.443 243.42C186.625 249.404 186.881 258.04 187.18 268.646C187.777 289.857 188.542 318.951 189.215 350.48C190.559 413.528 191.534 486.341 190.051 525.317L188.672 525.265C190.154 486.337 189.18 413.567 187.835 350.509C187.163 318.984 186.398 289.894 185.801 268.684C185.502 258.08 185.246 249.445 185.064 243.462C184.973 240.471 184.901 238.142 184.851 236.561C184.827 235.771 184.807 235.167 184.795 234.762L184.775 234.15Z" fill="#FFD166"/>
<path id="Vector (Stroke)_7" fill-rule="evenodd" clip-rule="evenodd" d="M202.469 234.02C202.469 234.018 202.469 234.018 203.155 233.953C203.842 233.889 203.842 233.89 203.842 233.891L203.857 234.053C203.868 234.163 203.883 234.326 203.903 234.541C203.943 234.972 204.002 235.612 204.08 236.45C204.235 238.125 204.461 240.59 204.748 243.749C205.321 250.068 206.134 259.162 207.096 270.267C209.02 292.478 211.537 322.732 213.913 354.909C218.662 419.235 222.849 491.328 220.569 522.135L219.193 522.033C221.465 491.351 217.289 419.378 212.537 355.011C210.162 322.841 207.645 292.593 205.722 270.386C204.76 259.283 203.947 250.191 203.374 243.874C203.087 240.716 202.861 238.251 202.706 236.577C202.629 235.74 202.569 235.1 202.529 234.669C202.509 234.454 202.494 234.291 202.484 234.182L202.469 234.02Z" fill="#FFD166"/>
<path id="Vector (Stroke)_8" fill-rule="evenodd" clip-rule="evenodd" d="M219.131 234.748C219.13 234.746 219.13 234.746 219.812 234.643C220.494 234.54 220.494 234.541 220.495 234.542L220.514 234.671C220.527 234.757 220.546 234.887 220.572 235.058C220.623 235.4 220.699 235.91 220.799 236.579C220.997 237.917 221.288 239.892 221.66 242.443C222.402 247.544 223.465 254.946 224.745 264.15C227.306 282.559 230.737 308.176 234.218 337.014C241.18 394.681 248.349 465.253 249.16 516.796L247.78 516.818C246.971 465.352 239.81 394.842 232.849 337.179C229.368 308.352 225.939 282.743 223.379 264.34C222.099 255.139 221.037 247.74 220.295 242.641C219.924 240.092 219.632 238.118 219.434 236.781C219.335 236.113 219.259 235.604 219.208 235.262C219.182 235.091 219.163 234.962 219.15 234.876L219.131 234.748Z" fill="#FFD166"/>
<g id="Group_85">
<g id="Group_86">
<path id="Vector_96" d="M168.049 88.6288C184.333 88.6288 197.535 75.4277 197.535 59.1432C197.535 42.8588 184.333 29.6577 168.049 29.6577C151.765 29.6577 138.564 42.8588 138.564 59.1432C138.564 75.4277 151.765 88.6288 168.049 88.6288Z" fill="#FFB9A6"/>
</g>
</g>
<g id="Group_87">
<g id="Group_88">
<path id="Vector_97" d="M173.394 54.488H138.564V116.908H173.394V54.488Z" fill="#FFB9A6"/>
</g>
</g>
<g id="Group_89">
<g id="Group_90">
<path id="Vector_98" d="M160.462 17.6916C160.462 17.6916 167.808 53.1777 209.087 57.454L222.054 45.1425L174.567 7.96655L160.462 17.6916Z" fill="#2D3640"/>
</g>
</g>
<g id="Group_91">
<g id="Group_92">
<path id="Vector_99" d="M44.2442 168.809C32.519 185.362 -1.38077 218.641 0.205582 259.783L45.2788 276.647L77.3508 207.088L44.2442 168.809Z" fill="#FFB9A6"/>
</g>
</g>
<g id="Group_93">
<g id="Group_94">
<path id="Vector_100" d="M138.564 103.906C112.389 112.183 69.0743 138.461 44.2444 168.809C44.2444 168.809 47.693 197.432 77.3509 207.433C77.3509 207.433 60.7287 232.918 57.625 257.059C57.625 257.059 79.8684 272.681 160.497 273.301C222.468 273.75 252.402 260.369 252.402 260.369C252.402 260.369 256.195 258.645 244.47 211.399C244.47 211.399 267.058 198.812 271.542 161.912C271.542 161.912 223.951 106.389 173.429 103.63C173.394 103.63 155.772 122.873 138.564 103.906Z" fill="#6FAFB7"/>
</g>
</g>
<g id="Group_95">
<g id="Group_96">
<path id="Vector_101" d="M202.707 110.7C203.742 105.872 217.536 112.079 218.571 118.977C219.295 123.77 230.089 194.949 237.193 206.916C243.745 217.951 249.815 202.605 259.816 198.812C269.817 195.018 294.267 310.788 294.405 317.719C294.888 346.481 241.676 349.929 235.848 328.548C234.193 322.444 233.089 316.237 231.365 293.476C229.641 270.715 222.088 222.745 218.433 207.088C214.777 191.432 200.845 119.287 202.707 110.7Z" fill="white"/>
<path id="Vector 70 (Stroke)" fill-rule="evenodd" clip-rule="evenodd" d="M268.76 252.081C273.191 251.137 277.647 250.507 279.917 250.255L280.083 251.745C277.853 251.993 273.447 252.616 269.073 253.548C266.885 254.015 264.718 254.556 262.839 255.162C260.946 255.773 259.405 256.432 258.43 257.114C257.497 257.768 256.969 259.212 256.977 261.396C256.984 263.532 257.508 266.152 258.399 268.825C259.288 271.493 260.529 274.172 261.94 276.422C263.36 278.687 264.911 280.449 266.393 281.361C268.834 282.864 272.933 283.729 277.137 284.078C281.319 284.424 285.444 284.246 287.853 283.765L288.147 285.235C285.556 285.754 281.281 285.926 277.013 285.572C272.767 285.221 268.366 284.336 265.607 282.639C263.839 281.551 262.14 279.563 260.669 277.219C259.189 274.859 257.899 272.07 256.976 269.3C256.055 266.535 255.485 263.749 255.477 261.401C255.469 259.1 256.003 256.982 257.57 255.886C258.734 255.071 260.449 254.357 262.379 253.734C264.323 253.107 266.544 252.554 268.76 252.081Z" fill="#FFD166"/>
</g>
</g>
<g id="Group_97">
<g id="Group_98">
<path id="Vector_102" d="M167.186 52.7637C167.945 52.7637 168.566 53.3844 168.566 54.1431V57.2469C168.566 58.0055 167.945 58.6263 167.186 58.6263C166.428 58.6263 165.807 58.0055 165.807 57.2469V54.1431C165.807 53.3844 166.428 52.7637 167.186 52.7637Z" fill="#2D3640"/>
</g>
</g>
<g id="Group_99">
<g id="Group_100">
<path id="Vector_103" d="M184.775 52.7637C185.534 52.7637 186.154 53.3844 186.154 54.1431V57.2469C186.154 58.0055 185.534 58.6263 184.775 58.6263C184.016 58.6263 183.395 58.0055 183.395 57.2469V54.1431C183.395 53.3844 184.016 52.7637 184.775 52.7637Z" fill="#2D3640"/>
</g>
</g>
<g id="Group_101">
<g id="Group_102">
<path id="Vector_104" d="M176.291 69.4204C173.842 69.4204 170.911 68.8686 167.566 67.2477C167.221 67.0753 167.083 66.6615 167.256 66.3166C167.428 65.9718 167.842 65.8338 168.187 66.0062C177.326 70.4549 183.085 66.2476 183.326 66.0752C183.636 65.8338 184.05 65.9028 184.292 66.2132C184.533 66.5235 184.464 66.9374 184.154 67.1788C183.981 67.3167 181.119 69.4204 176.291 69.4204Z" fill="#FE5A63"/>
</g>
</g>
<g id="Group_103">
<g id="Group_104">
<path id="Vector_105" d="M168.049 43.6246H163.911C163.531 43.6246 163.221 43.3142 163.221 42.9348C163.221 42.5555 163.531 42.2451 163.911 42.2451H168.049C168.428 42.2451 168.739 42.5555 168.739 42.9348C168.739 43.3142 168.428 43.6246 168.049 43.6246Z" fill="#2D3640"/>
</g>
</g>
<g id="Group_105">
<g id="Group_106">
<path id="Vector_106" d="M139.77 61.3851C142.913 61.3851 145.46 58.8376 145.46 55.695C145.46 52.5523 142.913 50.0048 139.77 50.0048C136.627 50.0048 134.08 52.5523 134.08 55.695C134.08 58.8376 136.627 61.3851 139.77 61.3851Z" fill="#FFB9A6"/>
</g>
</g>
<g id="Group_107">
<g id="Group_108">
<path id="Vector_107" d="M138.563 103.906C138.563 103.906 152.909 122.425 173.394 103.63C173.394 103.63 176.601 103.665 178.429 104.079C179.015 104.217 171.256 117.701 155.599 116.907C139.943 116.114 133.563 105.63 133.873 105.527C134.597 105.251 136.598 104.423 138.563 103.906Z" fill="#1C7C85"/>
</g>
</g>
<g id="Group_109">
<g id="Group_110">
<path id="Vector_108" d="M77.3505 207.434L80.3852 201.847C80.3852 201.847 58.0038 192.156 49.2099 163.05C49.2099 163.05 44.8302 167.43 44.2439 168.809C43.6576 170.189 49.4168 199.502 77.3505 207.434Z" fill="white"/>
</g>
</g>
<g id="Group_111">
<g id="Group_112">
<path id="Vector_109" d="M166.187 128.047C167.787 128.047 169.084 126.75 169.084 125.15C169.084 123.55 167.787 122.253 166.187 122.253C164.587 122.253 163.29 123.55 163.29 125.15C163.29 126.75 164.587 128.047 166.187 128.047Z" fill="white"/>
</g>
</g>
<g id="Group_113">
<g id="Group_114">
<path id="Vector_110" d="M166.187 139.978C167.787 139.978 169.084 138.682 169.084 137.082C169.084 135.482 167.787 134.185 166.187 134.185C164.587 134.185 163.29 135.482 163.29 137.082C163.29 138.682 164.587 139.978 166.187 139.978Z" fill="white"/>
</g>
</g>
<g id="Group_115">
<g id="Group_116">
<path id="Vector_111" d="M267.093 157.118C267.093 157.118 270.783 160.808 271.472 161.912C272.162 163.015 267.713 197.777 244.47 211.675C244.47 211.675 240.4 212.261 237.642 207.675C236.952 206.502 258.264 195.57 267.093 157.118Z" fill="#1C7C85"/>
</g>
</g>
<g id="Group_117">
<g id="Group_118">
<g id="Group_119">
<g id="Group_120">
<path id="Vector_112" d="M97.9393 167.912C97.3186 161.463 98.0083 155.808 99.9051 149.531C101.871 143.082 100.112 135.358 95.4564 132.012C92.9734 130.219 89.3178 127.495 86.3176 126.736C81.2826 125.46 75.42 126.357 71.0403 129.15C66.3847 132.15 64.0051 137.254 61.2807 141.875C59.0736 145.669 55.694 148.462 52.2109 151.014C49.5555 152.945 44.8309 155.946 43.348 158.98C39.7959 166.291 39.0372 173.016 42.6583 180.569C46.8656 189.328 55.4526 192.673 64.0741 195.846C68.2469 197.363 73.4198 198.329 77.8685 198.26C81.2826 198.191 84.6278 197.191 87.697 195.674C93.6976 192.742 99.3188 182.672 97.9393 167.912Z" fill="#FFD166"/>
</g>
</g>
<g id="Group_121">
<g id="Group_122">
<path id="Vector_113" d="M88.9044 132.116L86.18 130.943C85.4903 130.633 85.18 129.84 85.4558 129.15L92.4565 112.941C92.7669 112.252 93.5601 111.941 94.2498 112.217L96.9742 113.39C97.6639 113.7 97.9743 114.493 97.6984 115.183L90.6977 131.391C90.3873 132.116 89.5942 132.426 88.9044 132.116Z" fill="#3F494E"/>
</g>
</g>
<g id="Group_123">
<g id="Group_124">
<path id="Vector_114" d="M89.5249 130.392C88.2489 129.323 90.2491 127.047 91.0423 125.943C92.0424 124.529 93.6977 122.736 95.422 122.081C100.526 120.149 102.871 120.943 106.285 122.288C106.733 122.46 107.251 122.736 107.354 123.219C107.389 123.495 107.32 123.77 107.216 124.012C106.009 127.047 103.492 129.564 100.457 130.84C97.1118 132.289 93.1115 132.22 89.8698 130.599C89.7318 130.564 89.6284 130.495 89.5249 130.392Z" fill="#1C7C85"/>
</g>
</g>
</g>
<g id="Group_125">
<g id="Group_126">
<g id="Group_127">
<path id="Vector_115" d="M56.4522 159.325H54.2106C53.6243 159.325 53.176 158.842 53.176 158.29V143.358C53.176 142.772 53.6588 142.323 54.2106 142.323H56.4522C57.0385 142.323 57.4868 142.806 57.4868 143.358V158.29C57.5213 158.877 57.0385 159.325 56.4522 159.325Z" fill="#3F494E"/>
</g>
</g>
<g id="Group_128">
<g id="Group_129">
<path id="Vector_116" d="M80.9718 161.912C79.7993 155.704 73.6953 150.393 66.9015 150.98C66.2808 151.29 66.0739 151.876 65.8325 152.428C64.9358 154.394 63.4874 155.911 61.5217 156.808C59.9699 157.532 58.3145 157.877 56.6247 158.153C55.3142 158.36 54.659 157.739 53.8313 156.773C51.038 153.394 46.072 150.428 41.5543 151.049C38.0712 151.531 34.7606 153.601 32.588 156.359C27.9324 162.188 28.898 170.395 31.5534 176.879C33.3811 181.362 35.9331 185.362 40.1404 188.018C43.7959 190.328 47.6239 190.673 51.4863 188.362C52.8313 187.88 53.6589 186.604 55.1418 186.707C57.1075 186.811 58.5214 188.293 60.2457 188.983C62.0045 189.707 64.0392 189.776 65.9014 189.431C69.6259 188.707 72.8676 186.259 75.2472 183.362C79.9372 177.568 82.3513 169.326 80.9718 161.912Z" fill="#FE5A63"/>
</g>
</g>
<g id="Group_130">
<g id="Group_131">
<path id="Vector_117" d="M56.9005 158.325C55.4866 157.911 56.3143 155.359 56.5557 154.152C56.8661 152.635 57.5903 150.6 58.7628 149.462C62.2459 146.082 64.453 145.91 67.6947 145.807C68.143 145.807 68.6603 145.841 68.9017 146.22C69.0396 146.427 69.0396 146.669 69.0741 146.91C69.1431 149.807 67.9705 152.738 65.9704 154.842C63.7288 157.187 60.4871 158.566 57.2454 158.36C57.1075 158.36 57.004 158.325 56.9005 158.325Z" fill="#1C7C85"/>
</g>
</g>
</g>
<g id="Group_132">
<g id="Group_133">
<g id="Group_134">
<path id="Vector_118" d="M105.078 152.877L102.871 152.463C102.319 152.359 101.94 151.807 102.043 151.256L104.837 136.565C104.94 136.013 105.492 135.634 106.044 135.737L108.251 136.151C108.803 136.254 109.182 136.806 109.079 137.358L106.285 152.014C106.182 152.601 105.63 152.98 105.078 152.877Z" fill="#3F494E"/>
</g>
</g>
<g id="Group_135">
<g id="Group_136">
<path id="Vector_119" d="M128.632 160.015C128.667 153.704 123.666 147.324 116.873 146.6C116.217 146.773 115.907 147.324 115.528 147.842C114.252 149.6 112.596 150.807 110.493 151.359C108.837 151.773 107.148 151.807 105.423 151.739C104.078 151.704 103.561 150.98 102.94 149.842C100.837 145.979 96.526 142.151 91.9393 141.91C88.4217 141.738 84.8007 143.152 82.1108 145.428C76.4551 150.29 75.8688 158.532 77.2138 165.395C78.1449 170.154 79.9382 174.534 83.5592 177.948C86.7319 180.914 90.4219 181.983 94.6292 180.396C96.0431 180.189 97.0777 179.086 98.5261 179.465C100.423 179.948 101.561 181.672 103.113 182.672C104.734 183.707 106.699 184.19 108.596 184.19C112.39 184.19 116.045 182.362 118.907 179.983C124.735 175.189 128.598 167.533 128.632 160.015Z" fill="#FE5A63"/>
</g>
</g>
<g id="Group_137">
<g id="Group_138">
<path id="Vector_120" d="M105.699 151.945C104.389 151.256 105.665 148.91 106.147 147.807C106.768 146.393 107.837 144.496 109.217 143.6C113.251 140.944 115.459 141.186 118.666 141.703C119.114 141.772 119.597 141.91 119.769 142.324C119.873 142.531 119.838 142.806 119.804 143.048C119.321 145.91 117.631 148.566 115.286 150.255C112.665 152.152 109.182 152.876 106.044 152.083C105.906 152.014 105.803 151.98 105.699 151.945Z" fill="#1C7C85"/>
</g>
</g>
</g>
<g id="Group_139">
<g id="Group_140">
<path id="Vector_121" d="M27.7604 174.568C18.1388 174.051 14.2418 179.948 19.4492 187.018C25.3119 194.984 12.4141 264.715 20.7597 281.268C31.2779 302.132 112.01 301.477 130.908 283.372C141.426 273.302 129.391 193.294 134.012 187.639C138.633 181.983 137.495 172.878 115.976 174.189C94.4563 175.499 27.7604 174.568 27.7604 174.568Z" fill="white"/>
</g>
</g>
<g id="Group_141">
<g id="Group_142">
<g id="Group_143">
<path id="Vector_122" d="M107.112 271.336C92.9042 270.819 79.2478 265.956 66.9018 259.093C60.9702 255.783 54.9006 252.162 49.9347 247.506C45.417 243.264 41.658 237.126 41.8649 230.711C41.9684 227.746 43.7617 222.78 47.5896 224.021C51.1072 225.125 52.6591 230.436 53.2798 233.643C53.5557 235.057 55.4179 235.022 56.1077 234.022C59.1079 229.539 67.0742 227.539 70.9711 232.056C73.8335 235.367 69.3503 238.091 66.9018 239.712C63.7291 241.781 60.3839 243.678 56.9698 245.368C51.0037 248.299 44.3134 250.299 39.4854 255.059C35.6575 258.852 33.5883 264.197 33.3124 269.543C33.002 275.612 35.0712 281.716 39.313 286.13C40.6924 287.544 42.865 285.372 41.4856 283.958C37.3128 279.647 35.6575 273.371 36.5886 267.473C37.6232 260.921 41.658 256.266 47.3827 253.162C50.6933 251.369 54.2454 250.058 57.625 248.437C61.3495 246.678 64.9706 244.644 68.4192 242.368C71.0056 240.678 74.1783 238.712 74.868 235.436C75.4888 232.332 73.3851 229.539 70.8332 228.056C64.9361 224.676 57.1077 226.987 53.4177 232.47C54.3489 232.608 55.28 232.712 56.2456 232.85C55.5904 229.332 54.073 225.125 51.2796 222.676C48.6932 220.4 44.8652 220.021 42.2443 222.366C36.761 227.228 38.6922 235.815 41.5201 241.471C44.9342 248.368 51.3141 252.989 57.5906 257.059C64.6257 261.611 72.0402 265.577 79.8685 268.612C88.559 271.991 97.7323 274.06 107.078 274.44C109.113 274.474 109.113 271.405 107.112 271.336Z" fill="#FE5A63"/>
</g>
</g>
</g>
</g>
<g id="Group_144">
<g id="Group_145">
<path id="Vector_123" d="M0.205464 259.783C1.24004 265.197 4.34378 274.267 17.1381 277.785C72.4536 292.993 106.215 272.922 111.871 268.784C120.079 262.749 121.389 236.953 103.629 237.367C99.0768 237.47 87.1447 240.229 85.9377 237.367C84.4548 233.849 90.2139 228.021 86.6619 224.849C80.3854 219.193 71.6949 235.539 66.0392 238.264C52.4173 244.781 20.3453 242.505 19.1728 230.332C18.552 223.78 -2.27753 246.713 0.205464 259.783Z" fill="#FFB9A6"/>
</g>
</g>
<g id="Group_146">
<g id="Group_147">
<path id="Vector_124" d="M76.3503 194.432C55.3139 194.432 35.9328 192.742 27.5871 190.259C27.2078 190.156 27.0009 189.777 27.1388 189.397C27.2423 189.018 27.6216 188.811 28.001 188.949C35.4844 191.191 52.5205 192.777 71.4533 193.018C92.9036 193.294 113.181 191.811 127.079 188.949C127.459 188.88 127.803 189.121 127.907 189.501C127.976 189.88 127.734 190.225 127.355 190.328C112.974 193.225 94.0761 194.432 76.3503 194.432Z" fill="#FFD166"/>
</g>
</g>
<g id="Group_148">
<g id="Group_149">
<path id="Vector_125" d="M98.2491 249.541C97.9042 249.541 97.5939 249.265 97.5594 248.92C97.5249 248.541 97.8008 248.196 98.1801 248.161C108.285 247.127 114.458 242.54 114.526 242.471C114.837 242.23 115.251 242.299 115.492 242.609C115.733 242.919 115.665 243.333 115.354 243.575C115.078 243.781 108.836 248.437 98.3181 249.506C98.2836 249.541 98.2491 249.541 98.2491 249.541Z" fill="#FF9C85"/>
</g>
</g>
<g id="Group_150">
<g id="Group_151">
<path id="Vector_126" d="M100.698 256.404C100.353 256.404 100.043 256.128 100.008 255.783C99.9736 255.404 100.249 255.059 100.629 255.024C110.733 253.99 116.906 249.403 116.975 249.334C117.286 249.093 117.699 249.162 117.941 249.472C118.182 249.782 118.113 250.196 117.803 250.438C117.527 250.645 111.285 255.3 100.767 256.369C100.732 256.404 100.732 256.404 100.698 256.404Z" fill="#FF9C85"/>
</g>
</g>
<g id="Group_152">
<g id="Group_153">
<path id="Vector_127" d="M100.974 263.991C100.629 263.991 100.318 263.715 100.284 263.37C100.249 262.991 100.525 262.646 100.905 262.611C111.044 261.577 117.182 256.99 117.251 256.921C117.561 256.68 117.975 256.749 118.217 257.059C118.458 257.369 118.389 257.783 118.079 258.025C117.803 258.232 111.561 262.887 101.043 263.956C101.008 263.991 100.974 263.991 100.974 263.991Z" fill="#FF9C85"/>
</g>
</g>
<path id="Vector_128" d="M403.76 146.842C394.76 142.807 375.172 142.048 360.894 152.808C347.134 163.222 316.511 195.329 300.544 191.811C282.611 187.88 275.059 171.189 269.403 164.809C263.506 178.431 252.781 199.26 243.401 209.02C257.333 222.09 284.784 237.126 302.544 236.022C334.444 234.022 353.101 211.365 354.514 209.916C357.963 206.399 374.206 189.984 386 193.329C392.484 195.156 399.312 190.156 390.483 184.362C378.482 176.5 398.243 171.465 406.726 169.12C414.279 167.05 418.727 153.532 403.76 146.842Z" fill="#FFB9A6"/>
<path id="Vector (Stroke)_9" fill-rule="evenodd" clip-rule="evenodd" d="M409.595 160.191C410.86 160.411 412.147 160.635 413.485 160.813C413.768 160.851 413.967 161.111 413.93 161.394C413.892 161.677 413.632 161.876 413.349 161.839C411.988 161.657 410.68 161.43 409.416 161.21C409.227 161.177 409.038 161.144 408.851 161.112C407.408 160.863 406.022 160.634 404.65 160.5C401.916 160.233 399.261 160.346 396.428 161.43C396.161 161.532 395.862 161.398 395.76 161.131C395.658 160.864 395.791 160.565 396.058 160.463C399.088 159.305 401.916 159.194 404.751 159.47C406.164 159.608 407.584 159.843 409.027 160.093C409.216 160.125 409.405 160.158 409.595 160.191Z" fill="#FF9C85"/>
<path id="Vector (Stroke)_10" fill-rule="evenodd" clip-rule="evenodd" d="M396.424 154.421C401.22 152.822 408.061 153.47 413.063 154.755C413.34 154.826 413.506 155.108 413.435 155.385C413.364 155.662 413.082 155.828 412.806 155.757C407.876 154.49 401.267 153.897 396.752 155.402C396.481 155.492 396.188 155.346 396.097 155.075C396.007 154.804 396.153 154.511 396.424 154.421Z" fill="#FF9C85"/>
<path id="Vector (Stroke)_11" fill-rule="evenodd" clip-rule="evenodd" d="M408.436 149.907C408.96 150.034 409.466 150.157 409.948 150.269C410.226 150.334 410.399 150.612 410.334 150.891C410.269 151.169 409.991 151.342 409.713 151.277C409.214 151.16 408.696 151.035 408.164 150.906C406.469 150.495 404.632 150.049 402.799 149.753C400.388 149.364 398.066 149.25 396.178 149.788C395.903 149.866 395.617 149.706 395.539 149.432C395.46 149.157 395.62 148.871 395.895 148.793C398.006 148.192 400.512 148.336 402.964 148.732C404.841 149.035 406.734 149.494 408.436 149.907Z" fill="#FF9C85"/>
<g id="Group_154">
<g id="Group_155">
<path id="Vector_129" d="M267.093 157.118C267.093 157.118 270.783 160.808 271.472 161.912C272.162 163.015 267.713 197.777 244.47 211.675C244.47 211.675 240.4 212.261 237.642 207.675C236.952 206.502 258.264 195.57 267.093 157.118Z" fill="#1C7C85"/>
</g>
</g>
</g>
</g>
</g>
</svg>
