<svg width="318" height="36" viewBox="0 0 318 36" fill="none" xmlns="http://www.w3.org/2000/svg">
<path d="M158.818 10.875V13.4336H160.791V14.8301H158.818V21.3828C158.818 21.806 158.906 22.125 159.082 22.3398C159.258 22.5482 159.557 22.6523 159.98 22.6523C160.189 22.6523 160.475 22.6133 160.84 22.5352V24C160.365 24.1302 159.902 24.1953 159.453 24.1953C158.646 24.1953 158.037 23.9512 157.627 23.4629C157.217 22.9746 157.012 22.2812 157.012 21.3828V14.8301H155.088V13.4336H157.012V10.875H158.818ZM162.236 18.6191C162.236 17.584 162.438 16.653 162.842 15.8262C163.252 14.9993 163.818 14.3613 164.541 13.9121C165.27 13.4629 166.1 13.2383 167.031 13.2383C168.47 13.2383 169.632 13.7363 170.518 14.7324C171.41 15.7285 171.855 17.0534 171.855 18.707V18.834C171.855 19.8626 171.657 20.7871 171.26 21.6074C170.869 22.4212 170.306 23.056 169.57 23.5117C168.841 23.9674 168.001 24.1953 167.051 24.1953C165.618 24.1953 164.456 23.6973 163.564 22.7012C162.679 21.7051 162.236 20.3867 162.236 18.7461V18.6191ZM164.053 18.834C164.053 20.0059 164.323 20.9466 164.863 21.6562C165.41 22.3659 166.139 22.7207 167.051 22.7207C167.969 22.7207 168.698 22.3626 169.238 21.6465C169.779 20.9238 170.049 19.9147 170.049 18.6191C170.049 17.4603 169.772 16.5228 169.219 15.8066C168.672 15.084 167.943 14.7227 167.031 14.7227C166.139 14.7227 165.42 15.0775 164.873 15.7871C164.326 16.4967 164.053 17.5124 164.053 18.834ZM180.781 13.4336L180.83 14.6055C181.605 13.694 182.65 13.2383 183.965 13.2383C185.443 13.2383 186.449 13.8047 186.982 14.9375C187.334 14.4297 187.79 14.0195 188.35 13.707C188.916 13.3945 189.583 13.2383 190.352 13.2383C192.669 13.2383 193.848 14.4655 193.887 16.9199V24H192.08V17.0273C192.08 16.2721 191.908 15.709 191.562 15.3379C191.217 14.9603 190.638 14.7715 189.824 14.7715C189.154 14.7715 188.597 14.9733 188.154 15.377C187.712 15.7741 187.454 16.3112 187.383 16.9883V24H185.566V17.0762C185.566 15.5397 184.814 14.7715 183.311 14.7715C182.126 14.7715 181.315 15.276 180.879 16.2852V24H179.072V13.4336H180.781ZM196.143 18.6191C196.143 17.584 196.344 16.653 196.748 15.8262C197.158 14.9993 197.725 14.3613 198.447 13.9121C199.176 13.4629 200.007 13.2383 200.938 13.2383C202.376 13.2383 203.538 13.7363 204.424 14.7324C205.316 15.7285 205.762 17.0534 205.762 18.707V18.834C205.762 19.8626 205.563 20.7871 205.166 21.6074C204.775 22.4212 204.212 23.056 203.477 23.5117C202.747 23.9674 201.908 24.1953 200.957 24.1953C199.525 24.1953 198.363 23.6973 197.471 22.7012C196.585 21.7051 196.143 20.3867 196.143 18.7461V18.6191ZM197.959 18.834C197.959 20.0059 198.229 20.9466 198.77 21.6562C199.316 22.3659 200.046 22.7207 200.957 22.7207C201.875 22.7207 202.604 22.3626 203.145 21.6465C203.685 20.9238 203.955 19.9147 203.955 18.6191C203.955 17.4603 203.678 16.5228 203.125 15.8066C202.578 15.084 201.849 14.7227 200.938 14.7227C200.046 14.7227 199.326 15.0775 198.779 15.7871C198.232 16.4967 197.959 17.5124 197.959 18.834ZM211.357 21.5488L213.975 13.4336H215.82L212.031 24H210.654L206.826 13.4336H208.672L211.357 21.5488ZM221.807 24.1953C220.374 24.1953 219.209 23.7266 218.311 22.7891C217.412 21.8451 216.963 20.5853 216.963 19.0098V18.6777C216.963 17.6296 217.161 16.6953 217.559 15.875C217.962 15.0482 218.522 14.4036 219.238 13.9414C219.961 13.4727 220.742 13.2383 221.582 13.2383C222.956 13.2383 224.023 13.6908 224.785 14.5957C225.547 15.5007 225.928 16.7962 225.928 18.4824V19.2344H218.77C218.796 20.276 219.098 21.1191 219.678 21.7637C220.264 22.4017 221.006 22.7207 221.904 22.7207C222.542 22.7207 223.083 22.5905 223.525 22.3301C223.968 22.0697 224.355 21.7246 224.688 21.2949L225.791 22.1543C224.906 23.515 223.577 24.1953 221.807 24.1953ZM221.582 14.7227C220.853 14.7227 220.241 14.9896 219.746 15.5234C219.251 16.0508 218.945 16.793 218.828 17.75H224.121V17.6133C224.069 16.6953 223.822 15.9857 223.379 15.4844C222.936 14.9766 222.337 14.7227 221.582 14.7227ZM238.096 15.0547C237.822 15.0091 237.526 14.9863 237.207 14.9863C236.022 14.9863 235.218 15.4909 234.795 16.5V24H232.988V13.4336H234.746L234.775 14.6543C235.368 13.7103 236.208 13.2383 237.295 13.2383C237.646 13.2383 237.913 13.2839 238.096 13.375V15.0547ZM241.729 24H239.922V13.4336H241.729V24ZM239.775 10.6309C239.775 10.3379 239.863 10.0905 240.039 9.88867C240.221 9.68685 240.488 9.58594 240.84 9.58594C241.191 9.58594 241.458 9.68685 241.641 9.88867C241.823 10.0905 241.914 10.3379 241.914 10.6309C241.914 10.9238 241.823 11.168 241.641 11.3633C241.458 11.5586 241.191 11.6562 240.84 11.6562C240.488 11.6562 240.221 11.5586 240.039 11.3633C239.863 11.168 239.775 10.9238 239.775 10.6309ZM244.199 18.6289C244.199 16.9818 244.58 15.6732 245.342 14.7031C246.104 13.7266 247.113 13.2383 248.369 13.2383C249.658 13.2383 250.664 13.694 251.387 14.6055L251.475 13.4336H253.125V23.7461C253.125 25.1133 252.718 26.1908 251.904 26.9785C251.097 27.7663 250.01 28.1602 248.643 28.1602C247.881 28.1602 247.135 27.9974 246.406 27.6719C245.677 27.3464 245.12 26.9004 244.736 26.334L245.674 25.25C246.449 26.207 247.396 26.6855 248.516 26.6855C249.395 26.6855 250.078 26.4382 250.566 25.9434C251.061 25.4486 251.309 24.752 251.309 23.8535V22.9453C250.586 23.7786 249.6 24.1953 248.35 24.1953C247.113 24.1953 246.11 23.6973 245.342 22.7012C244.58 21.7051 244.199 20.3477 244.199 18.6289ZM246.016 18.834C246.016 20.0254 246.26 20.9629 246.748 21.6465C247.236 22.3236 247.92 22.6621 248.799 22.6621C249.938 22.6621 250.775 22.1445 251.309 21.1094V16.2852C250.755 15.276 249.925 14.7715 248.818 14.7715C247.939 14.7715 247.253 15.1133 246.758 15.7969C246.263 16.4805 246.016 17.4928 246.016 18.834ZM257.666 14.7129C258.467 13.7298 259.508 13.2383 260.791 13.2383C263.024 13.2383 264.15 14.498 264.17 17.0176V24H262.363V17.0078C262.357 16.2461 262.181 15.6829 261.836 15.3184C261.497 14.9538 260.967 14.7715 260.244 14.7715C259.658 14.7715 259.144 14.9277 258.701 15.2402C258.258 15.5527 257.913 15.9629 257.666 16.4707V24H255.859V9H257.666V14.7129ZM269.326 10.875V13.4336H271.299V14.8301H269.326V21.3828C269.326 21.806 269.414 22.125 269.59 22.3398C269.766 22.5482 270.065 22.6523 270.488 22.6523C270.697 22.6523 270.983 22.6133 271.348 22.5352V24C270.872 24.1302 270.41 24.1953 269.961 24.1953C269.154 24.1953 268.545 23.9512 268.135 23.4629C267.725 22.9746 267.52 22.2812 267.52 21.3828V14.8301H265.596V13.4336H267.52V10.875H269.326Z" fill="black"/>
<path d="M5.83984 17.6621C4.23177 17.1999 3.0599 16.6335 2.32422 15.9629C1.59505 15.2858 1.23047 14.4525 1.23047 13.4629C1.23047 12.3431 1.67643 11.4186 2.56836 10.6895C3.4668 9.95378 4.63216 9.58594 6.06445 9.58594C7.04102 9.58594 7.91016 9.77474 8.67188 10.1523C9.4401 10.5299 10.0326 11.0508 10.4492 11.7148C10.8724 12.3789 11.084 13.1048 11.084 13.8926H9.19922C9.19922 13.0332 8.92578 12.3594 8.37891 11.8711C7.83203 11.3763 7.06055 11.1289 6.06445 11.1289C5.13997 11.1289 4.41732 11.334 3.89648 11.7441C3.38216 12.1478 3.125 12.7109 3.125 13.4336C3.125 14.013 3.36914 14.5046 3.85742 14.9082C4.35221 15.3053 5.1888 15.6699 6.36719 16.002C7.55208 16.334 8.47656 16.7018 9.14062 17.1055C9.8112 17.5026 10.306 17.9681 10.625 18.502C10.9505 19.0358 11.1133 19.6641 11.1133 20.3867C11.1133 21.5391 10.6641 22.4635 9.76562 23.1602C8.86719 23.8503 7.66602 24.1953 6.16211 24.1953C5.18555 24.1953 4.27409 24.0098 3.42773 23.6387C2.58138 23.2611 1.92708 22.7467 1.46484 22.0957C1.00911 21.4447 0.78125 20.7057 0.78125 19.8789H2.66602C2.66602 20.7383 2.98177 21.4186 3.61328 21.9199C4.2513 22.4147 5.10091 22.6621 6.16211 22.6621C7.15169 22.6621 7.91016 22.4603 8.4375 22.0566C8.96484 21.653 9.22852 21.1029 9.22852 20.4062C9.22852 19.7096 8.98438 19.1725 8.49609 18.7949C8.00781 18.4108 7.1224 18.0332 5.83984 17.6621ZM17.4805 22.7207C18.125 22.7207 18.6882 22.5254 19.1699 22.1348C19.6517 21.7441 19.9186 21.2559 19.9707 20.6699H21.6797C21.6471 21.2754 21.4388 21.8516 21.0547 22.3984C20.6706 22.9453 20.1562 23.3815 19.5117 23.707C18.8737 24.0326 18.1966 24.1953 17.4805 24.1953C16.0417 24.1953 14.8958 23.7168 14.043 22.7598C13.1966 21.7962 12.7734 20.4811 12.7734 18.8145V18.5117C12.7734 17.4831 12.9622 16.5684 13.3398 15.7676C13.7174 14.9668 14.2578 14.3451 14.9609 13.9023C15.6706 13.4596 16.5072 13.2383 17.4707 13.2383C18.6556 13.2383 19.6387 13.5931 20.4199 14.3027C21.2077 15.0124 21.6276 15.9336 21.6797 17.0664H19.9707C19.9186 16.3828 19.6582 15.8229 19.1895 15.3867C18.7272 14.944 18.1543 14.7227 17.4707 14.7227C16.5527 14.7227 15.8398 15.0547 15.332 15.7188C14.8307 16.3763 14.5801 17.3301 14.5801 18.5801V18.9219C14.5801 20.1393 14.8307 21.0768 15.332 21.7344C15.8333 22.3919 16.5495 22.7207 17.4805 22.7207ZM28.8184 15.0547C28.5449 15.0091 28.2487 14.9863 27.9297 14.9863C26.7448 14.9863 25.9408 15.4909 25.5176 16.5V24H23.7109V13.4336H25.4688L25.498 14.6543C26.0905 13.7103 26.9303 13.2383 28.0176 13.2383C28.3691 13.2383 28.6361 13.2839 28.8184 13.375V15.0547ZM29.8145 18.6191C29.8145 17.584 30.0163 16.653 30.4199 15.8262C30.8301 14.9993 31.3965 14.3613 32.1191 13.9121C32.8483 13.4629 33.6784 13.2383 34.6094 13.2383C36.0482 13.2383 37.2103 13.7363 38.0957 14.7324C38.9876 15.7285 39.4336 17.0534 39.4336 18.707V18.834C39.4336 19.8626 39.235 20.7871 38.8379 21.6074C38.4473 22.4212 37.8841 23.056 37.1484 23.5117C36.4193 23.9674 35.5794 24.1953 34.6289 24.1953C33.1966 24.1953 32.0345 23.6973 31.1426 22.7012C30.2572 21.7051 29.8145 20.3867 29.8145 18.7461V18.6191ZM31.6309 18.834C31.6309 20.0059 31.901 20.9466 32.4414 21.6562C32.9883 22.3659 33.7174 22.7207 34.6289 22.7207C35.5469 22.7207 36.276 22.3626 36.8164 21.6465C37.3568 20.9238 37.627 19.9147 37.627 18.6191C37.627 17.4603 37.3503 16.5228 36.7969 15.8066C36.25 15.084 35.5208 14.7227 34.6094 14.7227C33.7174 14.7227 32.998 15.0775 32.4512 15.7871C31.9043 16.4967 31.6309 17.5124 31.6309 18.834ZM43.6621 24H41.8555V9H43.6621V24ZM48.5254 24H46.7188V9H48.5254V24ZM55.9473 18.6289C55.9473 17.0078 56.3314 15.7057 57.0996 14.7227C57.8678 13.7331 58.8737 13.2383 60.1172 13.2383C61.3542 13.2383 62.334 13.6615 63.0566 14.5078V9H64.8633V24H63.2031L63.1152 22.8672C62.3926 23.7526 61.3867 24.1953 60.0977 24.1953C58.8737 24.1953 57.8743 23.694 57.0996 22.6914C56.3314 21.6888 55.9473 20.3802 55.9473 18.7656V18.6289ZM57.7539 18.834C57.7539 20.0319 58.0013 20.9694 58.4961 21.6465C58.9909 22.3236 59.6745 22.6621 60.5469 22.6621C61.6927 22.6621 62.5293 22.1478 63.0566 21.1191V16.2656C62.5163 15.2695 61.6862 14.7715 60.5664 14.7715C59.681 14.7715 58.9909 15.1133 58.4961 15.7969C58.0013 16.4805 57.7539 17.4928 57.7539 18.834ZM67.1973 18.6191C67.1973 17.584 67.3991 16.653 67.8027 15.8262C68.2129 14.9993 68.7793 14.3613 69.502 13.9121C70.2311 13.4629 71.0612 13.2383 71.9922 13.2383C73.431 13.2383 74.5931 13.7363 75.4785 14.7324C76.3704 15.7285 76.8164 17.0534 76.8164 18.707V18.834C76.8164 19.8626 76.6178 20.7871 76.2207 21.6074C75.8301 22.4212 75.2669 23.056 74.5312 23.5117C73.8021 23.9674 72.9622 24.1953 72.0117 24.1953C70.5794 24.1953 69.4173 23.6973 68.5254 22.7012C67.64 21.7051 67.1973 20.3867 67.1973 18.7461V18.6191ZM69.0137 18.834C69.0137 20.0059 69.2839 20.9466 69.8242 21.6562C70.3711 22.3659 71.1003 22.7207 72.0117 22.7207C72.9297 22.7207 73.6589 22.3626 74.1992 21.6465C74.7396 20.9238 75.0098 19.9147 75.0098 18.6191C75.0098 17.4603 74.7331 16.5228 74.1797 15.8066C73.6328 15.084 72.9036 14.7227 71.9922 14.7227C71.1003 14.7227 70.3809 15.0775 69.834 15.7871C69.2871 16.4967 69.0137 17.5124 69.0137 18.834ZM88.4375 21.5098L90.4688 13.4336H92.2754L89.1992 24H87.7344L85.166 15.9922L82.666 24H81.2012L78.1348 13.4336H79.9316L82.0117 21.3438L84.4727 13.4336H85.9277L88.4375 21.5098ZM95.8301 13.4336L95.8887 14.7617C96.696 13.7461 97.7507 13.2383 99.0527 13.2383C101.286 13.2383 102.412 14.498 102.432 17.0176V24H100.625V17.0078C100.618 16.2461 100.443 15.6829 100.098 15.3184C99.7591 14.9538 99.2285 14.7715 98.5059 14.7715C97.9199 14.7715 97.4056 14.9277 96.9629 15.2402C96.5202 15.5527 96.1751 15.9629 95.9277 16.4707V24H94.1211V13.4336H95.8301Z" fill="black"/>
<rect x="125" y="1" width="9" height="20" rx="4" fill="#81C7CF"/>
<path d="M120.433 11C117.246 11 115.339 14.544 117.094 17.2034L126.162 30.9418C127.743 33.3373 131.257 33.3373 132.838 30.9418L141.906 17.2034C143.661 14.544 141.754 11 138.567 11H129.5H120.433Z" fill="#81C7CF"/>
<rect x="283" y="21" width="9" height="20" rx="4" transform="rotate(-90 283 21)" fill="#FE5A63"/>
<path d="M293 25.5673C293 28.7537 296.544 30.661 299.203 28.9058L312.942 19.8384C315.337 18.2574 315.337 14.7426 312.942 13.1616L299.203 4.09423C296.544 2.33902 293 4.24626 293 7.43266L293 16.5L293 25.5673Z" fill="#FE5A63"/>
</svg>
