<svg width="51" height="73" viewBox="0 0 51 73" fill="none" xmlns="http://www.w3.org/2000/svg">
<path d="M5.83984 13.6621C4.23177 13.1999 3.0599 12.6335 2.32422 11.9629C1.59505 11.2858 1.23047 10.4525 1.23047 9.46289C1.23047 8.3431 1.67643 7.41862 2.56836 6.68945C3.4668 5.95378 4.63216 5.58594 6.06445 5.58594C7.04102 5.58594 7.91016 5.77474 8.67188 6.15234C9.4401 6.52995 10.0326 7.05078 10.4492 7.71484C10.8724 8.37891 11.084 9.10482 11.084 9.89258H9.19922C9.19922 9.0332 8.92578 8.35938 8.37891 7.87109C7.83203 7.3763 7.06055 7.12891 6.06445 7.12891C5.13997 7.12891 4.41732 7.33398 3.89648 7.74414C3.38216 8.14779 3.125 8.71094 3.125 9.43359C3.125 10.013 3.36914 10.5046 3.85742 10.9082C4.35221 11.3053 5.1888 11.6699 6.36719 12.002C7.55208 12.334 8.47656 12.7018 9.14062 13.1055C9.8112 13.5026 10.306 13.9681 10.625 14.502C10.9505 15.0358 11.1133 15.6641 11.1133 16.3867C11.1133 17.5391 10.6641 18.4635 9.76562 19.1602C8.86719 19.8503 7.66602 20.1953 6.16211 20.1953C5.18555 20.1953 4.27409 20.0098 3.42773 19.6387C2.58138 19.2611 1.92708 18.7467 1.46484 18.0957C1.00911 17.4447 0.78125 16.7057 0.78125 15.8789H2.66602C2.66602 16.7383 2.98177 17.4186 3.61328 17.9199C4.2513 18.4147 5.10091 18.6621 6.16211 18.6621C7.15169 18.6621 7.91016 18.4603 8.4375 18.0566C8.96484 17.653 9.22852 17.1029 9.22852 16.4062C9.22852 15.7096 8.98438 15.1725 8.49609 14.7949C8.00781 14.4108 7.1224 14.0332 5.83984 13.6621ZM17.4805 18.7207C18.125 18.7207 18.6882 18.5254 19.1699 18.1348C19.6517 17.7441 19.9186 17.2559 19.9707 16.6699H21.6797C21.6471 17.2754 21.4388 17.8516 21.0547 18.3984C20.6706 18.9453 20.1562 19.3815 19.5117 19.707C18.8737 20.0326 18.1966 20.1953 17.4805 20.1953C16.0417 20.1953 14.8958 19.7168 14.043 18.7598C13.1966 17.7962 12.7734 16.4811 12.7734 14.8145V14.5117C12.7734 13.4831 12.9622 12.5684 13.3398 11.7676C13.7174 10.9668 14.2578 10.3451 14.9609 9.90234C15.6706 9.45964 16.5072 9.23828 17.4707 9.23828C18.6556 9.23828 19.6387 9.5931 20.4199 10.3027C21.2077 11.0124 21.6276 11.9336 21.6797 13.0664H19.9707C19.9186 12.3828 19.6582 11.8229 19.1895 11.3867C18.7272 10.944 18.1543 10.7227 17.4707 10.7227C16.5527 10.7227 15.8398 11.0547 15.332 11.7188C14.8307 12.3763 14.5801 13.3301 14.5801 14.5801V14.9219C14.5801 16.1393 14.8307 17.0768 15.332 17.7344C15.8333 18.3919 16.5495 18.7207 17.4805 18.7207ZM28.8184 11.0547C28.5449 11.0091 28.2487 10.9863 27.9297 10.9863C26.7448 10.9863 25.9408 11.4909 25.5176 12.5V20H23.7109V9.43359H25.4688L25.498 10.6543C26.0905 9.71029 26.9303 9.23828 28.0176 9.23828C28.3691 9.23828 28.6361 9.28385 28.8184 9.375V11.0547ZM29.8145 14.6191C29.8145 13.584 30.0163 12.653 30.4199 11.8262C30.8301 10.9993 31.3965 10.3613 32.1191 9.91211C32.8483 9.46289 33.6784 9.23828 34.6094 9.23828C36.0482 9.23828 37.2103 9.73633 38.0957 10.7324C38.9876 11.7285 39.4336 13.0534 39.4336 14.707V14.834C39.4336 15.8626 39.235 16.7871 38.8379 17.6074C38.4473 18.4212 37.8841 19.056 37.1484 19.5117C36.4193 19.9674 35.5794 20.1953 34.6289 20.1953C33.1966 20.1953 32.0345 19.6973 31.1426 18.7012C30.2572 17.7051 29.8145 16.3867 29.8145 14.7461V14.6191ZM31.6309 14.834C31.6309 16.0059 31.901 16.9466 32.4414 17.6562C32.9883 18.3659 33.7174 18.7207 34.6289 18.7207C35.5469 18.7207 36.276 18.3626 36.8164 17.6465C37.3568 16.9238 37.627 15.9147 37.627 14.6191C37.627 13.4603 37.3503 12.5228 36.7969 11.8066C36.25 11.084 35.5208 10.7227 34.6094 10.7227C33.7174 10.7227 32.998 11.0775 32.4512 11.7871C31.9043 12.4967 31.6309 13.5124 31.6309 14.834ZM43.6621 20H41.8555V5H43.6621V20ZM48.5254 20H46.7188V5H48.5254V20Z" fill="black"/>
<rect x="21" y="38" width="9" height="20" rx="4" fill="#81C7CF"/>
<path d="M16.4327 48C13.2463 48 11.339 51.544 13.0942 54.2034L22.1616 67.9418C23.7426 70.3373 27.2574 70.3373 28.8384 67.9418L37.9058 54.2034C39.661 51.544 37.7537 48 34.5673 48H25.5H16.4327Z" fill="#81C7CF"/>
</svg>
