<svg width="454" height="29" viewBox="0 0 454 29" fill="none" xmlns="http://www.w3.org/2000/svg">
<path d="M7.5833 5.45244V22.1717H4.66736V5.45244H0.224609V2.68903H12.0135V5.45244H7.5833Z" fill="#2D3640"/>
<path d="M15.36 0.859375H18.1758V10.9035C19.177 9.99502 20.2825 9.54076 21.4922 9.54076C22.8689 9.54076 23.9702 9.99082 24.7961 10.8909C25.497 11.6733 25.8474 12.9225 25.8474 14.6386V22.1717H23.0315V14.9035C23.0315 13.9193 22.8563 13.2085 22.5059 12.771C22.1639 12.3252 21.609 12.1023 20.8415 12.1023C19.857 12.1023 19.1645 12.4093 18.764 13.0234C18.3719 13.6459 18.1758 14.7143 18.1758 16.2285V22.1717H15.36V0.859375Z" fill="#2D3640"/>
<path d="M41.8087 16.6953H33.0734C33.1485 17.7048 33.4739 18.5082 34.0496 19.1054C34.6252 19.6943 35.3636 19.9887 36.2647 19.9887C36.9655 19.9887 37.5454 19.8205 38.0042 19.484C38.4548 19.1475 38.9679 18.525 39.5435 17.6165L41.9214 18.954C41.5543 19.5849 41.1663 20.1275 40.7575 20.5818C40.3487 21.0276 39.9106 21.3978 39.4434 21.6922C38.9762 21.9782 38.4714 22.1885 37.9291 22.3231C37.3868 22.4577 36.7986 22.525 36.1646 22.525C34.3457 22.525 32.8857 21.9361 31.7844 20.7584C30.6831 19.5723 30.1324 17.9992 30.1324 16.0392C30.1324 14.096 30.6664 12.5229 31.7343 11.3199C32.8106 10.1338 34.2373 9.54076 36.0144 9.54076C37.8082 9.54076 39.2265 10.117 40.2694 11.2695C41.304 12.4135 41.8212 13.9992 41.8212 16.0266L41.8087 16.6953ZM38.9178 14.3736C38.5257 12.8594 37.5787 12.1023 36.077 12.1023C35.7349 12.1023 35.4137 12.157 35.1133 12.2663C34.813 12.3673 34.5376 12.5187 34.2873 12.7206C34.0454 12.9141 33.8368 13.1496 33.6616 13.4272C33.4864 13.7048 33.3529 14.0203 33.2611 14.3736H38.9178Z" fill="#2D3640"/>
<path d="M61.2417 5.45244V22.1717H58.3257V5.45244H53.883V2.68903H65.6719V5.45244H61.2417Z" fill="#2D3640"/>
<path d="M76.9277 9.88146H79.756V22.1717H76.9277V20.8846C75.768 21.9782 74.5207 22.525 73.1858 22.525C71.5005 22.525 70.1071 21.9109 69.0058 20.6827C67.9129 19.4293 67.3664 17.8646 67.3664 15.9887C67.3664 14.1464 67.9129 12.6112 69.0058 11.383C70.0988 10.1549 71.4671 9.54076 73.1107 9.54076C74.529 9.54076 75.8014 10.1296 76.9277 11.3073V9.88146ZM70.2448 15.9887C70.2448 17.1664 70.5577 18.1254 71.1834 18.8657C71.8258 19.6144 72.6351 19.9887 73.6113 19.9887C74.6542 19.9887 75.4968 19.627 76.1393 18.9035C76.7817 18.1549 77.1029 17.2043 77.1029 16.0518C77.1029 14.8993 76.7817 13.9488 76.1393 13.2001C75.4968 12.4682 74.6625 12.1023 73.6363 12.1023C72.6685 12.1023 71.8592 12.4724 71.2084 13.2127C70.566 13.9614 70.2448 14.8867 70.2448 15.9887Z" fill="#2D3640"/>
<path d="M87.4076 9.88146V22.1717H84.5918V9.88146H87.4076ZM84.1662 4.77105C84.1662 4.27473 84.3456 3.84571 84.7044 3.48398C85.0631 3.12226 85.4928 2.94139 85.9934 2.94139C86.5023 2.94139 86.9362 3.12226 87.2949 3.48398C87.6537 3.83729 87.8331 4.27052 87.8331 4.78367C87.8331 5.29681 87.6537 5.73424 87.2949 6.09597C86.9445 6.45769 86.5149 6.63856 86.0059 6.63856C85.497 6.63856 85.0631 6.45769 84.7044 6.09597C84.3456 5.73424 84.1662 5.2926 84.1662 4.77105Z" fill="#2D3640"/>
<path d="M95.0716 28.8594H92.2558V9.88146H95.0716V11.219C96.1813 10.1002 97.4411 9.54076 98.8511 9.54076C100.528 9.54076 101.909 10.1633 102.993 11.4083C104.095 12.6449 104.645 14.2053 104.645 16.0897C104.645 17.9319 104.099 19.4672 103.006 20.6953C101.921 21.9151 100.553 22.525 98.9011 22.525C97.4745 22.525 96.198 21.9488 95.0716 20.7963V28.8594ZM101.767 16.1023C101.767 14.9246 101.45 13.9656 100.816 13.2253C100.173 12.4766 99.3642 12.1023 98.388 12.1023C97.3535 12.1023 96.515 12.464 95.8726 13.1875C95.2301 13.9109 94.9089 14.8615 94.9089 16.0392C94.9089 17.1917 95.2301 18.1422 95.8726 18.8909C96.5067 19.6228 97.341 19.9887 98.3755 19.9887C99.3517 19.9887 100.157 19.6186 100.791 18.8783C101.442 18.138 101.767 17.2127 101.767 16.1023Z" fill="#2D3640"/>
<path d="M120.006 16.6953H111.271C111.346 17.7048 111.671 18.5082 112.247 19.1054C112.823 19.6943 113.561 19.9887 114.462 19.9887C115.163 19.9887 115.743 19.8205 116.202 19.484C116.652 19.1475 117.165 18.525 117.741 17.6165L120.119 18.954C119.752 19.5849 119.364 20.1275 118.955 20.5818C118.546 21.0276 118.108 21.3978 117.641 21.6922C117.174 21.9782 116.669 22.1885 116.126 22.3231C115.584 22.4577 114.996 22.525 114.362 22.525C112.543 22.525 111.083 21.9361 109.982 20.7584C108.88 19.5723 108.33 17.9992 108.33 16.0392C108.33 14.096 108.864 12.5229 109.932 11.3199C111.008 10.1338 112.435 9.54076 114.212 9.54076C116.006 9.54076 117.424 10.117 118.467 11.2695C119.501 12.4135 120.019 13.9992 120.019 16.0266L120.006 16.6953ZM117.115 14.3736C116.723 12.8594 115.776 12.1023 114.274 12.1023C113.932 12.1023 113.611 12.157 113.311 12.2663C113.01 12.3673 112.735 12.5187 112.485 12.7206C112.243 12.9141 112.034 13.1496 111.859 13.4272C111.684 13.7048 111.55 14.0203 111.458 14.3736H117.115Z" fill="#2D3640"/>
<path d="M127.195 9.88146V22.1717H124.379V9.88146H127.195ZM123.953 4.77105C123.953 4.27473 124.133 3.84571 124.491 3.48398C124.85 3.12226 125.28 2.94139 125.78 2.94139C126.289 2.94139 126.723 3.12226 127.082 3.48398C127.441 3.83729 127.62 4.27052 127.62 4.78367C127.62 5.29681 127.441 5.73424 127.082 6.09597C126.732 6.45769 126.302 6.63856 125.793 6.63856C125.284 6.63856 124.85 6.45769 124.491 6.09597C124.133 5.73424 123.953 5.2926 123.953 4.77105Z" fill="#2D3640"/>
<path d="M144.688 2.68903V22.1717H141.772V2.68903H144.688Z" fill="#2D3640"/>
<path d="M150.074 9.88146H152.902V11.0171C153.887 10.0329 154.997 9.54076 156.231 9.54076C157.65 9.54076 158.755 9.99082 159.548 10.8909C160.232 11.6564 160.574 12.9056 160.574 14.6386V22.1717H157.746V15.3073C157.746 14.096 157.579 13.259 157.245 12.7963C156.92 12.3252 156.327 12.0897 155.468 12.0897C154.534 12.0897 153.87 12.4009 153.478 13.0234C153.094 13.6375 152.902 14.7101 152.902 16.2411V22.1717H150.074V9.88146Z" fill="#2D3640"/>
<path d="M168.326 12.5313V22.1717H165.51V12.5313H164.308V9.88146H165.51V5.37673H168.326V9.88146H170.516V12.5313H168.326Z" fill="#2D3640"/>
<path d="M185.038 16.6953H176.303C176.378 17.7048 176.703 18.5082 177.279 19.1054C177.854 19.6943 178.593 19.9887 179.494 19.9887C180.195 19.9887 180.775 19.8205 181.233 19.484C181.684 19.1475 182.197 18.525 182.773 17.6165L185.151 18.954C184.783 19.5849 184.395 20.1275 183.987 20.5818C183.578 21.0276 183.14 21.3978 182.673 21.6922C182.205 21.9782 181.701 22.1885 181.158 22.3231C180.616 22.4577 180.028 22.525 179.394 22.525C177.575 22.525 176.115 21.9361 175.014 20.7584C173.912 19.5723 173.362 17.9992 173.362 16.0392C173.362 14.096 173.896 12.5229 174.963 11.3199C176.04 10.1338 177.466 9.54076 179.244 9.54076C181.037 9.54076 182.456 10.117 183.499 11.2695C184.533 12.4135 185.05 13.9992 185.05 16.0266L185.038 16.6953ZM182.147 14.3736C181.755 12.8594 180.808 12.1023 179.306 12.1023C178.964 12.1023 178.643 12.157 178.342 12.2663C178.042 12.3673 177.767 12.5187 177.516 12.7206C177.275 12.9141 177.066 13.1496 176.891 13.4272C176.716 13.7048 176.582 14.0203 176.49 14.3736H182.147Z" fill="#2D3640"/>
<path d="M189.411 9.88146H192.226V10.9792C192.744 10.4325 193.203 10.0581 193.603 9.85622C194.012 9.64592 194.496 9.54076 195.055 9.54076C195.797 9.54076 196.573 9.78472 197.382 10.2726L196.093 12.872C195.559 12.485 195.038 12.2916 194.529 12.2916C192.994 12.2916 192.226 13.4608 192.226 15.7994V22.1717H189.411V9.88146Z" fill="#2D3640"/>
<path d="M200.679 9.88146H203.507V11.0171C204.492 10.0329 205.601 9.54076 206.836 9.54076C208.254 9.54076 209.36 9.99082 210.153 10.8909C210.837 11.6564 211.179 12.9056 211.179 14.6386V22.1717H208.35V15.3073C208.35 14.096 208.184 13.259 207.85 12.7963C207.524 12.3252 206.932 12.0897 206.073 12.0897C205.138 12.0897 204.475 12.4009 204.083 13.0234C203.699 13.6375 203.507 14.7101 203.507 16.2411V22.1717H200.679V9.88146Z" fill="#2D3640"/>
<path d="M225.013 9.88146H227.841V22.1717H225.013V20.8846C223.853 21.9782 222.606 22.525 221.271 22.525C219.585 22.525 218.192 21.9109 217.091 20.6827C215.998 19.4293 215.451 17.8646 215.451 15.9887C215.451 14.1464 215.998 12.6112 217.091 11.383C218.184 10.1549 219.552 9.54076 221.196 9.54076C222.614 9.54076 223.886 10.1296 225.013 11.3073V9.88146ZM218.33 15.9887C218.33 17.1664 218.643 18.1254 219.268 18.8657C219.911 19.6144 220.72 19.9887 221.696 19.9887C222.739 19.9887 223.582 19.627 224.224 18.9035C224.867 18.1549 225.188 17.2043 225.188 16.0518C225.188 14.8993 224.867 13.9488 224.224 13.2001C223.582 12.4682 222.747 12.1023 221.721 12.1023C220.753 12.1023 219.944 12.4724 219.293 13.2127C218.651 13.9614 218.33 14.8867 218.33 15.9887Z" fill="#2D3640"/>
<path d="M235.58 12.5313V22.1717H232.764V12.5313H231.563V9.88146H232.764V5.37673H235.58V9.88146H237.77V12.5313H235.58Z" fill="#2D3640"/>
<path d="M243.782 9.88146V22.1717H240.966V9.88146H243.782ZM240.541 4.77105C240.541 4.27473 240.72 3.84571 241.079 3.48398C241.438 3.12226 241.867 2.94139 242.368 2.94139C242.877 2.94139 243.311 3.12226 243.67 3.48398C244.028 3.83729 244.208 4.27052 244.208 4.78367C244.208 5.29681 244.028 5.73424 243.67 6.09597C243.319 6.45769 242.89 6.63856 242.381 6.63856C241.872 6.63856 241.438 6.45769 241.079 6.09597C240.72 5.73424 240.541 5.2926 240.541 4.77105Z" fill="#2D3640"/>
<path d="M248.055 15.9382C248.055 14.1633 248.685 12.6533 249.945 11.4083C251.204 10.1633 252.74 9.54076 254.55 9.54076C256.369 9.54076 257.912 10.1675 259.18 11.4209C260.432 12.6743 261.058 14.2137 261.058 16.0392C261.058 17.8815 260.428 19.4251 259.168 20.6701C257.9 21.9067 256.344 22.525 254.5 22.525C252.673 22.525 251.142 21.8941 249.907 20.6322C248.672 19.3872 248.055 17.8226 248.055 15.9382ZM250.933 15.9887C250.933 17.2169 251.259 18.1885 251.909 18.9035C252.577 19.627 253.457 19.9887 254.55 19.9887C255.651 19.9887 256.531 19.6312 257.191 18.9162C257.85 18.2011 258.179 17.2463 258.179 16.0518C258.179 14.8573 257.85 13.9025 257.191 13.1875C256.523 12.464 255.643 12.1023 254.55 12.1023C253.474 12.1023 252.602 12.464 251.934 13.1875C251.267 13.9109 250.933 14.8447 250.933 15.9887Z" fill="#2D3640"/>
<path d="M265.33 9.88146H268.159V11.0171C269.143 10.0329 270.253 9.54076 271.487 9.54076C272.906 9.54076 274.011 9.99082 274.804 10.8909C275.488 11.6564 275.83 12.9056 275.83 14.6386V22.1717H273.002V15.3073C273.002 14.096 272.835 13.259 272.501 12.7963C272.176 12.3252 271.583 12.0897 270.724 12.0897C269.79 12.0897 269.126 12.4009 268.734 13.0234C268.35 13.6375 268.159 14.7101 268.159 16.2411V22.1717H265.33V9.88146Z" fill="#2D3640"/>
<path d="M289.664 9.88146H292.492V22.1717H289.664V20.8846C288.504 21.9782 287.257 22.525 285.922 22.525C284.237 22.525 282.843 21.9109 281.742 20.6827C280.649 19.4293 280.103 17.8646 280.103 15.9887C280.103 14.1464 280.649 12.6112 281.742 11.383C282.835 10.1549 284.203 9.54076 285.847 9.54076C287.265 9.54076 288.538 10.1296 289.664 11.3073V9.88146ZM282.981 15.9887C282.981 17.1664 283.294 18.1254 283.92 18.8657C284.562 19.6144 285.371 19.9887 286.348 19.9887C287.39 19.9887 288.233 19.627 288.876 18.9035C289.518 18.1549 289.839 17.2043 289.839 16.0518C289.839 14.8993 289.518 13.9488 288.876 13.2001C288.233 12.4682 287.399 12.1023 286.373 12.1023C285.405 12.1023 284.595 12.4724 283.945 13.2127C283.302 13.9614 282.981 14.8867 282.981 15.9887Z" fill="#2D3640"/>
<path d="M300.144 0.859375V22.1717H297.328V0.859375H300.144Z" fill="#2D3640"/>
<path d="M324.37 5.45244H317.637V10.1338H324.132V12.8972H317.637V22.1717H314.721V2.68903H324.37V5.45244Z" fill="#2D3640"/>
<path d="M327.704 15.9382C327.704 14.1633 328.334 12.6533 329.594 11.4083C330.853 10.1633 332.389 9.54076 334.199 9.54076C336.018 9.54076 337.561 10.1675 338.83 11.4209C340.081 12.6743 340.707 14.2137 340.707 16.0392C340.707 17.8815 340.077 19.4251 338.817 20.6701C337.549 21.9067 335.993 22.525 334.149 22.525C332.322 22.525 330.791 21.8941 329.556 20.6322C328.321 19.3872 327.704 17.8226 327.704 15.9382ZM330.582 15.9887C330.582 17.2169 330.908 18.1885 331.558 18.9035C332.226 19.627 333.106 19.9887 334.199 19.9887C335.3 19.9887 336.181 19.6312 336.84 18.9162C337.499 18.2011 337.828 17.2463 337.828 16.0518C337.828 14.8573 337.499 13.9025 336.84 13.1875C336.172 12.464 335.292 12.1023 334.199 12.1023C333.123 12.1023 332.251 12.464 331.583 13.1875C330.916 13.9109 330.582 14.8447 330.582 15.9887Z" fill="#2D3640"/>
<path d="M344.404 15.9382C344.404 14.1633 345.034 12.6533 346.293 11.4083C347.553 10.1633 349.088 9.54076 350.899 9.54076C352.718 9.54076 354.261 10.1675 355.529 11.4209C356.781 12.6743 357.406 14.2137 357.406 16.0392C357.406 17.8815 356.777 19.4251 355.517 20.6701C354.249 21.9067 352.693 22.525 350.849 22.525C349.022 22.525 347.491 21.8941 346.256 20.6322C345.021 19.3872 344.404 17.8226 344.404 15.9382ZM347.282 15.9887C347.282 17.2169 347.607 18.1885 348.258 18.9035C348.926 19.627 349.806 19.9887 350.899 19.9887C352 19.9887 352.88 19.6312 353.539 18.9162C354.199 18.2011 354.528 17.2463 354.528 16.0518C354.528 14.8573 354.199 13.9025 353.539 13.1875C352.872 12.464 351.992 12.1023 350.899 12.1023C349.823 12.1023 348.951 12.464 348.283 13.1875C347.616 13.9109 347.282 14.8447 347.282 15.9887Z" fill="#2D3640"/>
<path d="M370.665 0.859375H373.493V22.1717H370.665V20.8846C369.555 21.9782 368.299 22.525 366.898 22.525C365.229 22.525 363.844 21.9109 362.743 20.6827C361.65 19.4293 361.103 17.8646 361.103 15.9887C361.103 14.1549 361.65 12.6238 362.743 11.3957C363.827 10.1591 365.191 9.54076 366.835 9.54076C368.262 9.54076 369.538 10.1296 370.665 11.3073V0.859375ZM363.982 15.9887C363.982 17.1664 364.295 18.1254 364.92 18.8657C365.563 19.6144 366.372 19.9887 367.348 19.9887C368.391 19.9887 369.234 19.627 369.876 18.9035C370.519 18.1549 370.84 17.2043 370.84 16.0518C370.84 14.8993 370.519 13.9488 369.876 13.2001C369.234 12.4682 368.399 12.1023 367.373 12.1023C366.405 12.1023 365.596 12.4724 364.945 13.2127C364.303 13.9614 363.982 14.8867 363.982 15.9887Z" fill="#2D3640"/>
<path d="M398.983 5.59124L396.618 7.00449C396.176 6.23056 395.754 5.72583 395.354 5.49029C394.937 5.2211 394.398 5.0865 393.739 5.0865C392.93 5.0865 392.258 5.31784 391.724 5.78051C391.191 6.23477 390.924 6.8068 390.924 7.4966C390.924 8.44718 391.624 9.21269 393.026 9.79313L394.953 10.5881C396.522 11.2274 397.669 12.0097 398.395 12.9351C399.121 13.852 399.484 14.9792 399.484 16.3168C399.484 18.1086 398.891 19.5891 397.707 20.7584C396.513 21.9361 395.033 22.525 393.264 22.525C391.587 22.525 390.202 22.0245 389.109 21.0234C388.033 20.0224 387.361 18.6133 387.094 16.7963L390.047 16.1401C390.181 17.2842 390.415 18.0749 390.748 18.5124C391.349 19.3536 392.225 19.7742 393.376 19.7742C394.286 19.7742 395.041 19.4672 395.642 18.8531C396.242 18.239 396.543 17.4608 396.543 16.5187C396.543 16.1401 396.488 15.7952 396.38 15.484C396.28 15.1643 396.117 14.8741 395.892 14.6133C395.675 14.3441 395.391 14.096 395.041 13.8688C394.69 13.6333 394.273 13.4104 393.789 13.2001L391.925 12.4177C389.28 11.2905 387.958 9.64171 387.958 7.47136C387.958 6.00764 388.512 4.78367 389.622 3.79944C390.732 2.8068 392.112 2.31048 393.764 2.31048C395.992 2.31048 397.732 3.40406 398.983 5.59124Z" fill="#2D3640"/>
<path d="M403.744 0.859375H406.56V10.9035C407.561 9.99502 408.666 9.54076 409.876 9.54076C411.253 9.54076 412.354 9.99082 413.18 10.8909C413.881 11.6733 414.231 12.9225 414.231 14.6386V22.1717H411.415V14.9035C411.415 13.9193 411.24 13.2085 410.89 12.771C410.548 12.3252 409.993 12.1023 409.225 12.1023C408.241 12.1023 407.548 12.4093 407.148 13.0234C406.756 13.6459 406.56 14.7143 406.56 16.2285V22.1717H403.744V0.859375Z" fill="#2D3640"/>
<path d="M418.516 15.9382C418.516 14.1633 419.146 12.6533 420.406 11.4083C421.666 10.1633 423.201 9.54076 425.011 9.54076C426.83 9.54076 428.374 10.1675 429.642 11.4209C430.893 12.6743 431.519 14.2137 431.519 16.0392C431.519 17.8815 430.889 19.4251 429.629 20.6701C428.361 21.9067 426.805 22.525 424.961 22.525C423.134 22.525 421.603 21.8941 420.368 20.6322C419.134 19.3872 418.516 17.8226 418.516 15.9382ZM421.395 15.9887C421.395 17.2169 421.72 18.1885 422.371 18.9035C423.038 19.627 423.918 19.9887 425.011 19.9887C426.113 19.9887 426.993 19.6312 427.652 18.9162C428.311 18.2011 428.641 17.2463 428.641 16.0518C428.641 14.8573 428.311 13.9025 427.652 13.1875C426.984 12.464 426.104 12.1023 425.011 12.1023C423.935 12.1023 423.063 12.464 422.396 13.1875C421.728 13.9109 421.395 14.8447 421.395 15.9887Z" fill="#2D3640"/>
<path d="M436.818 9.88146L440.009 16.8972L443.451 8.75843L446.917 16.8972L450.071 9.88146H453.225L446.842 23.0928L443.451 15.1811L440.022 23.0928L433.651 9.88146H436.818Z" fill="#2D3640"/>
</svg>
